<svg id="Ebene_1" xmlns="http://www.w3.org/2000/svg" viewBox="0 0 507.9 285.3"><style>.st0{fill:#93d500}</style><path class="st0" d="M285.1 113.1l.8.8c.1 1.9 1.9 3 2.8 4.5 1 .1 1.7 1.6 2.6 2-.1 1.5 1.7.3 1.8 1.6 1.2-.5.2 1.2 1.5.9 1 .9 2.2 1.9 3.5 1.9 1.7 2 4.7.2 6.6 1.8.2 0 .1-.2.1-.5.6.2 1.3-.5 1.9.2 0-.3.3-.8.7-.7.1.2.4.2.3.4l2 .2c1 1.6 2.8-.6 3.9.7 1-.6 2.5-.6 3-1.6.8.2.1 1 .8 1.3 1-.4 2-1.7 3.6-1.2 3.5 3.6 7.7-.4 11.8 1.5.7-.9.8-2.3.9-3.3-.7-1.3-1.5.7-2.5 0-.6-1.3 1.1-.3 1.1-1.2-.2-.1-.4-.5-.9-.3-.7-2-1.6.6-2.1.4 1-.5-.6-1.1.2-1.8-.2-.1-.3-.5-.7-.3-.4 0-.8-.3-.9-.9-.4.3-1.1.7-1.7.5 0-.6 1.1-.9.4-1.7-.6.2-1 1.1-1.7.3.2-.9 1.3-.4 1.6-1.2-.1-.2-.4-.2-.5-.5-1.1.7-2.5.1-3 .2.5-1.9-1.3-.7-2.1-1.2-.9-.1-.7-1.1-1.7-1.1-.5.2-.5.9-.7 1.2-.3-.9-1.2-.2-2.1-.1-1.9-2.8-3.6 1.6-5.7.8l2.1-1.6-.4-.3c-1 1.3-2.3-.6-3.5.8.1.9 1 .4 1.6.8-.4.3-.4 1.2-1.2 1-.2-.2-.7-.6-.3-.9-.6-.7-1.1-1.5-2.2-1.2-.7.4-1.2 1.1-1.2 1.9l-.2-.3c-.1-.4.1-.7.1-1-1-.4-1.7-.4-2.5.2-1.7-1.5-3.6 1.7-4.5-.2-.3.2-.6 1.3-1.4 1-1.1-.2-.3-1-.8-1.6-.2 0-.2.1-.3.2-.7.9-1.8.2-2.4-.5-.8.2-2 .7-2.6-.2-2 1.3-3.1-1-4.9-1 .4-.3-.4-1.6-1-.7zm39.8-17.4c-.5.8-1.6 1-2.4 1.3l-.7-1.1c-1.5.7-3-.3-4.5-.5-.9 0-1.9-.5-2.6-.1-.2 1.1.9 1.3 1.5 1.8 1.7 2.3 4 3.8 5.5 6.6.2 0 .6.1.8-.1.2.2.3.4.2.8l2.2.1c1 1.9 3.7.1 5 1.2-.2-.8 1.1-1.1 1.7-.8 1 1.7 2.9.7 4 2 1 .2 1.3-.9 2.1-1.1 1-.1 1.4 1.2 2.4 1.5 1 .2 2.5-1.9 3 0 1.5-.3 3 .4 4.6.4.9.3 2.7-.3 3.4.6 2.1-.2 4.5-.5 5.8-2.1l.1.9c.6-.6 1.5-.2 1.9.2 1.5-1.2 3.3-2.4 4.1-4.1l-.4-.3c.1-1.3-1.1-.3-1.7-.4 0-1.1-1.7-.8-2.2-1.1l.1-.8c-.2-.7-.7 0-1 0-1.7-.6-1.6 1.5-2.6 1.9-.8-.8.8-1.1.2-2.1.3-.5.9-.6 1.5-.7-.6-1-1.6-1.9-2.6-2.1-.1-.4-.1-1.2-.8-1.2-.6.3-.2 1.3-1.1 1-.9-.7.5-.9.5-1.5l-.1-.1c-1.3-1.9-2.7.1-4 .4-.3-.7-.3-.9 0-1.6-1.1-.5-2.5.1-3.7.1-.4-.8-1.6-.4-2.2-.2-.8 2.1-3.5-1.2-3.5 1.7-.9.4-.9-1.2-1.8-1-.6.6.5 2.2-1 1.9l-.1-1.6c-.4.1-.9-.1-1.2.2-2.6-.3-4.6 1-7.1.1-.9 0-.4 1.1-1.3.9.2-1.7-1.5.2-2-1z"/><path class="st0" d="M416.5 24.7c-.9-.6-1.7.4-2.6.7-.2-.7.6-1.2 1-1.8.7-.6 1 .9 1.5-.2-.6-.6-.8-1.5-1.8-1.3-1.1 1.5-3.4 1-4.4 1.6-.6 0-.3.3-.7.7-.7.8-1.8 1.2-2.8.8-.2-1.5 1-.5 1.6-1.3-1.1-.8-2.2.2-3.5.3-.3-.3.1-.7.2-1-.9-.7-1.6.8-2.6.6.3.6.7 0 1.2.4.2 1.1-1.4.8-1.6 1.6-.7-.3 0-1 0-1.5-.6.1-1.3 0-2.1.4-.2.6.3.8.4 1.2-1.2.7.4 1.7-.3 2.4-2.6.4.2-1.5-1-2.4-.5-.1-3.6-.2-3.9 1.7-1.1-.6-1.8.6-2.7.6l1.1.9c-.1.3-.3.1-.6.2-1.3.1-2.7-.9-4-1-1.3-1.1-1.3.8-2.4 1l-.2-.3c-1.1-.7-1.8-.2-2.4.9l-.9-.6c-1.9-.6-2.2 2.6-3.9 2 0-.7.9-.1 1.1-.7 0-.2-.2-.3-.3-.5-1.3-.4-2.5.2-3.7.6-.5-.3-1.8-.7-2.7-.3-.7.1-1 1.2-1.9.8-1-.4-1.3 1.5-2.3.6-.8 1.2-1.6-.2-2.7 0-3.1.3-6 .7-9.1 1.6.2 2-2.5 1-3.4 2.2-1.4-1 1.1-1 1.4-1.8l-.9-.4c.6-.8 1.6-.5 2.4-.8.5-1.9 2.6-2.4 3.2-4 .4 0 .7-.4.9.1.8.8 1.6-.1 2.1-.4.2-.8 1-1.5.4-2.5.5-.3.9-.5 1.3-.5.6-.6-.2-1.3-.4-2.1-.8.6-2 .3-1.9 1.5l-.9-.3c-.7.3-.1 1-.2 1.5-1.5.5.6 1.5-.6 2.1-.2-.1-.2-.3-.3-.5-.4-.5-.4.4-1 .3-.7-.9-.7-1.8-.7-2.8-.1.1-.4-.1-.6.2l-.3-.3c-.1-.2.2-.3.2-.6-1.7-2.1-1 1.2-2.5 1 .2 1.2 1.3.1 2 .9.3.3-.1.8-.2 1.1-.8.7-.8-.7-1.2-1-1.5-.7-1.1 1.5-2.4.8.1.1.2.2.1.3h.9v.1c-.6.4-1.6.9-2.1.4.5-.3-.5-1.2.7-1v-1.3h-.5c-.8 1.1-1.6.1-2.6-.2-.1.1-.1.3-.1.5 1.7.5.5 1.8.1 2.8-.9-.3-1.7.6-2-.4h.9c.3-.3 1.1-.5.7-1.2-.7 0-1.3.6-1.9.8-2.4-.2.2 1.8-.7 2.8-1.5.8-.6-2-1.9-2.2-.5.2-.2 1-.3 1.2l-.9-.1c-1 .3-.6 1.3-.1 1.6-.2.2-.4.6-.7.8.7.8.7 1.6.3 2.4-.6 0-1.1-.1-1.6-.4l.7-.9c-1.6-1.2-2.3 1.5-4.2.9-1 .7.7 1.4-.3 2.1-1.2-1.8-2.3 1.5-3.5-.2-.8-.2-1.2.4-1.8.7-.6 1.3.5 1.9 1.1 3.1-.2.2-.6.1-.8.1-.8.1-1.9-.8-1.2-1.5.4-3.9-2.5 1-3.9-.7-1.1-.1-.7.9-1.6 1.2l-.4-.9c-1.2.1-.3 1.1-.6 1.8-.3.8-1.2 1.1-2 .8l1.1-1.4-.3-.3c-.7.3-1.1 1.2-1.9 1.2-.1-2.3 2.1-3.3 3.9-4.5-.4-1.5 2-.9 2.2-2.4l-.9-.9.5-.8c-.4-.3-.9.8-1.4.2-.1-.4 0-.9.2-1.2-.2-.7-.9-.3-1.4-.6-1.6.3-1.4 1.6-2.3 2.4.6.6.7-.3 1-.4.4 1 1.1 0 1.7.8-.1.2-.1.4-.3.6-.1.4-.8.4-.9 0-.4-.5-.7.3-1 .3 0 .2.9.7.1 1-2.1-.2-1.4-2.9-2-4.2-.2 1.5-1.2.5-2.3.2-.3-.7.7-.6.8-1l-1.1-.1c-.1-.3.2-.5.2-.7-.5-.6-1.2.3-1.8.4l.1.2c.3 0 .6-.1.8-.2-.5.7.7 1.1.6 1.8-1.4.7-.8-1.8-2.4-.9v-.2c0-.8-.7-.4-1.1-.4v-.8c-.4 0-.9-.1-1.2.1 0 .6.6.6.9.8-.9 2.3 3.1.9 2.1 3.4h-.1c-.8-.8-2.4-.4-2.9-1-1.1 1.4-3 .2-4.3.3.1 1.3-1.9 1.5-.7 2.9 1.8.2-.2-1 .7-1.6l.7.5c.7-.3 0-.8.4-1.2.8.2 1.7.5 2.5.6-.3 1-1.8.6-2.5 1.1.7.5 1.6.8 1.9 1.4-.2 1-1.9 1.4-2.6.8-2.1.4-.9-2.1-2.5-2.7l-1.6 1c.1.3.3.6.8.5 0 .4.6.9-.2 1.2-.9.1-.4 1.1-.2 1.3l-1.1-.1c-.1.4-.8.7-.6 1.3.2.6 1 .8 1.5.6.3-.3.1-1.1.8-1 .3.4.9.7.9 1.2-.3.4-.9.5-1.5.5v.8l-1.6-.2c-.1.6-.2 1.2.4 1.3-1.2 3-.1-1.1-1.7-1.1-.5-.1-.9 0-1.1.5l.7 1.1c-1.5 2.5-2.8-.8-4.7-.1-.3.2.1 1.1-.6.9-.2 0-.1-.3-.1-.5h-.7c-.1.2-.5.2-.4.7h.3c.4-.1 1 .6.5 1-1.7-.4-3.5-.7-5.2-.1-1.3 0-2.8 1-4.5.9v.2c2.5 2 3.8-1.7 6.2-.7-.1.8-1.4.8-2.1 1.2l.8.7-.4.5-.6-.5c-1-.5-1.2.9-2 1l-.1-.5-.2.1c-.2.4-.7 0-.9-.2-.8.5-.9-.6-1.5-.7-2-.7-1.1 1.6-1.8 2.5-.9 1.3-2.4.5-2.9-.4.7-.8 1.4-.2 2.1-.8-.6-.8-1.4.3-1.8-.4.1-.5 0-.9.6-1.2 1.1-.6 2.5-.6 3.4-1.3l-1.1-.6c1.4-.2.4-1.5.9-2l-1.9-.1v.2c-.4.4-.8.9-1.4.9l.6.8-1.8.9c-.9.8-.2 1.6-.7 2.5-.2.2-.8.3-1-.1-.2-.8-.7-1.3 0-2 .5-2.4-1-.9-2-2.5-1 .3.1 1.5.2 1.7-.8.3-1-.3-1.1-.9-1.1-.7-.9 1.3-1.8.8-.2.5-1 1.1-1.5.9-.3-.6.5-.7.6-1-.2-.6-.4-.1-.8 0-.1-.2-.3-.2-.2-.4.1-.3.4-.4.7-.3v-.3c-.5 0-.9-.4-1.1-.9-1.2.2-2.5 1-3 2.2 1.8 1.6.6-1.6 2.2-1.2 1.1.3.8 1.7.8 2.3l-.2-.2c-.3 0-.7 0-.9.3-.1.2.1.5.3.7 1.5-1.7 2.6 2 4 0 .5.6 1.7.2 1.8 1.1-.6.2-1 .8-1.5.8l-.2-.9c-.2-.2-1-.4-1.2.1-.2 1.7 1.9.9 2.3 1.6-1.6.2-2.8 1.1-3.8 1.9-.2-.2-.5-.4-.5-.7.1-.4.5-.3.9-.3.6-.7-1.2-1.7.2-2l-.5-.9c-.8-.4-2.2-.1-2.7.8l-.1-.1c-.6-.7-1.9-.7-2.6-.9.5 1-.9 1-1.3 1.1.8 1.1-.8.9-1.1 1.6.8 2.1-2.7 1.5-1.7 3.5-1.5-.1-.1 1.8-1.2 2l.8.2c-.5.4-1.5-.1-1.7.8-.5 0-.9.1-1.4-.1-.2.3-1.1-.1-.9.6.3.3.9.4 1.3.6l-.3.3c-1.2-1.5-2.1 1-3.5.1-.8.6.6 1.2-.1 1.6.7.2 1-.3 1.6-.6.7.6-.3.4-.3 1 .3.3 1.4-.1 1 .8-.3.3 0 1.2-.7 1.2.1-1.5-2.1-.5-1.5-1.9-1.2.1.6.9-.5 1.2-1 .1-2.1 1.2-3 .2-.6.1-1.7.2-1.5 1.1-.8-.3.2-1-.8-1-.2.9-1.8.6-1 1.7-1.5.2-1.5 2-3.3 1.8-.1.8.8.3 1.1.9-.9.7-2.4.7-3.2.4.3 1-.8.2-1 .9-.2 1.9-2.2 1.6-3.1 2.8.8.4 1.9-.7 2.7.4-.4.3-.9.4-1.4.4-1 .5-2.1 1.6-3.5 1.4.4.9 2.5.7 2.7 1.9-.6.5-1.2 1.1-2 .7l.4-.4c-.1-2.1-1 .7-1.9.1l.1.8c-.4.6-1.2.1-1.8.3.2 1.2-1.8.6-1.2 1.8.8.8 1.7-.3 2-.7.6.6.8 1.3.6 2-.8 0-1.6-.6-2.2-.3v.3c.1.2.5.2.6.4-.9 1.2-.9-1.2-1.8 0 0 .3.3.5.6.6-.8.8.9 2 .6 3-.5.4-1.6-.2-1.6.7 2.1.3-.8 1.5.1 2.6.3-.1 1-.4 1.2.1 0 .9-1 .8-1.5 1.2l.7.9c-.2.2-.7.1-1 .1-1.6-.1.5-1.1-.8-1.7-.8-.2-2-.2-2.3.7.1.8 1.1.3 1.8.5.2.5.7.8.1 1.2-.8.3-.8-.8-1.3-.7 0 .3.1.7-.1.8-1.4.1-.1-.9-.9-1.3-1.3-.7-1.3 1.1-1.7 1.8.2 1.1.1 2.4 1 3 0 1.1-1.3.6-1.7 1.4.2.1.2.4.4.3.9-.7 2.2-.1 2.8.8-.7.7-1.8-.1-2.4.5-.1.6 1 .7.2 1.2 1.4 1.3-1.2.9-1.2 2.1-.3-.2-1.6 1.3-1.6 1.3-.6-.3.2-.9-.2-1.2-.2 0-.6-.1-.7.1.2.3.2.6.4.8l-.7.6c-.3.6-.2 1.1.4 1.1l-.7.5c.4.4.7 1.1.7 1.7l1.1-.2-1 1.5 1.3.4c.5.4-.1.8-.3 1.1-.3 1.7 1.9.8 2.5 1.9-.6 2.7-2-1.7-3.1.2l1.7 2.5c-.8 1.2-1.6 1.2-1.6 2.7.6.7 1.6 0 2.1.7 0 .8-.9.1-1.2.7l.8.7c0 1.6 1.8 1.9 2.1 3.1 0 .3-.4.3-.7.3-.1-.1-.3-.2-.2-.5-1.1.2-1.8-1.1-2-2-1.6.9.4 2.1.2 3.4-.7 0-.9.6-1 1 .1.9 1.1.8 1.6.8-.8 1.1.8 2 .9 3.2 1.5.3 1.7 1.9 3.4 1.8 1.9 1 2.5 3.9 4.9 3.8 1.1-.1 2.6-.2 3.5-1.2.2-.8-.2-1.2-.7-1.7.3-1.2.3-2.2.1-3.5 0-.4-.9-.7-.5-1.1.7.1.9-.7.8-1l-.9-.1v-.3c.3-.7.7-1.6-.3-1.8-.3-.6 0-1.1.3-1.6l-1.1-.5.8-1c-1.6-.4.5-1.7-.8-2.3 1.8-1.3-.9-2.6.3-4-.3-.6.3-1.8-.8-1.8.3-.3.7-.9.4-1.2-.3-1.3.2-2.6.3-3.9-1-2 1-3.7 1.2-5.4 1.8-.8.1-2.9 1.9-3.7-.1-2.9 3.2-4 3.7-6.5.2-1.2 1.5-1.7 1.8-2.6.9-.1.9-1 1.5-1.4.7 0 .8-1 .4-1.5.3-.3.9-.6 1.2-.2.8-1.7 2.3-2.5 3.5-3.7.7-.9 2.4-.6 2.4-1.7-.5-.1-1.5.4-1.7-.2.6-.2 1.1-.9 1.9-.7 2.5-.9 3.3-2.9 5.6-4 .1-.5-.7-.9 0-1.2.5-.4.8-.1 1.2 0l-.4.9h.6c.6.1.4.6.2.9.4.3 1.1.8 1.2 1.3l-.8.8c-.2.7.7.9.8 1.3l-1 .9c-3 .1.7-2.5-.2-3.5-1 .6-1.7 1.3-2 2.3-.6.4-1.8.3-1.9-.5-.1.6.1 1.4-.3 1.9.7 1.8-1.5 2.3-.4 3.8.9-.1 1.2-.9 1.8-1.3l.1.1c-.3.8.6.7 1 .9.8.5-.2 1.2-.2 1.4 1.7-.8 1.5 1.3 2.2 2-.6.3-1.1-.7-1.6-.8l.1-.1c-.2-.2-.3-.5-.6-.5-.9.5.2.8.1 1.3-.3.2 0 .9-.7.8-.9-.3-.7-1.2-.1-1.7l-.4-.3c-.4-.2-.3-.8-.1-1-.2-.2-.3-.5-.7-.5-.7.2-1.1 1.3-.7 1.8-2.1 1.7 2 .6 1.1 2.3-.2.3-.9 0-.7.7.7 1 1.5-.7 2.4 0 .5.7.8 1.5.8 2.1-.6.1-.4-.6-.8-.8-.3 0-.9 0-1 .3 0 .7 1.8 1.5.2 2.1-1.8.2-.7-1.6-1.8-2.3l-1.3.7c0 .5.7.7.9 1-.1.1-.2.4-.5.3-.5 1.1-.5 1.8.7 2.6l-.5.3c.3.7.9 0 1.4 0 .6-.3-.6-.8.2-.8.2.3.8.9.3 1.3.4.2.9-.3 1.6-.1.2 0 .7.3.6.7-.1.2-.3.2-.4.2-.6-.3-1.5-.1-1.7.4.9 1.7 2.7-.9 2.9 1.5-.6.9-1.6-.7-2 .4l.3.3c.2 1.7-1.4.9-2.1 1.5-.7 1.7 1.1.1 1.7.8l-.3.7c.9.4.7 1.5 1.8 1.4-1.4.4.3 1.5-.9 1.9.5 2 2 0 2.8 1.7-.6.7-1.8.5-1.9 1.6l.3.2c1.7 0 2.8 1.5 4.3.5l-.5-.9c0-.8.9-.8 1.5-.7.2.3.9.4.7 1-2.8 1 1.3.6.6 2-.9-.1-2.4.2-3.4-.3-2.4.1.7 1.7-1.1 2.5-1.9-1.1-1.8 2.1-3.8 2.2.8 2.4-2 2.2-3 3.8-.8.4 0 1.4.8 1.3-.6 1.2-2.8.3-3.4 1l1.2 1.1c-1.2 0-2 .9-2.9 1.7.3 1.3-1.7.2-1.4 1.6.6.5 1.6.2 2.1.3.5.6-.3.9-.4 1.3-1 .5-.7-.6-1.3-.8-.7.6-1.1.9-1.7 1.6-.5.7-.1 2.6-1.1 2.4.1 1.1-.8-.1-1.2.7-.7 1 .9.8 1.1 1.2l-.3.3c-.7.3-1.1-.6-1.5-.8-.2.6.6 2-.9 1.8 0 .8.9.6 1.4.8-.1.8.8 1.5.1 2.1-1.2.9-1.5-1-1.5-1.6-.5.8-1.9.6-2.1 1.5l.6.7c-1-.3-.5 1.3-1.7.9.3 1.1-.8 1.2-1.2 2.1-1.1-.2-1.1 1.6-1.8 1.6 1 .3 1.7-.6 2.1-1.2.6.3 1.8-.1 1.7.9-.3.4-.7 1.2-1.4.9-1 .7-2.1.7-3.4.8-1 2.2 2.2.6 2.2 2.5-.6-.2-2 .7-2.3-.4-.6.1-1.1 0-1.6.4l.9.6c-.4.4-1.5.3-1.5 1.2.1 1.6 1.9.4 2.4 1.7-.1.4-.8.8-1.1.4-.4-.7-1.8 0-1.7-1.1l-.4 1.2c.4.6 1.5.3 1.8 1.1-1.1.4-2.5.7-3.4 1.8l1.2.6H234c2 1.6-1.8 3.4-.2 5 1.4.2-.2-1 .7-1.3.7-.1 1.9-.6 2.1.2-.3.4-1 1-1.7 1.2-1.2-.1-.6 2.2-2.2 1.3-.6 0-.6.7-.9.9.1 1.2 1.6.1 2 .8-.6.4.4 2.4-.9 2-.9-.2-.3-.8-.6-1.2-1.6.7-2.1 2.4-2.7 3.8.6.2 1.2-.6 1.8 0l-.5 1 .8.5c-.4.2-.9.9-1.4.7v-.2c0-.4-.5-1-.9-.7l.1 1.8c-1.9-.2-.8 1.8-.9 2.8.6 2.6 4.1 0 4.8 2.4 2.6-.2 3.4 2.6 5.8 2.7.8-.4.2-1.6.2-2.2.2-.8 1.5-.9.8-1.9 1.1-1.6 1.3-3.4 2.9-4.5-2.6-1.2 1.5-1.2.9-3 1-.2.9-1.2 1.5-1.8.8-2.4 2.3-4.5 3.2-7 1.2-1.6 1.9-3.2 3.1-4.5-.6-1.8 2.1-1.8 2.6-3.5.5-3.7 3.9-6.5 6.1-9.2.1-1 1.7-.8 1.2-1.8 1.7-1.4 1.9-3.3 3.7-4.6 1.5.1.5-1.9 2.1-1.9 1.4-3 4.6-4.7 6.3-7.7l-.4-.3c-.1-.8.7-1.6 1.2-2.2.6.1.7-.3 1.1-.7 2.4.6 1.9-2.7 3.9-2.8.3-.9-.7-.9-.9-1.2l1-1.3c.3-.5 1-.6 1.4 0l-1 1.3c.1.2.4.1.7.1 3.5-3 7.1-5.7 10.5-8.6.7-1.7 2.6-2 3.9-2.8.1-.3.3-.9-.2-1.1l2.9-1.5c2-2.6 5.4-2.7 7.4-5 2-.2 3.5-1.9 5.1-3-2-2.4 2-.7 1.8-2.7 1.9.5 2.9-.8 4.7-1.2.9-1.9 3.7-1.1 5-3 .8 0 1.1.4 1.8-.1.6-1.5-1.3-.3-1.7-1-.1-.5.1-.8.4-1 3.8 2.1 6.4-2.4 9.9-2.7.3-.6 1.1-.7.7-1.3.7-.7 1.5-.8 2.1-1l-.1-.5c.6-.1.8-.9 1.4-.9.1.4.6.8 1.1.7 1-.3 0-1.4 0-1.7 2.2 1.6 3.7-1.5 5.8-1.6.6-.1.9-.7.9-1.2.8.9 1.4-.5 2.1-.2.5-.5-.1-.9-.2-1.2 1.1-.2 2.3-1 3.3 0 1.1-.4 2.6-.9 2.9-2 .9-.7 1.6-.2 2.6-.1 1-.3-.2-1.9 1.2-1.7.2 0 .3.2.3.5.5-.8 1.7.5 1.8-.7-.4-1.3-1.2.5-1.8.1.1-.5.3-1.1-.2-1.3-1.5-.8-1.1 1.3-2.2 1.5.1-.2-.2-1.1.3-1.3.6-1.5 2.2-.3 3.5-.4 1.2 1.9 2.2-.3 3.6-.5.9-1.7 2.9-.3 3.9-1.3.1-.4-.8-.6-.3-.9.7-.2 1.1.3 1.7.1 2.6-.9 4.3-3.8 6.9-4.4 2.6 0 4.8-2.1 7.3-3 1.5-.1 2.2-1.1 3.2-2 1.7 0 3.5-.9 4.7-2.1-.7-.9-1.5.4-2.4.2 0-1.9 1.7-.4 2.8-1.2 1.1-.1 2-1 3-1.2.3.2.3.4.3.8-.2.9-1.2 1.7-2.1 1.3l1.3 1.7c-.6.1-1-.6-1.5-.3-.6.8-.3 1.7-.2 2.2-1.1-.2-.3 1.3-1.5 1.2 0 .3-.1.8.1 1.1l.7-.4c.6-.1 0 .6.6.7.9.7 1-.7 1.8-.7l.2.1c0 .3-.1.6-.2.8-1 .3-.1 1.9-1 2.7-2.6.9-.6-2.3-2-2.6-1.1.1-1.6 1.9-.6 2.2l-.4.2c-.2.2-.3 1 .1 1.2l-.5.6c0 1-1.6 1.8-1.2 3.1.2.8.7 1.1 1.5.9 1-.2.3-1 .2-1.4.4-.2.3-1 1-.9.7-.4 1.2.1 1.6.6-.3.7-1 .1-1.4.4-1.1 1.3.1 2.8.9 3.5-.7.1-1.5-.1-1.9.7-.3 0-.7 0-.9-.3-.2-.9 1.1-.7 1.5-1.3-1-.5-2.4-1.2-3-.5 1.5 2-1.6 2-.3 3.9-.2.6-1.1.2-1.3.8.1.3.7.3 1 .6-1 0-.6 1.2-1.4 1.6-.1.1-.6 0-.4.4.4.5 1.2.2 1.7.1.4.7.2 1.5-.1 2-.5-.2-.7-.7-1.2-.5-1.5.3.2 1.4-.3 2 .9.2.1-1.1 1.1-.7.7.3-.1.8.1 1.3-1.7.3.3 1.7-.8 2.6-.2-2.2-2.5-.7-3.9-1.4.2-.2.3-.4.7-.4.2-.2.7-.3.4-.7-.8.1-1.3-.7-2.1-.6l-.3.8c-.2.1-.5-.2-.6-.3 0-.3-.1-.7.1-.8-.3-.4-1-.6-1.3-.4-.1.3.1.6.3.9-.3.8-.8-.1-1.2.1-1-1.1-2.5.6-3.5-.9-.1-1.2 1.3-.9 2.1-1.3-1-2.2-2.6 1.2-4-.6-1 .4.8.9-.2 1.3-.7.1-1.2-.1-1.7-.4l.4-.9c-.3-.3-.9-.3-1.2 0 .4 1.3-1.9 1.6-2.2 2.8-.6.8-1.2.1-1.7-.4-.2-1.3 1.7-.9 1.8-2-1-1.1-1.7.7-2.7 0-1 .8-2.2-.4-3.1.5 0 .6.5 1 .7 1.6-1.4.3-1.9 2.7-3.2 1.7.1-.8 1.1-.8 1.8-1.2.4-1.1-1.5-.2-1.7-.7l1.5-.8c.1-.2-.1-.3-.2-.4-.7.1-1.3.3-1.8.9-1.2.7-2-.7-2.8-1l-.1 1c-.9.6-1.8 1.2-2.9 1.3-1.2-1.6-2.6 1.2-3.6-.6-.7 1.6-1.6-.4-2.4-.2l-.2.8c-.9.5-.8-.7-.8-.9-.8 1.2-1.9-.4-2.7.3.2 1.8 1.1 2.8 2.6 4 .2 2.3 3 2.2 3.1 4.6 1.4.8 2.8 1.5 4.4 1.2 1 2 2.1-.8 3.5-.4 2.5.3 4.8.3 7.2 1.1 2.3 1.3 3.1-1.8 5.4-.7 2.2 1.7 3-2.1 5.5-.7 2.2.8.1-1.6 1.4-2.2.8-.1 1.5.1 2 .4l-1.1.9c.2.2.6.4.7.8l-.9.8c.6.3 1.1 0 1.6-.3l-.1-.1c-.1-.7.1-1.2.7-1.6 1 0 1-1.1 2-1.2 2.1 1.9-1.2 1.6-1.1 3.5.2.3.9 0 .7.7l-1.8.5c.1.1.2.1.2.4.7-.1.8.7.7 1h.8c.6.2 1.2.6 1 1.3-1.2 1-1.9-.9-3-1.6-2.2-.3.2 1.5-1 2.2l1.7.6c-1.1.7-2.6-.7-3.8.7-.3.3 0 1 .3 1.1l.4-.5c.3-.3.9-.7 1.2 0 0 .4.6.7 0 .9-1.1.3-1.9-.6-2.6.2-.1.9.6 1.4 1.3 1.8l-.3.3c-1.5-.8-2 .7-3.4.7.8.8 1.5.2 2.1.8-.2.9-1.1.1-1.5.8l.1.1c.1.3 0 .6-.3.8-.1 0-.4.1-.6-.1 0-.5.6-.5.5-.9-1.8-2.5-1.2 1.6-2.9 1.8.1 1-1.1 1.5-1 2.2.4 0 1.2.1 1.2.8-.5.5-1-.2-1.7 0-.7.5-.8 1-.3 1.7-.2.6-1.1 0-1.5.5-.4 1 .1 1.9.7 2.7.1.6-.6.8-1 .9v-1.3c-.7.2-1.2-.4-1.8.1-.3.3-.1.8.3 1.1-.7.3-1.1 1.3-.2 1.7-1.1.8-1.2-1.6-2.2-.4-.5 1-1.1 2.2-2.2 2.6l.2.7c-.2.3-.7.7-1 0-1.5.5-2 3-3.7 2.3-1.7.6.8 1.2.2 2.2.1.6-.8.8-1.1.4-.6 1.6-1.8.1-2.7.1-.8.7-2.2 1.1-1.3 2.4-1.1.7-2.3 1.1-3.5 1.3 0 1.3-1.8.3-1.8 1.5-1.9.2-.9 2-2.5 2.5v-2c-1.1 0-1.5 2.7-2.6 1-.1 1.2-1.1 1.8-1.7 2.6-.5-.4.1-.9.2-1.3-.5.3-2 .1-2.5.8.2.6 1.2.4 1 .9h-1c-1.3-1.5-1.2 1.8-2.7.4-.3.8-2 .3-1.6 1.7-.2.2-.5.6-.9.5-.6.2-.5-.5-.5-.8h-.5c-.4 1.3-2.2-.1-2.6 1.2.2.6.9.2 1.3.3l-.1 1.5c-.9.2-1.5-1.6-2.1-.5-1-1.8-2.5.2-3.4.7-.3-.1-.8-.9-1-.2l.7.8c-.2.3-.6.6-1 .5-2.1-.7-4.1.6-6.2.8-1-.1-.8 1.7-1.7.6-.7.3-1.9 0-1.9 1.1-3.5-2-7.2 1.7-11.4.9-.8 1.6-1.9-1.2-2.2.6l.1.2c-.3.1-.5.7-.9.5-.2-.4.4-1.3-.7-1.2-1.5 1.4-3.7-.4-5.4.8 0 .3-.1.8.1 1-.6.5-.8 1.6-1.7 1.6-.7.1-.4-.7-.7-1 .1-.4.6-.3.9-.3.3-.5.6-1 .2-1.6-1.7-.9-1.7 1.9-3.2 1.6-.8-.5.1-.9-.2-1.6-.8-.3-.3.7-.9.8-.8.2-1.2-.3-1.7-.5-.6 1 1 .9.4 1.9h-.2c-.1-.1-.4-.2-.3-.4l-4.4-.1c-.3.4.5.8-.2 1-.3.2-.5-.2-.7-.5-.3-2.1 2-.5 2.6-1.8-.9-.8-2.3-.8-3.3-.3-1 2.1-2.3-.2-3.7.9-.7.6-1.7 1.5-1.1 2.5 1.1.5 0 1.6 1 2.1 1.8.5 1.6 2 3 2.7 2.5.9 4.7 3 7.2 3.7 1 1.6 2.7-.7 3.2 1.1 1.4.3 2.5.9 3.5-.5l.2 1.2h.1c0-.2.4-.4.7-.8 1.6-1.3 1.9 1.3 3.6.7.6-.3 1.1.6 1.5 0 0-.2.1-.4-.1-.7-.7.3-1.3-.3-1.3-.6l1.3-.1c.9.9 2.8 0 2.9 1.5 1.4 0 2.4-.9 2.6-2.2 1.2-.1 3-1.3 3.6.4-.2.1-.2.4-.4.6.2.2.3.5.7.3.3-.5-.1-1.1.4-1.5.6-.6.9.5 1.3.7.5-.5.8-1.1.9-1.8 1.6.5.8-1.7 2.2-1.5.1 1.3 1.6-.3 2 .9 1.7 1.1 1.7-1.6 2.7-1.7 1.6.2-.4 1-.3 1.7.2.1.4.2.7.2.2-.7 1.7-1.1 1.1-2 1.3.3.7-2.1 1.9-1l-1.6 2.8c.9.8 2.1-.2 2.5-.9l-.5-.7c.8-.9 1.6.4 2.1.5.6 0 1.2-.3 1.3-1l.5.5c1-1.3 1.7.6 2.7.2.7-.6.5-1.1.5-1.7-1.1 0-1.8 0-2.8.1-.5-1 .8-1.7.6-2.2.3-.2.5-.8.9-.7.6.3.1 1 .4 1.4 1.4-.2 1.4 1.7 2.6 1.6 1.9.1 2.8-1.2 4.4-1.5.3-.4 1.9-.4 1.1-1.6.3-.2.6-.7 1-.7l-.6-.8c1-1.2 1.2.9 2.2.5 1-.7 3.2-.4 3.2-1.8-.5-.6-1.1-.5-1.6-.8-.1-.5.1-.8.4-1 1.3.9 3.4-.4 4.5.6 1.7.9.4-1.6 2-1.1v1l.6-.1c.2-.7 2-1 .9-2 .9-.8 1.9-.9 3-1 1.5-1.3 3.3-1.2 4.4-2.8 2.5.3 3.3-1.6 4.6-3 0-.9-.7-2.1.4-2.6.6.5.1 1.3.4 1.9h.1c.7-.4 1-.8 1-1.6l.8.1c.7-.2.9-.9 1.2-1.5l1 .6c2.6-.6 3.9-2.6 5.8-4l-.4-1.1c1.1.8.5-.5 1.4-.7l.3.6c1.5.1 0-1.1.9-1.7-.3-.6-1.3-.1-1.3-.9.2-.6.7-1.4 1.3-1-.1.2-.5.3-.4.7.3-.1.4.2.8.3 0-.6.7-.5 1-.3 2.8-.2-.3-2.6 1.6-3.6 1.2-.5 2.7-2 2.7-3.3.2-.6.8-.2 1.2-.3.3-.6 1.5-.3 1.3-1.4l-1.2-.2c.6-.7 1.2.1 1.8-.3 2-1.8 4.6-3.4 5-6.1 1.3-1.2 1.4-2.5 2.7-3.7-1-2.1 1.4-3.1 2.1-4.5.2-.7.3-1.6.4-2.1-.6-1.3 1.8-1.1.9-2.9 1.6-1.3 2-3 2.5-4.8 1.8-.3.2-1.8.4-2.7l2.1-1.3c.1-.4-.2-.7-.3-.9 1.1-1 1.9-2.1 1.7-3.2l2-4.5c.4-1.1-.3-2.1.4-3 2-.7-.3-2 .9-3.3 2.2-.5 1-2.9 2.2-4.4 1.8.1-.1-1 .7-1.6.5-.4-.3-.9-.6-1.3.8-1.1 1.4-2.2 1.7-3.1l-1-.7c.9-.1 1.3-1 1-1.9 1.4-.6-.1-2.2 1.7-2.3-.3-1.1 1-1.7.8-2.8 1.6-1.3-.3-2 1.3-3.2-1.8-1.8.8-3.4 1.2-5l-.7-.8 1.5-1.1c-.3-.3-1.7-1-.5-1.7l-1-.7.6-.4c1.2.2 1-1.9 2.4-1.1 0 0-.1-1.6.9-1.2 1.1.1 2.3-.1 2.8-1.1 1-.4-.1-1.9.2-2.6-.8 0-.8 1.2-1 1.9-.3-.7-1.3-.6-1.3-1.2.2-.4 1.2-.1 1.1-.9l-.6-.4c.6-.9 1.5-1.5 2.2-1.9 1-1.5.5-2.4 1.1-3.3zM291.7 63.1c.3.7 1.1.1 1.6.5-.7-.1-1.8.4-2-.7-.8.4-1.6 1.7-1 2.8-.3 0-.6.1-.8.3l.5 1c-.3.3-1 0-1.3.3-.1 1-1.1 2-.3 3 .9-.7 1.1.9 2 .6-.2 1.3-1.7 0-2.6.7-1 1.6-1.1 3.4-.8 5.2.7.6 1.9 1.3 1.6 2.3-.7.4-1.3.6-2.1.4-.3-.9 1.2-1.9-.2-2.3-.3 0-.8.1-.9.6-.2 1.1.1 1.7 0 3-.4.8 1 1.7-.2 1.8-.4.9-1.1 1.9-.8 2.8.9.8 1.8.2 3 .4 1.5.2 3.5.8 3.8 2.1-.3.7-1.5-.5-1.9.6l.3 1.3c-.7-.1-1.2-.3-1.8.2v.4c-.5 0-.9-.3-1.2.2.1.7-.2.7-.5.9-.6.1-.8-.1-1.2-.2.3 2.1-2.6 1-2.5 3-.1 0-.3-.1-.4.1-.1.3.4.8.8.8.6 0 1-.1 1.2-.7 0 0 .1-.1.2-.1v.8c-.8.1-1.6.4-2.3.1l-.7-.9c-.9 1-1.8 2.2-1.8 3.8l-1-.2c-.3-.3.7-1.2-.3-1.4-.3 0-.5.1-.8.3l.3 1c-.7.3-1.7 0-2.1 1 0 .2 0 .5.3.7.8-.1 1.7-.6 2.2.2v.2c-.5-.2-1.2-.2-1.8 0l.8 1.1c-.2 0-.6.1-.7-.1-.5.1-.2.7-.3 1 1.2.8 2.3-.2 3.7-.1.2.7-.8.4-1.2.7-1-.4-1.3.3-2.2.4-1.1-.8-.9-2.3-2-3.1-.3.9-1 2.6-1.9 2.7-1-1.8-.6-3.4-.7-5.4v-1.5c.6 0 1.1.1 1.3-.5-.7-1.2-1.3-2.7-1.3-4.4 1.5-.9-.1-2.7.8-3.9-.1-.4-.2-.8-.1-1.2.2-.1.4-.3.7-.5 0-1-1.3-2.7 0-3.7-.2-.9.4-.9.8-1.5l-.8-.4c.9-1.2.9-3 1.2-4.6-.5-1.2 1-1.9.4-3.4.9-.2.2-1 0-1.5.1-1.2 1.9-2.4 1.1-3.9 2.4-2.3 5.9-1.6 8.4-3.7.7.2 1.5-.1 1.5-.7l.7.6c1.1-.3 1.4-2.1 2.6-2.1 0 1.1 1.4.8 2 .7 1.1-.8-.4-1.6.8-2.4-.2-.7-1.3-.2-1.1-1.2.6-.4 1.5 0 2.1.2.2.2.2.5.4.6l-.3.8 1.7.6c-.7.1-1.4.9-2.4.7-.2 1.1-2.1 2.1-.5 2.8zm37.6-11.4c-.2-.1-.6 0-.7.2.1.1.1.3.1.6-.4-.2-.8-.1-1.1.2.7.6.8 1.5.5 2.1-.8.4-1.8-.8-2.5-.1.8.8-1 1.4.2 2.1-.6.1-1 .4-1.5 1l.6 1.1c-.2 0-.6-.1-.8.1.7.3.4.9.3 1.3-.3.5-.9.2-1.2.8 0 1 1.7.2 1.1 1.5-2.6-.6-1.3 2.6-2.3 3.7l.7.8c-1.2.7.7 1.1.3 2-1-.3-1.7.1-2.8.2.3.9-1.1 1.3-1.8 1.7-1-.9-1.5.6-2.6.2-.2.8-1.2.3-1.2 1.2l1.1.4c-1 1.7-2.9-1.3-3.5 1.1-.3 0-.8-.1-.9.2-.2.6.5.8 0 1.2-.3-.1-.7-.9-1.2-.6-.2 1.6-2.6 1.1-3.7 2.1-.3-.9-1.2-.6-1.9-.7-.9.7-2-.5-3 0-.3-.8.3-1.2.9-1.8-1.7-1.4 3.2-3.3.3-4.4-.2-.8.8-.2 1-.5.4-2 2.7-2.6 2.7-4.7.5-1 .2-2.9 1.9-2.9 1.1-1.2-.5-2.6.7-3.6-.8-1.5 1.7-1 1.2-2.4l1.2-1.3c-.2-.1-.1-.4-.1-.6.9-.4 1.9-.6 2.8-.2.2.3.2.6.4.8 1.2.1 1.2-1.7 2.8-1-.7.2-1.3.6-1.9 1 .7 1.7 2.1.4 3.5.7.6-.9 1-2.2 2.1-2.5.4.1.9.4 1.4.3 0-.7 1.7-1.1.5-1.7-.3.8-1.1.3-1.7.5-.3-.2-.3-.6-.2-.8 1.4.9 2.2-.9 3.7-.3 0 .8.9.9 1.3 1.2.7.1 1.2 0 1.7-.5-.4-.7-1.5-.3-1.6-1.5.4-.4 1.5-.4 1.8 0 .4.6.9.4 1.2 1v.8zm42.9-7.6c-1.1.9-2.7.7-3.5 1.6 0 .6.9.5.6 1.2-1.5-.3-2.4 1-3.7.6l-.7.8-.7-.7c-2.2 1-4.9 1.7-6.6 3.5-1.3-.6-2 .7-2.9 1.2v.3c-.6-.7-1.3 0-1.9 0-.3.3-.7.9-.3 1.3-.1 1-2.5.9-1.3 2.5-.2.2-.7.1-.9.1.1-.6.1-1.2.1-1.8.8.1 1.4-.2 1.8-.8.1-.3 0-.5-.2-.8-1.1.2-2 .7-3 .9.1.3.3.5.2.8-.6.3-1.2-.6-1.7.2.1.8.8 1.3 1.6 1.3.1.8-.9.2-1.4.4-.4-.4-1-.4-1.6-.7l-.1 1.1c-.9.3-.6-.7-1.1-.9-.2.6-.5 1.8-1.6 1.3-.2-.2-.2-.5-.5-.7-.4-.1-.8.3-.8.7.1.3.3.6.2.9-.7-.1-2.1-1.1-2 .4-1.1.1-2.5.3-2.6 1.5-.6.3-1.1-.1-1.7.2 1.2-.8 1.8-2.7 2.8-3.5-.8-.9-1.2.8-2.3.5.9-.8 3.5-1 2.7-2.9-1-.4.2-1.4-1-1.9 0-.4 0-.9.3-1.2h.5l-.2.9c.4.6 1.3.2 2 .3 1.2-.5-.6-1.3.5-2 .5-.1 1.3-.2 1.6-.9.1-.9-.9-1.3-.8-2.2 1.6-2.1 5.2 1.8 5.3-2.1l-.6-.4c-.8.1-.7 1.3-1.6 1-.6-1 .3-1.7 1.2-1.8 1.1-.2 2.5.1 2.6 1.3-.5 1.7-4.4 2.1-1.8 4.2 1.3.4 2-2.2 3.3-.7.7 0 1.2-.3 1.5-.9 0-.7-.8-.8-1.2-.9-.1.1-.2.2-.4.1v-.5c1 .2 1.9.6 2.9-.2l1 .5c.7-.5.4-1.3.7-2-.2-.2-.5-.3-.8-.3l-.7.9c-.7-.3-2.2.1-2.6-.9.7.2 1.6-.5 2.1-.1.3-.9 1.8-1 2.6-.9l2.1 1c-.2 0-.6.1-.7.3-.2.2.1.4.2.6.9-.6 1.4-.1 2.3-.1 1.1-.1 2.7.7 3.3-.4-.2-.6-1.4-.7-.8-1.5.7-.1 1.3 1.7 2.1.4.1-.4-.3-.6-.4-.8 1.1-.7 1.6-2.1 3.1-1.8.6 1 2 1.2 3 .9.7-1.7 2.3.2 2.9-1.2.3.1.9-.2 1 .3-.2.3.1.9-.5 1.1-.2-.1-.8-1-1.1-.2-.2.1-.5.3-.5.6 1 .5 2.1.2 3.3.3-.1 1.5-1.7 0-2.6.7z"/><path d="M86.3 113v57.2c0 20.2-15.8 28.8-31.8 28.8-12.5 0-23-4.7-28.5-14.6l15.4-8.9c2.3 4.2 5.8 7.6 13.7 7.6 8.4 0 13.6-4.3 13.6-12.9v-5.5c-4 4.9-9.8 7.8-17.6 7.8-17.1 0-29.6-14-29.6-30.6s12.5-30.6 29.6-30.6c7.8 0 13.6 2.9 17.6 7.8V113h17.6zm-17.6 28.9c0-8.3-6-14-14.6-14s-14.6 5.7-14.6 14 6 14 14.6 14 14.6-5.7 14.6-14zM157 113v60.2h-18.1v-5.7c-4 4.6-9.9 7.3-17.9 7.3-15.8 0-28.8-13.8-28.8-31.8s13-31.8 28.8-31.8c8.1 0 14 2.8 17.9 7.3V113H157zm-18.1 30.1c0-9-6-14.7-14.3-14.7s-14.3 5.7-14.3 14.7 6 14.7 14.3 14.7 14.3-5.7 14.3-14.7zm73.4 13.3v16.9h-48.2v-12l22.8-31.3h-21.6v-17h45.8v12l-22.8 31.3h24zM127 231.5c4.9 0 9.1-1.9 11.4-4.5l14.3 8.2c-5.8 8.1-14.7 12.3-26 12.3-20.4 0-33-13.7-33-31.5s12.9-31.5 31.7-31.5c17.4 0 30.3 13.5 30.3 31.5 0 2.5-.2 4.9-.7 7.2h-42.3c2.3 6.2 7.8 8.3 14.3 8.3zm11-21.7c-1.9-6.9-7.3-9.4-12.6-9.4-6.8 0-11.3 3.3-13 9.4H138zm80.8-.6v36.6h-17.9v-34c0-7.4-4.7-10.8-10.4-10.8-6.6 0-11.1 3.8-11.1 12.3v32.6h-17.9v-59.6h17.9v5.6c3.2-4.4 9.2-7.3 17.1-7.3 12.1-.1 22.3 8.5 22.3 24.6zm37.9 22.3c4.9 0 9.1-1.9 11.4-4.5l14.3 8.2c-5.8 8.1-14.7 12.3-26 12.3-20.4 0-33-13.7-33-31.5s12.9-31.5 31.7-31.5c17.4 0 30.3 13.5 30.3 31.5 0 2.5-.2 4.9-.7 7.2h-42.3c2.3 6.2 7.7 8.3 14.3 8.3zm11-21.7c-1.9-6.9-7.3-9.4-12.6-9.4-6.8 0-11.3 3.3-13 9.4h25.6zm59.4-24.8v20.3c-7.4-1.2-17.9 1.8-17.9 13.6v26.9h-17.9v-59.6h17.9v10.6c2.4-8 10.3-11.8 17.9-11.8zm65.6 1.2v56.6c0 20-15.6 28.5-31.5 28.5-12.4 0-22.8-4.7-28.3-14.4l15.3-8.8c2.3 4.2 5.7 7.5 13.6 7.5 8.3 0 13.5-4.3 13.5-12.8v-5.5c-3.9 4.9-9.7 7.8-17.4 7.8-16.9 0-29.3-13.8-29.3-30.3s12.4-30.3 29.3-30.3c7.8 0 13.5 2.9 17.4 7.8v-6.1h17.4zm-17.4 28.6c0-8.2-6-13.8-14.4-13.8-8.5 0-14.4 5.6-14.4 13.8 0 8.2 6 13.8 14.4 13.8 8.5 0 14.4-5.6 14.4-13.8zm24.5-44.6c0-5.8 4.9-10.7 10.7-10.7 5.8 0 10.7 4.9 10.7 10.7 0 5.8-4.9 10.7-10.7 10.7-5.8.1-10.7-4.8-10.7-10.7zm1.8 16h17.9v59.6h-17.9v-59.6zm55.5 45.3c4.9 0 9.1-1.9 11.4-4.5l14.3 8.2c-5.8 8.1-14.7 12.3-26 12.3-20.4 0-33-13.7-33-31.5s12.9-31.5 31.7-31.5c17.4 0 30.3 13.5 30.3 31.5 0 2.5-.2 4.9-.7 7.2h-42.3c2.2 6.2 7.7 8.3 14.3 8.3zm10.9-21.7c-1.9-6.9-7.3-9.4-12.6-9.4-6.8 0-11.3 3.3-13 9.4H468z" fill="#00af50"/></svg>