<?xml version="1.0" encoding="utf-8"?>
<!-- Generator: Adobe Illustrator 22.1.0, SVG Export Plug-In . SVG Version: 6.00 Build 0)  -->
<svg version="1.1" id="Ebene_1" xmlns="http://www.w3.org/2000/svg" xmlns:xlink="http://www.w3.org/1999/xlink" x="0px" y="0px"
	 viewBox="0 0 392.4 129.3" style="enable-background:new 0 0 392.4 129.3;" xml:space="preserve">
<style type="text/css">
	.st0{fill:#EB1A21;}
	.st1{fill:#FFFFFF;}
</style>
<path d="M153.3,15.4c-0.3-2.9-2.1-4.2-5.5-4.2c-3,0-4.8,1.3-4.8,3.4c0,1.7,1.2,2.8,3.5,3.2l5.2,0.9c5.5,0.9,8.5,3.9,8.5,8.3
	c0,5.6-4.6,9.2-11.8,9.2c-7.6,0-12-3.7-12.2-10.2h6.1c0.4,3.7,2.2,5.3,6.3,5.3c3.1,0,5.4-1.6,5.4-3.9c0-1.8-1.2-2.9-3.5-3.3
	l-4.7-0.9c-6-1.1-8.7-3.7-8.7-8.3c0-5.2,4.2-8.6,11.1-8.6c6.7,0,10.9,3.4,11.1,9.1C159.3,15.4,153.3,15.4,153.3,15.4z M177.3,6.9
	c6.3,0,9.8,2.7,9.8,7.3c0,2.5-1.2,4.4-4,5.9c3.6,1.3,5.1,3.6,5.1,7.3c0,5-4,8.2-10.2,8.2h-13.5V6.9H177.3z M176.4,18.3
	c3.1,0,4.8-1.2,4.8-3.2c0-2.3-1.6-3.4-4.9-3.4h-5.8v6.6C170.5,18.3,176.4,18.3,176.4,18.3z M176.7,30.7c3.6,0,5.3-1.3,5.3-3.8
	c0-2.7-1.7-3.9-5.6-3.9h-5.9v7.8L176.7,30.7L176.7,30.7z M205.6,6.9c6.3,0,9.8,2.7,9.8,7.3c0,2.5-1.2,4.4-4,5.9
	c3.6,1.3,5.1,3.6,5.1,7.3c0,5-4,8.2-10.2,8.2h-13.6V6.9H205.6z M204.7,18.3c3,0,4.8-1.2,4.8-3.2c0-2.3-1.6-3.4-4.9-3.4h-6v6.6
	C198.6,18.3,204.7,18.3,204.7,18.3z M205,30.7c3.6,0,5.3-1.3,5.3-3.8c0-2.7-1.7-3.9-5.6-3.9h-6v7.8L205,30.7L205,30.7z"/>
<path d="M254.2,25.4c-0.4,6.6-5.2,10.7-12.5,10.7c-8.1,0-13.4-5.9-13.4-14.9s5.5-15,13.5-15c6.9,0,11.6,3.8,12.1,9.9h-6
	c-0.7-3.3-2.7-4.9-6.1-4.9c-4.6,0-7.5,3.9-7.5,9.9s2.9,9.9,7.4,9.9c3.7,0,5.7-1.8,6.4-5.7L254.2,25.4L254.2,25.4z M264.4,12v6.7
	h12.7v5h-12.7v11.8h-6V6.9h20v5.2L264.4,12L264.4,12z M289.6,12v6.7h12.9v5h-12.9v11.8h-6V6.9h20.2v5.2L289.6,12L289.6,12z"/>
<path d="M323.5,12v6.7h12.9v5h-12.9v11.8h-6V6.9h20.2v5.2L323.5,12L323.5,12z M349,12v6.7h12.8v5H349v11.8h-6V6.9h20.1v5.2L349,12
	L349,12z M383.7,15.4c-0.3-2.9-2.1-4.2-5.5-4.2c-3,0-4.8,1.3-4.8,3.3c0,1.7,1.2,2.8,3.5,3.2l5.2,0.9c5.5,0.9,8.5,3.9,8.5,8.3
	c0,5.6-4.6,9.2-11.8,9.2c-7.7,0-12-3.7-12.2-10.2h6.1c0.4,3.7,2.2,5.3,6.3,5.3c3.1,0,5.4-1.6,5.4-3.9c0-1.8-1.2-2.9-3.5-3.3
	l-4.7-0.9c-6-1.1-8.7-3.7-8.7-8.3c0-5.2,4.2-8.6,11.1-8.6c6.7,0,10.9,3.4,11.1,9.1h-6V15.4z"/>
<rect class="st0" width="122.9" height="41"/>
<polygon class="st1" points="75.1,34.2 83.1,34.2 72.3,23.7 85.6,23.7 85.6,34.2 91.9,34.2 91.9,23.7 105.2,23.7 94.5,34.2 
	102.4,34.2 116.1,20.5 102.4,6.9 94.5,6.9 105.2,17.4 91.9,17.4 91.9,6.9 85.6,6.9 85.6,17.4 72.3,17.4 83.1,6.9 75.1,6.9 
	61.5,20.5 "/>
<g>
	<g>
		<path d="M222.4,93.3h15.5c5.1,0,8.4,3.6,8.4,7.9c0,3.4-1.4,5.9-4.5,7.2v0.1c3.1,0.8,4,3.8,4.2,6.7c0.1,1.8,0.1,5.2,1.2,6.8h-6.3
			c-0.8-1.8-0.7-4.6-1-6.9c-0.4-3-1.6-4.3-4.8-4.3h-6.3V122h-6.3V93.3H222.4z M228.7,106.2h6.9c2.8,0,4.3-1.2,4.3-4.1
			c0-2.8-1.5-4-4.3-4h-6.9V106.2z"/>
		<path d="M250.3,107.6c0.3-5.3,5.1-7,9.8-7c4.1,0,9.1,0.9,9.1,5.9v10.8c0,1.9,0.2,3.8,0.7,4.6h-5.8c-0.2-0.6-0.4-1.3-0.4-2
			c-1.8,1.9-4.5,2.6-7,2.6c-3.9,0-7.1-2-7.1-6.2c0-4.7,3.5-5.8,7.1-6.3c3.5-0.5,6.7-0.4,6.7-2.7c0-2.5-1.7-2.8-3.7-2.8
			c-2.2,0-3.6,0.9-3.8,3.1L250.3,107.6L250.3,107.6z M263.5,111.8c-1,0.8-3,0.9-4.7,1.2c-1.8,0.4-3.4,1-3.4,3.1s1.6,2.7,3.5,2.7
			c4.5,0,4.6-3.5,4.6-4.8V111.8z"/>
		<path d="M279.2,98h-5.7v-4.7h5.7V98z M273.5,101.2h5.7V122h-5.7V101.2z"/>
		<path d="M283.6,93.3h5.7V122h-5.7V93.3z"/>
	</g>
	<g>
		<path class="st0" d="M302.3,93.3h6.5l10.7,28.7H313l-2.2-6.4h-10.7l-2.3,6.4h-6.4L302.3,93.3z M301.7,110.9h7.4l-3.6-10.5h-0.1
			L301.7,110.9z"/>
	</g>
	<g>
		<path d="M343,122h-5.9l-3.7-13.9h-0.1l-3.5,13.9h-5.9l-6.6-20.8h6l3.8,14.1h0.1l3.5-14.1h5.5l3.5,14.1h0.1l3.8-14.1h5.9L343,122z"
			/>
		<path d="M350.8,107.6c0.3-5.3,5.1-7,9.8-7c4.1,0,9.1,0.9,9.1,5.9v10.8c0,1.9,0.2,3.8,0.7,4.6h-5.8c-0.2-0.6-0.4-1.3-0.4-2
			c-1.8,1.9-4.5,2.6-7,2.6c-3.9,0-7.1-2-7.1-6.2c0-4.7,3.5-5.8,7.1-6.3c3.5-0.5,6.7-0.4,6.7-2.7c0-2.5-1.7-2.8-3.7-2.8
			c-2.2,0-3.6,0.9-3.8,3.1L350.8,107.6L350.8,107.6z M364,111.8c-1,0.8-3,0.9-4.7,1.2c-1.8,0.4-3.4,1-3.4,3.1s1.6,2.7,3.5,2.7
			c4.5,0,4.6-3.5,4.6-4.8V111.8z"/>
	</g>
	<g>
		<path d="M383.8,124.6c-1.3,3.3-3.2,4.7-7.2,4.7c-1.2,0-2.3-0.1-3.5-0.2v-4.7c1.1,0.1,2.2,0.2,3.3,0.2c2-0.2,2.6-2.3,2-3.9
			l-7.3-19.5h6.1l4.7,14.2h0.1l4.5-14.2h5.9L383.8,124.6z"/>
	</g>
</g>
<g>
	<path d="M130.3,93.1c8.7,0,13.9,6.5,13.9,14.9c0,8.1-5.1,14.7-13.9,14.7c-8.7,0-13.9-6.5-13.9-14.7
		C116.4,99.6,121.6,93.1,130.3,93.1z M130.3,117.4c5.6,0,7.7-4.7,7.7-9.4c0-4.9-2.1-9.7-7.7-9.7s-7.7,4.7-7.7,9.7
		C122.6,112.7,124.7,117.4,130.3,117.4z"/>
	<path d="M149,105.3h-3.4v-3.8h3.4v-1.6c0-3.6,2.3-6.2,6.8-6.2c1,0,2,0.1,3,0.2v4.2c-0.7-0.1-1.3-0.1-2.1-0.1
		c-1.5,0-2.1,0.6-2.1,2.3v1.2h3.9v3.8h-3.9V122H149L149,105.3L149,105.3z"/>
	<path d="M161.5,105.3h-3.4v-3.8h3.4v-1.6c0-3.6,2.3-6.2,6.8-6.2c1,0,2,0.1,3,0.2v4.2c-0.7-0.1-1.3-0.1-2.1-0.1
		c-1.5,0-2.1,0.6-2.1,2.3v1.2h3.9v3.8h-3.9V122h-5.6V105.3z"/>
	<path d="M173.4,101.5h5.3v3.8h0.1c1-2.6,3.8-4.3,6.5-4.3c0.4,0,0.9,0.1,1.2,0.2v5.2c-0.5-0.1-1.3-0.2-2-0.2c-4.1,0-5.5,3-5.5,6.6
		v9.2h-5.6V101.5z"/>
	<path d="M192.7,113.1c0.2,3.6,1.9,5.2,5,5.2c2.3,0,4.1-1.4,4.4-2.6h4.9c-1.6,4.8-4.9,6.9-9.6,6.9c-6.4,0-10.4-4.4-10.4-10.8
		c0-6.1,4.2-10.8,10.4-10.8c7,0,10.3,5.8,9.9,12.1L192.7,113.1L192.7,113.1z M201.9,109.5c-0.5-2.8-1.7-4.3-4.5-4.3
		c-3.6,0-4.6,2.8-4.7,4.3H201.9z"/>
</g>
</svg>
