<svg id="Calque_1" data-name="Calque 1" xmlns="http://www.w3.org/2000/svg" viewBox="0 0 1200.98 377.52"><defs><style>.cls-1{fill:#0257a1;}.cls-2{fill:#0357a1;}.cls-3{fill:#0358a1;}.cls-4{fill:#0156a1;}.cls-5{fill:#0358a2;}</style></defs><title>logo-cm</title><path class="cls-1" d="M709.78,258.6H682.21V153.29c-13.71,35.59-27.12,70.41-40.6,105.39-8.21,0-16.37.08-24.52-.12-.87,0-2.1-1.48-2.51-2.52q-13.23-34-26.29-68.14l-12-31.09c-.32-.82-.71-1.62-1.34-3V258.52H547.17V117.44c1.06,0,2.09-.13,3.12-.13,11.35,0,22.71.08,34.06-.08,2.51,0,3.66.66,4.58,3.06q19.23,50.6,38.68,101.12c.36.94.76,1.86,1.42,3.49,1.88-4.87,3.51-9.07,5.12-13.27Q651.7,165.83,669.2,120c.72-1.9,1.51-2.81,3.8-2.78,12.19.15,24.38.07,36.78.07Z"/><path class="cls-1" d="M398.13,116.08H426.4v39.05c6.66-1.72,13-3.8,19.5-4.94a69.17,69.17,0,0,1,36.37,2.89c14.29,5.28,23.13,15.6,25.69,30.57a124.14,124.14,0,0,1-.09,42.43c-2.74,15.62-12.37,25.88-27.44,30.38a94.11,94.11,0,0,1-54,.13c-17.61-5.13-27.2-17.91-27.92-36.31-.47-11.87-.36-23.76-.39-35.64-.06-21.66,0-43.31,0-65Zm84.21,88.57h.3c0-3.71.05-7.43,0-11.14a23.83,23.83,0,0,0-16-22.65,35.57,35.57,0,0,0-16.3-1.86c-14.43,1.42-23.65,11.26-23.91,25.68-.13,7.32-.23,14.66.13,22,.52,10.56,5.84,18.14,15.84,21.64a41.89,41.89,0,0,0,14,2.15c13.72-.15,23.91-8.34,25.83-20.8C483,214.72,482.34,209.64,482.34,204.65Z"/><path class="cls-2" d="M928.42,155.63v-39.5h28.27v3.3c0,32.25.11,64.5-.05,96.76-.08,14.71-4.36,27.64-17.73,35.88a51.12,51.12,0,0,1-20.63,6.9c-14.3,1.81-28.57,2.06-42.56-2.11-18-5.36-28.48-18.11-29.5-36.73-.6-11.19-1-22.56.29-33.65,2.24-19.73,15.7-32.63,35.61-36.06a79.24,79.24,0,0,1,44.58,4.65C927.16,155.26,927.64,155.38,928.42,155.63Zm0,48.91c0-3.71.09-7.43,0-11.14-.3-9.88-4.81-17.12-13.74-21.53a33.14,33.14,0,0,0-18.27-2.93c-13.24,1.26-22.85,9.83-23.86,22.32a179.05,179.05,0,0,0,0,26.71c.68,9.69,6.1,16.58,15.18,20.18a33,33,0,0,0,25.73-.16c9.78-4.11,14.7-11.73,15-22.31C928.5,212,928.42,208.25,928.42,204.54Z"/><path class="cls-1" d="M210,159.87c-9.76,0-19.18.06-28.6-.11-.77,0-1.84-1.44-2.22-2.42-3.19-8.37-8.37-14.89-16.65-18.73-13.53-6.28-33.1-4-43.18,5.26a34.18,34.18,0,0,0-10.56,20.22c-2.66,16.11-3,32.4.21,48.39,4.42,21.85,19.74,29.73,40.57,28.07,14.63-1.17,24.73-8.52,29.79-22.5.28-.78,1.29-1.85,2-1.85,9.41-.13,18.83-.09,28.55-.09a50,50,0,0,1-19.11,30.51c-10,7.61-21.41,11.41-33.73,12.77-13.62,1.5-27.1,1-40.27-3.18-22.36-7-36.82-24.2-38.36-47.56A229,229,0,0,1,79,167.42c3.12-27,21.48-45.46,48.36-50,18.2-3.09,36.17-2.3,53.2,5.7,14.36,6.75,24.09,17.69,28.54,33.08C209.35,157.27,209.59,158.39,210,159.87Z"/><path class="cls-3" d="M1071.44,278.57a7.79,7.79,0,0,1-6.19-5.46c-2.16-6.28-4.74-12.6-5.6-19.1-2.21-16.9-3.6-33.9-5.3-50.71-4.62-1.08-10.07-1.67-15-3.62-16.59-6.56-26.45-19.57-32.59-35.76a68,68,0,0,1-4.29-24.29v-5c-11.05,2.94-13.35,2.47-17-3.68a76,76,0,0,1,5.84-5.07c7.85-5.63,15.69-11.18,23.69-16.57a21.35,21.35,0,0,1,6.13-2.53c2.4-.69,3.28.3,3,2.8-2.43,18.2-2.45,36.37,1,54.45,1.55,8.06,4,15.82,8.87,22.59,5.08,7.06,11.9,10.54,21.31,10.11V119.47c-2,1.14-3.89,2.35-5.9,3.43a52,52,0,0,1-7.09,3.52c-5.1,1.81-9,0-12.36-5.73,7.27-7.2,14.37-14.77,22.06-21.68a102,102,0,0,1,16.4-11.92c6.52-3.84,7.87-2.68,7.76,4.72-.34,21.85-.57,43.7-.87,65.55-.14,10.39-.35,20.78-.52,31.17V192c14.08-5.79,23.21-15.88,28.35-29.58,5.72-15.28,6.72-30.82,2-46.86-5.09,1.59-9.14,5.49-14.3,3.49-2.66-1-4.92-3.12-8.31-5.36,10.11-7.78,19.47-15,28.91-22.18a15.4,15.4,0,0,1,4-1.77c1.89-.71,3,0,3.53,2,5.39,20.41,7.18,41,1.33,61.56-6.33,22.31-21.15,36.7-42.86,44.16-2.41.83-3,2-3,4.26q-1,34.65-2.25,69.29C1072.13,273.38,1071.73,275.79,1071.44,278.57Z"/><path class="cls-2" d="M834.48,212.07H751a23.47,23.47,0,0,0,12.18,24.39c8.64,4.78,17.91,4.61,27.27,3.41,8-1,15.24-4.34,21.93-8.76,1.61-1.07,2.64-1.06,4.12.15,4.93,4,10,7.89,15.59,12.3-4.36,2.74-8.24,5.69-12.52,7.79-21.84,10.7-44.47,12-67.26,3.9-14.23-5-23.27-15.75-26.91-30.39a78.22,78.22,0,0,1,.44-40.58c4.62-16.35,15.3-27.11,31.53-32.06a71.17,71.17,0,0,1,43.22.16c19.36,6.2,29.82,20.13,32.78,39.84C834.28,198.64,834.11,205.24,834.48,212.07Zm-84-17h56a23.74,23.74,0,0,0-11.68-22.54c-10.8-6.16-21.87-6.13-32.57.21-8.29,4.92-11.51,12.77-11.7,22.34Z"/><path class="cls-4" d="M277.48,150.65h28.13V215c0,5.71,1.09,11.22,4.39,16,5.66,8.18,14,10.12,23.26,9.43,13.15-1,21.3-9.6,21.71-23.63.43-14.53.16-29.07.19-43.61V150.71H383.1c.06.62.18,1.22.18,1.82,0,22.07.17,44.15-.19,66.22-.18,11.87-3.31,22.91-13,31-6.55,5.47-14.4,8-22.7,9.16-13.86,1.93-27.72,2.07-41.36-1.53-16.57-4.38-26-15.6-27.89-32.7a109,109,0,0,1-.63-11.42c-.06-19.63,0-39.27,0-58.9Z"/><path class="cls-5" d="M219.18,116.08h28.27V221.22c0,1.38,0,2.76.09,4.14.49,8,4,11.68,12,12.44,2.63.26,5.29.34,7.93.4s5.25,0,8,0v20.52c-11.06-.42-22.1,1.09-33-1.74-14-3.64-21.87-13-23-27.29-.25-3.07-.36-6.15-.36-9.22V120.2Z"/><path class="cls-5" d="M1107,214.7l19.28,19.85c-6.37,6.4-12.94,13-19.43,19.49l-19.2-19.61Z"/></svg>