<?xml version="1.0" encoding="utf-8"?>
<!-- Generator: Adobe Illustrator 22.1.0, SVG Export Plug-In . SVG Version: 6.00 Build 0)  -->
<svg version="1.1" id="Ebene_1" xmlns="http://www.w3.org/2000/svg" xmlns:xlink="http://www.w3.org/1999/xlink" x="0px" y="0px"
	 viewBox="0 0 510.2 170.1" style="enable-background:new 0 0 510.2 170.1;" xml:space="preserve">
<style type="text/css">
	.st0{fill:#EB1A21;}
	.st1{fill:#FFFFFF;}
	.st2{fill:none;}
</style>
<path d="M215.8,44.3c-0.3-2.9-2.1-4.2-5.5-4.2c-3,0-4.8,1.3-4.8,3.4c0,1.7,1.2,2.8,3.5,3.2l5.2,0.9c5.5,0.9,8.5,3.9,8.5,8.3
	c0,5.6-4.6,9.2-11.8,9.2c-7.6,0-12-3.7-12.2-10.2h6.1c0.4,3.7,2.2,5.3,6.3,5.3c3.1,0,5.4-1.6,5.4-3.9c0-1.8-1.2-2.9-3.5-3.3
	l-4.7-0.9c-6-1.1-8.7-3.7-8.7-8.3c0-5.2,4.2-8.6,11.1-8.6c6.7,0,10.9,3.4,11.1,9.1H215.8z M239.8,35.8c6.3,0,9.8,2.7,9.8,7.3
	c0,2.5-1.2,4.4-4,5.9c3.6,1.3,5.1,3.6,5.1,7.3c0,5-4,8.2-10.2,8.2H227V35.8H239.8z M238.9,47.2c3.1,0,4.8-1.2,4.8-3.2
	c0-2.3-1.6-3.4-4.9-3.4H233v6.6H238.9z M239.2,59.6c3.6,0,5.3-1.3,5.3-3.8c0-2.7-1.7-3.9-5.6-3.9H233v7.8H239.2z M268.1,35.8
	c6.3,0,9.8,2.7,9.8,7.3c0,2.5-1.2,4.4-4,5.9c3.6,1.3,5.1,3.6,5.1,7.3c0,5-4,8.2-10.2,8.2h-13.6V35.8H268.1z M267.2,47.2
	c3,0,4.8-1.2,4.8-3.2c0-2.3-1.6-3.4-4.9-3.4h-6v6.6H267.2z M267.5,59.6c3.6,0,5.3-1.3,5.3-3.8c0-2.7-1.7-3.9-5.6-3.9h-6v7.8H267.5z"
	/>
<path d="M316.7,54.3c-0.4,6.6-5.2,10.7-12.5,10.7c-8.1,0-13.4-5.9-13.4-14.9c0-9,5.5-15,13.5-15c6.9,0,11.6,3.8,12.1,9.9h-6
	c-0.7-3.3-2.7-4.9-6.1-4.9c-4.6,0-7.5,3.9-7.5,9.9c0,6,2.9,9.9,7.4,9.9c3.7,0,5.7-1.8,6.4-5.7H316.7z M326.9,40.9v6.7h12.7v5h-12.7
	v11.8h-6V35.8h20v5.2H326.9z M352.1,40.9v6.7H365v5h-12.9v11.8h-6V35.8h20.2v5.2H352.1z"/>
<path d="M386,40.9v6.7h12.9v5H386v11.8h-6V35.8h20.2v5.2H386z M411.5,40.9v6.7h12.8v5h-12.8v11.8h-6V35.8h20.1v5.2H411.5z
	 M446.2,44.3c-0.3-2.9-2.1-4.2-5.5-4.2c-3,0-4.8,1.3-4.8,3.3c0,1.7,1.2,2.8,3.5,3.2l5.2,0.9c5.5,0.9,8.5,3.9,8.5,8.3
	c0,5.6-4.6,9.2-11.8,9.2c-7.7,0-12-3.7-12.2-10.2h6.1c0.4,3.7,2.2,5.3,6.3,5.3c3.1,0,5.4-1.6,5.4-3.9c0-1.8-1.2-2.9-3.5-3.3
	l-4.7-0.9c-6-1.1-8.7-3.7-8.7-8.3c0-5.2,4.2-8.6,11.1-8.6c6.7,0,10.9,3.4,11.1,9.1H446.2z"/>
<rect x="62.5" y="28.9" class="st0" width="122.9" height="41"/>
<polygon class="st1" points="137.6,63.1 145.6,63.1 134.8,52.6 148.1,52.6 148.1,63.1 154.4,63.1 154.4,52.6 167.7,52.6 157,63.1 
	164.9,63.1 178.6,49.4 164.9,35.8 157,35.8 167.7,46.3 154.4,46.3 154.4,35.8 148.1,35.8 148.1,46.3 134.8,46.3 145.6,35.8 
	137.6,35.8 124,49.4 "/>
<g>
	<g>
		<path d="M284.9,122.2h15.5c5.1,0,8.4,3.6,8.4,7.9c0,3.4-1.4,5.9-4.5,7.2v0.1c3.1,0.8,4,3.8,4.2,6.7c0.1,1.8,0.1,5.2,1.2,6.8h-6.3
			c-0.8-1.8-0.7-4.6-1-6.9c-0.4-3-1.6-4.3-4.8-4.3h-6.3v11.2h-6.3V122.2z M291.2,135.1h6.9c2.8,0,4.3-1.2,4.3-4.1c0-2.8-1.5-4-4.3-4
			h-6.9V135.1z"/>
		<path d="M312.8,136.5c0.3-5.3,5.1-7,9.8-7c4.1,0,9.1,0.9,9.1,5.9v10.8c0,1.9,0.2,3.8,0.7,4.6h-5.8c-0.2-0.6-0.4-1.3-0.4-2
			c-1.8,1.9-4.5,2.6-7,2.6c-3.9,0-7.1-2-7.1-6.2c0-4.7,3.5-5.8,7.1-6.3c3.5-0.5,6.7-0.4,6.7-2.7c0-2.5-1.7-2.8-3.7-2.8
			c-2.2,0-3.6,0.9-3.8,3.1H312.8z M326,140.7c-1,0.8-3,0.9-4.7,1.2c-1.8,0.4-3.4,1-3.4,3.1c0,2.1,1.6,2.7,3.5,2.7
			c4.5,0,4.6-3.5,4.6-4.8V140.7z"/>
		<path d="M341.7,126.9H336v-4.7h5.7V126.9z M336,130.1h5.7v20.8H336V130.1z"/>
		<path d="M346.1,122.2h5.7v28.7h-5.7V122.2z"/>
	</g>
	<g>
		<path class="st0" d="M364.8,122.2h6.5l10.7,28.7h-6.5l-2.2-6.4h-10.7l-2.3,6.4h-6.4L364.8,122.2z M364.2,139.8h7.4l-3.6-10.5h-0.1
			L364.2,139.8z"/>
	</g>
	<g>
		<path d="M405.5,150.9h-5.9l-3.7-13.9h-0.1l-3.5,13.9h-5.9l-6.6-20.8h6l3.8,14.1h0.1l3.5-14.1h5.5l3.5,14.1h0.1l3.8-14.1h5.9
			L405.5,150.9z"/>
		<path d="M413.3,136.5c0.3-5.3,5.1-7,9.8-7c4.1,0,9.1,0.9,9.1,5.9v10.8c0,1.9,0.2,3.8,0.7,4.6h-5.8c-0.2-0.6-0.4-1.3-0.4-2
			c-1.8,1.9-4.5,2.6-7,2.6c-3.9,0-7.1-2-7.1-6.2c0-4.7,3.5-5.8,7.1-6.3c3.5-0.5,6.7-0.4,6.7-2.7c0-2.5-1.7-2.8-3.7-2.8
			c-2.2,0-3.6,0.9-3.8,3.1H413.3z M426.5,140.7c-1,0.8-3,0.9-4.7,1.2c-1.8,0.4-3.4,1-3.4,3.1c0,2.1,1.6,2.7,3.5,2.7
			c4.5,0,4.6-3.5,4.6-4.8V140.7z"/>
	</g>
	<g>
		<path d="M446.3,153.5c-1.3,3.3-3.2,4.7-7.2,4.7c-1.2,0-2.3-0.1-3.5-0.2v-4.7c1.1,0.1,2.2,0.2,3.3,0.2c2-0.2,2.6-2.3,2-3.9
			l-7.3-19.5h6.1l4.7,14.2h0.1l4.5-14.2h5.9L446.3,153.5z"/>
	</g>
</g>
<g>
	<path d="M192.8,122c8.7,0,13.9,6.5,13.9,14.9c0,8.1-5.1,14.7-13.9,14.7c-8.7,0-13.9-6.5-13.9-14.7C178.9,128.5,184.1,122,192.8,122
		z M192.8,146.3c5.6,0,7.7-4.7,7.7-9.4c0-4.9-2.1-9.7-7.7-9.7s-7.7,4.7-7.7,9.7C185.1,141.6,187.2,146.3,192.8,146.3z"/>
	<path d="M211.5,134.2h-3.4v-3.8h3.4v-1.6c0-3.6,2.3-6.2,6.8-6.2c1,0,2,0.1,3,0.2v4.2c-0.7-0.1-1.3-0.1-2.1-0.1
		c-1.5,0-2.1,0.6-2.1,2.3v1.2h3.9v3.8h-3.9v16.7h-5.6V134.2z"/>
	<path d="M224,134.2h-3.4v-3.8h3.4v-1.6c0-3.6,2.3-6.2,6.8-6.2c1,0,2,0.1,3,0.2v4.2c-0.7-0.1-1.3-0.1-2.1-0.1
		c-1.5,0-2.1,0.6-2.1,2.3v1.2h3.9v3.8h-3.9v16.7H224V134.2z"/>
	<path d="M235.9,130.4h5.3v3.8h0.1c1-2.6,3.8-4.3,6.5-4.3c0.4,0,0.9,0.1,1.2,0.2v5.2c-0.5-0.1-1.3-0.2-2-0.2c-4.1,0-5.5,3-5.5,6.6
		v9.2h-5.6V130.4z"/>
	<path d="M255.2,142c0.2,3.6,1.9,5.2,5,5.2c2.3,0,4.1-1.4,4.4-2.6h4.9c-1.6,4.8-4.9,6.9-9.6,6.9c-6.4,0-10.4-4.4-10.4-10.8
		c0-6.1,4.2-10.8,10.4-10.8c7,0,10.3,5.8,9.9,12.1H255.2z M264.4,138.4c-0.5-2.8-1.7-4.3-4.5-4.3c-3.6,0-4.6,2.8-4.7,4.3H264.4z"/>
</g>
<rect x="5.7" y="-21.3" class="st2" width="504.6" height="228.2"/>
</svg>
