<?xml version="1.0" encoding="utf-8"?>
<!-- Generator: Adobe Illustrator 22.0.0, SVG Export Plug-In . SVG Version: 6.00 Build 0)  -->
<svg version="1.1" id="Calque_1" xmlns="http://www.w3.org/2000/svg" xmlns:xlink="http://www.w3.org/1999/xlink" x="0px" y="0px"
	 viewBox="0 0 314.3 425.2" style="enable-background:new 0 0 314.3 425.2;" xml:space="preserve">
<style type="text/css">
	.st0{fill:none;stroke:#5D5D5C;stroke-width:0.4454;stroke-miterlimit:10;}
	.st1{fill:#8DD8F8;stroke:#02A7E4;stroke-width:0.4454;stroke-miterlimit:10;}
	.st2{fill:#6A6A69;}
	.st3{fill:#FFFFFF;}
	.st4{fill:#C31622;}
</style>
<g id="map-border">
	<path class="st0" d="M220.4,60.3c-0.2,0.4-1,0.8-0.7,1.7s1.8,0.7,1.3,2c-0.5,1.3,5,3.2,5.1,4s2.3,0.2,2.7-1.4
		c0.5-1.6,1.5-2.4,2-2.7s1.9-0.6,1.9-0.6c-0.2-0.5-0.1-0.7-0.1-0.9c0-0.4,4.1-1.1,5.7-1.5s1.3-2.6,1.1-4.9c-0.2-2.3-1.8-3.2-3.9-2.6
		c-2.1,0.6-3.7,1.2-4.7,2.9c-1.1,1.7-2.3,1.7-3.8,2.2c-1.2,0.4-3.5,0.4-5.4,0.5C221.5,59.1,220.6,59.8,220.4,60.3z"/>
	<path class="st0" d="M206.6,80.1c0.6,0.8,1.3,1.7,2.9,0.9s2.6-0.2,4.8-0.7c2.2-0.4,3.8-0.2,3-2.4c-0.8-2.2,0-2.7,0.2-4.2
		s-1.8-2.5-2.2-2l0,0c-0.2,0.3,0,0.5-0.7,0.9c-1.1,0.6-2.5,1.8-3.5,3c-0.9,1.2-3.4-0.4-4.9-1.3s-1.8-0.2-2.7,0.8
		c-0.9,0.9,0.1,1.3,1.1,2.1c1.1,0.7,1.2,0.8,0.8,1.6c-0.1,0.1-0.1,0.3-0.2,0.5C205.4,79.2,206.1,79.4,206.6,80.1z"/>
	<path class="st0" d="M207.3,86.7c-0.6,0.7-1.7,1.6-3.4,1.4s-3.6,0.5-5.2,1.2c-0.3,0.1-0.7,0.3-1.1,0.3c0.4,0.4,0.9,0.8,1.2,1.1
		c1,1,1.9,2.3,2.2,3.9c0.2,1.5,1.9,2,4.8,1.7c-0.4-1.3,0.2-2.7,0.9-4c0.7-1.4,2.9-0.9,4.5,0.6c1.6,1.6,1.6,0.5,3.5,0
		s1.7-1.9,1.8-3.5s3.7-2.1,4.8-0.8c1,1.3,1.2,0.1,2.1-1.5c0.9-1.6,2.2-1,4-2.2c1.9-1.3,1.4-2.5,1.5-3.4c0-0.9,0.6-1.9-0.4-2.7
		c-1-0.8-0.5-1-0.2-2.9s1.2-1.3,1.7-0.8c0.5,0.6,2.3,0.7,2.7-0.4s1.8-1.9,2.1-0.9s1.4,1.7,2.7,1.9c1.4,0.2,2.2,0.9,2.4,2.4
		c0.3,1.6-1.6,2.2-2.4,3.5c-0.9,1.3-1.1,5.2-1.3,6.7c-0.1,1.5-0.9,1.9-3.7,1.6c-2.9-0.3-2.1,0.6-2.3,2.1s1.4,5.1,2.1,5.8
		c0.7,0.7,3.7,0.8,7-0.3c3.3-1.2,4.3,0.8,5,2.9s3.3,1.4,5.7,2.6s1.4-1.3,2.3-2.7s2.2-2.4,6.2-4c4-1.6,3.2-3.5,3.8-5
		c0.6-1.5,2.3-1.4,3.1-0.8c0.8,0.6,0.8,1.5,2.4,0s2.4-1.4,4.3-2.1s0.8-2.8-0.1-3.9s-1.4-2.2-0.6-3.6c0.2-0.4,0.9-1.1,1.7-2
		c-0.4,0-0.8,0.1-1.1-0.1c-0.9-0.6-1.2-1.7-1.4-3c-0.1-1.3-1.9-0.9-3.1-1.2c-1.2-0.2-2.4-1.6-2.8-2.1c-0.4-0.6-2.6-2.9-2.6-3.7
		c-0.1-0.8,0.1-1.1-1.1-1.7s-2.7-1.2-3.3-1.2c-0.6,0-0.6,0.9-1.1,2.4s-2.7,2.6-3.2,3.6c-0.4,1-0.8,0.5-1.9-0.4
		c-1.1-0.9-1.1-1.7-0.7-3.2s-1.2-1.8-2.1-3.2c-0.9-1.4-1.9-2.7-1.9-2.7h-0.2c-2.1,0.4-2.9,1.5-4.5,2.2c-2,0.8-6.1,0.4-7.7,0.1
		c-0.8-0.2-1.3-0.7-1.5-1.2l-0.1-0.4c0,0-1.3,0.3-1.9,0.6s-1.5,1.1-2,2.7s-2.6,2.1-2.7,1.4c-0.1-0.8-5.5-2.7-5.1-4s-1-1.1-1.3-2
		c-0.3-1,0.5-1.3,0.7-1.7s1-1.2,1-1.2H221c-0.5,0-1,0.1-1.3,0.1c-1.3,0.3-6.7,1.9-8.6,4.1c-1.9,2.1,1,2.4,1.9,2.6s2.3-0.1,2.7,0.8
		s0.5,1.7-1,2.3c-1.5,0.6-0.9,0.9-0.1,1.9c0.3,0.4,0.5,0.5,0.6,0.7c0,0,0.1,0.1,0.1,0.2c0.4-0.6,2.4,0.5,2.2,2s-1,2.1-0.2,4.2
		c0.8,2.2-0.8,1.9-3,2.4c-2.2,0.4-3.2-0.1-4.8,0.7s-2.3-0.1-2.9-0.9s-1.3-0.9-1.3-0.9l-0.2,0.4c-0.3,0.9-0.6,1.9-1.3,3.1l-0.2,0.3
		c0,0,1.6,0.5,2.6,1.2C207.2,85,207.9,86,207.3,86.7z"/>
	<path class="st0" d="M193.8,88.9c0.3,0.9,2.3,1.1,3.8,0.8c0.4-0.1,0.8-0.2,1.1-0.3c1.6-0.7,3.5-1.3,5.2-1.2
		c1.7,0.1,2.8-0.8,3.4-1.4c0.6-0.7-0.1-1.7-1.1-2.4c-0.9-0.7-2.6-1.2-2.6-1.2c-0.8,1.4-4.3,2.4-5.8,3.6c-1.3,1.1-2.6,1.1-4.1,0.9
		h-0.1C193.5,87.5,193.5,87.9,193.8,88.9z"/>
	<path class="st0" d="M328.9,141.9c-1.6-1-3.3-2.3-3.7-3.3c-0.3-1-3.1-8.1-3.5-9.6s-3.9-11.6-4-13.2s-4.5-2.1-5.7-2.3
		c-1.2-0.3-0.8,0.3-0.4,1.9c0.4,1.5-1.1,1.1-2.6,2c-1.4,0.9-2.5,4.5-2.8,5.9c-0.3,1.5-2.6,1.3-5,1.2c-2.4,0-1.3-1.7-0.3-2
		c1-0.4,1.4-1.4,0.1-2.4s-3.1-0.1-4.4,0.4s-3.3-0.4-3.5-1.1c-0.1-0.7-0.5-2.1-1.8-1.6s-3,0.8-3.2,0.9s-1,0.8-0.7,1.8
		s-1.4,0.9-2.7,0.9s-2.9,0.9-3.4,0.3s-1.6-4.6-1.7-5.3c-0.1-0.7-0.4-1-1.4-0.9s-0.7,0.2-2.3-0.7c-1.6-0.9-1.6,0.7-2.4,2
		c-0.9,1.3-1,4.1-1.7,4.7s-2.3,1.4-3,1s-2.2-1.2-3.1-0.7s-6,1.7-6.7,2.3c-0.3,0.3-0.6,0-0.8-0.4l0,0c0,0,0.2,2,0.5,3.2
		s2.2,4.8,3.8,6.5c1.6,1.7,0.6,3.8,0.6,5.2s-0.3,2.4,1.2,4.8c1.4,2.4-0.6,2.8-1,3.7s-0.6,5.8-0.6,7.1s-0.4,4.2,0,5.5
		c0.4,1.2,2.6,4.5,3.3,6.5c0.7,2.1,4.5,1.5,6.2,1.6s1.6,0.2,1.6,1.1c0,0.9-0.2,3.1-0.7,4.3s-2.8,6.4-3.8,8.6s-1.2,1.3-3.1,1.2
		s-2.4,1.4-2.2,3.9c0.2,2.4-0.4,3.7-1.3,5.6c-0.9,1.8-0.2,2.4,0.5,4.3c0.7,1.9-0.2,2.9,0,4.5s4.2,2.6,7.9,5.1
		c3.7,2.5,3.2,4.4,4.6,5.4c1.3,1,3.5,2,4.6,0.3s2.9-1.3,4.2-1.3c0.4,0,1.6-0.2,3.2-0.6c-1.3-0.1-0.7-1.5,0.1-2.8
		c0.9-1.6-0.3-3.3-1.6-4.5s-0.3-3.5,0.8-5.3c1.1-1.8,1.3-3.4,1.2-5.2c-0.1-1.8,1.3-2.9,2.2-4.3c0.9-1.4,2.3-0.8,3.8-0.1
		s2.1-2.1,3.5-3.5s2.9-2.3,2.7-4c-0.2-1.6-0.7-1.9,1.1-3.4c1.8-1.4,3.8-1.8,6.3-1.4c1.4,0.2,1.8-0.3,2-0.8c-0.7-0.1-1.1-0.5-1-1.1
		c0.1-1-0.3-2,2-2.7s5.3-0.9,7.1-1.6c1.7-0.7,3.7-1.3,5.3-0.6c1.6,0.7,5.3,0,6.2-0.3c1-0.3,0.7,1,2.8,1.3c2.1,0.3,5.6,0.6,7.6,0.3
		c1.6-0.2,3.5,0.5,4.5,1.4l0,0c0,0-0.9-1,0.9-3.2c1.8-2.3,1.6-2.8,0.6-4.5c-1.1-1.6-4.3-3.7-6.7-4.2c-2.3-0.5-5.8-0.2-7.1-2.2
		c-1.3-1.9,0.7-4.1,0.8-5.6c0.1-1.5,0.8-2.7,3.1-3.5c1.2-0.4,2.2-1,3.2-1.3c-0.4-0.4-0.8-0.7-1.1-0.7c-1.5-0.5-3.8,0-4.2-3.4l0,0
		C331.9,142.8,330.1,142.6,328.9,141.9z"/>
	<path class="st0" d="M323.8,205.4c-1.1-1.2-1.3-2-1-6.9s1.5-12.9,1.1-14c-0.4-1-0.3-1.1-2.1-1.3c-1.8-0.2-3-0.4-2.2-2.4
		s2.2-3.3,3-4.8c0.7-1.5,0.3-1.9-2.2-2.1c-2.4-0.1-7.1-1.1-8.8,0c-0.8,0.5-1.5,0.6-2,0.6c-0.1,0.5-0.6,1-2,0.8
		c-2.5-0.4-4.6,0-6.3,1.4c-1.8,1.4-1.3,1.8-1.1,3.4s-1.2,2.6-2.7,4c-1.4,1.4-2,4.2-3.5,3.5s-2.8-1.3-3.8,0.1
		c-0.9,1.4-2.3,2.5-2.2,4.3c0.1,1.8-0.1,3.3-1.2,5.2c-1.1,1.8-2.1,4.1-0.8,5.3s2.5,3,1.6,4.5c-0.8,1.4-1.4,2.7-0.1,2.8
		c0.2,0,0.4,0,0.7,0c2.2-0.3,4.3-0.7,5,0.8c0.7,1.6,4.6,3.7,5,3.9s2.2,0.4,4.1,0s3.6-1.2,6,0.3c2.4,1.4,2.8,0.7,3.7,0.3
		s1.8-0.8,3.2,0.2c1.4,1.1,1.3,0.7,3.3-0.2c2-0.8,6.2-2.8,8.1-3.7c0.6-0.3,1.5-0.6,2.2-1c-0.1-0.1-0.2-0.2-0.4-0.2
		C326.2,208.8,324.9,206.6,323.8,205.4z"/>
	<path class="st0" d="M339.5,169.9c-1.9,0.3-5.5,0-7.6-0.3s-1.9-1.6-2.8-1.3c-1,0.3-4.7,1-6.2,0.3c-1.6-0.7-3.6-0.1-5.3,0.6
		c-1.7,0.7-4.8,0.9-7.1,1.6c-2.3,0.7-1.9,1.6-2,2.7c-0.1,0.6,0.3,1,1,1.1c0.5,0.1,1.3-0.1,2-0.6c1.8-1.1,6.4-0.1,8.8,0
		c2.5,0.1,2.9,0.6,2.2,2.1c-0.7,1.5-2.2,2.8-3,4.8s0.4,2.2,2.2,2.4c1.8,0.2,1.7,0.3,2.1,1.3s-0.8,9.1-1.1,14c-0.3,4.9-0.1,5.7,1,6.9
		s2.5,3.3,4.6,4.8c0.1,0.1,0.2,0.1,0.4,0.2c2.4,1.4,7.7,3,7.7,3c-0.8-0.7-0.7-1.6-0.3-3.2s-1.9-1.8-4.8-3.5c-2.8-1.7-1.6-3.9-3.2-7
		s-1.8-5,0.7-5.6s5.2,2.4,8.1,3c1.3,0.3,3.6,0.2,5.7,0c-1.2-0.4-1.9-0.3-1.3-2.8c0.8-3,0.7-4.2,0.2-6.2c-0.5-1.9,1-3.3,3.5-3.6
		c2.5-0.4,5.3-1.3,5.8-4.6c0.1-0.7,0.2-1.4,0.4-2.1c-1.1-0.4-2.3-0.8-3.4-1.3c-2.7-1-2.6-3.8-3.3-4.8c-0.1-0.2-0.3-0.4-0.6-0.6
		C343,170.4,341.1,169.6,339.5,169.9z"/>
	<path class="st0" d="M132.1,137.7c0.8,1.4,1.2,3.2,3.4,2.1c2.2-1.1,2.9-0.9,3.7-3.1c0.7-2.1,2.9-2.9,4.5-1.5s2.8,1.5,3,0.9
		s1.2-2.3,2.7-3.5s3-0.9,3.8-2.8c0.8-1.8,2.3-4.6,3.3-5.6c0.9-1,1.8-1.1,3.6-0.7s6.3-0.8,7-1.4c0.6-0.6,1.1-1.5,0.6-2.4
		s-0.7-1.3,0.3-1.9s1.9-0.4,1.8-2.2c-0.1-1.8,0.1-3.6,3.1-3c3.1,0.7,4.8,1.4,8.7,1.8s7,0.6,8.8-1.7s4.6-4.7,5.8-5.7s1.7,0.7,3.2,1.3
		c1.5,0.6,7.7,2,10.1,2c2.4,0,4.6-1,6.2-1.9c1.1-0.7,3.1-0.7,4.7-0.6c0.3-0.7,0.6-1.5,1.1-2.4c0.7-1.4-0.2-1.8-1.6-2.4
		c-1.4-0.6-1.9-2.6-2.9-3.7s-5-1.2-6.9-1.4c-1.9-0.3-3.7-0.1-4.2-1.4l0,0c-2.9,0.3-4.6-0.3-4.8-1.7c-0.2-1.6-1.1-2.9-2.2-3.9
		c-0.4-0.3-0.8-0.8-1.2-1.1c-1.6,0.3-3.6,0.1-3.8-0.8c-0.3-1-0.3-1.3-0.1-1.4l0,0h-0.2c-0.2,0-0.4-0.1-0.6-0.1
		c-1.6-0.3-3.5-1.1-5.2-0.7s-5.8,1.7-7.6,3.1s-1.8-1.7-2.4-3s-4.5-2.6-6-3c-1.5-0.3,0.1-3.5,0.6-4.6c0.4-1.2,0.4-3.3,0.4-4
		c0.1-0.6-3.5-2-5.7-2.4c-2.3-0.4-4.2,0.8-5.7,1.6s-3.8-0.9-5-1.3c-1.1-0.4-2.6-1.5-4-1.3s-4.6,0.8-4.6,1.8s0.2,4.5,0.3,6.6
		s-3.7,3.9-5.2,5s-1.1,2-1.4,3.7c-0.3,1.7-1.4,2.2-3.9,4.3s-3.2,2.4-3.8,4.5s0.3,2.8,1.9,3.3c1.6,0.5,11.5-0.7,13.3-1.2
		s4.3-0.6,5.1,0s2.9,1.4,2.4,4.6c-0.4,3.1-2.6,2.4-4.5,2.7s-1.7,1.7-1.5,3.4s-4.8,2-6.4,2.5c-1.6,0.5-1.7,1-1.7,1.4
		c0.1,0.4,0.4,4.5,0.4,6.7s-2.3,3.5-2.7,3.8s-8.1,6.6-10,8.2c-1.9,1.6-2,1.4-1.3,3.3C129,136.2,131.3,136.3,132.1,137.7z"/>
	<path class="st0" d="M210,98c1.9,0.3,5.8,0.3,6.9,1.4c1,1.1,1.6,3,2.9,3.7c1.4,0.6,2.3,1,1.6,2.4c-0.5,0.9-0.8,1.7-1.1,2.4
		c-0.2,0.5-0.3,0.9-0.5,1.3c-0.4,1-0.7,2.3-3,2.7c-2.3,0.4-5.3,0.8-5.7,2.2c-0.4,1.4-1.1,2.2-2.7,3.2c-1.6,1-5.3,1.2-5.5,2.3
		c-0.3,1.2-0.3,2.3-1.9,3.2c-1.6,0.9-4.6,2.8-6.3,3.2c-1.7,0.4-3.6,0.8-2.6,2c1,1.3,0.9,2.7,2.8,3.5c1.9,0.7,4.2,2,4.7,4.2
		c0.1,0.5,0.3,0.9,0.4,1.1c0,0,2.7,0.3,4.4-1.3s1.9-1.9,4.2-2.2c2.4-0.4,2.4-0.7,3.3,0.9c1,1.6,2,3.1,1.3,3.8
		c-0.7,0.8-4.2-0.3-6.6,1.1s-4.8,3.1-3.9,4.5c1,1.4,1.6,2.7,0.8,3.1c-0.7,0.4-4.8-3.1-6.9-1.7c-2.1,1.4-0.5,1.6,0.1,3
		c0.7,1.4,1.9,4,3,3.3s4.8-2.1,5.2,0.1c0.4,2.2,0.3,3.6,1.6,2.9s3-1.8,2.9-3.1s-1.7-2.9,0.7-4s5.8-2.1,6.5-4.7
		c0.7-2.6,1.1-4.8,3.3-5.2c1-0.2,3-1.2,3.6,0.2s2.2,2.4,3.8,2.6s5.5,0.4,5.8-1.3c0.2-1.7,1.4-2.6,2.2-3.1s0.7-1.2,0.6-2.9
		c-0.1-1.7-0.5-1.6-1.7-2s-1.5-0.5-1.8-2c-0.3-1.6-0.4-2.7-1.9-3.6s-3.9-1.1-4.3-3c-0.4-1.9-0.9-4.3-0.9-5.3s2.1-1.3,3.2-1.6
		c1.1-0.4,2.6-0.9,4.3-1.6s2.6-2,4.8-0.6s2.4,1.5,4.1,3.6c1.7,2.1,4,2.1,4.3,2.1c0.4,0,1-1.3,1.7-2s1.7,0.1,1.7,1.4s1.8,2.3,2.3,2.1
		c0.5-0.2,0.5-1.5,1.5-2.2c0.7-0.4,2.3-0.3,3.5-0.2c0-0.2,0.1-0.4,0.2-0.6c0.8-1.8,2.9-4.6,3.5-5.8c0.6-1.2,2.4-3.1,4.4-3.2
		s3.2,2.2,4.6,1.1s4.4-3.1,5.8-3.1s3.5,0.3,3.3-1.9s2.3-5.8,3.1-7.2c0.7-1.4,1.3-1.8-0.1-3.5c-1.4-1.6-0.5-2-1.6-3.2s-3-0.7-4-2.3
		c-1-1.5,0-2.7,0.3-3.8s-1.4-2.7-1.7-4.4c-0.2-1-0.7-1-1.3-1c-0.8,0.9-1.5,1.6-1.7,2c-0.9,1.3-0.4,2.5,0.6,3.6
		c0.9,1.1,2.1,3.2,0.1,3.9c-1.9,0.7-2.8,0.6-4.3,2.1c-1.6,1.5-1.6,0.6-2.4,0s-2.4-0.7-3.1,0.8c-0.6,1.5,0.2,3.4-3.8,5
		s-5.3,2.7-6.2,4s0.1,3.8-2.3,2.7c-2.4-1.2-5-0.4-5.7-2.6c-0.7-2.1-1.8-4-5-2.9c-3.3,1.2-6.2,1.1-7,0.3c-0.7-0.7-2.3-4.3-2.1-5.8
		s-0.6-2.4,2.3-2.1c2.9,0.3,3.6-0.1,3.7-1.6c0.1-1.5,0.4-5.4,1.3-6.7c0.9-1.3,2.7-2,2.4-3.5s-1.1-2.2-2.4-2.4
		c-1.4-0.2-2.4-0.9-2.7-1.9s-1.6-0.2-2.1,0.9c-0.4,1.1-2.2,1-2.7,0.4s-1.4-1.2-1.7,0.8s-0.8,2.1,0.2,2.9s0.5,1.8,0.4,2.7
		c0,0.9,0.4,2.2-1.5,3.4c-1.9,1.3-3.2,0.6-4,2.2c-0.9,1.6-1.1,2.8-2.1,1.5s-4.7-0.8-4.8,0.8c-0.1,1.6,0.1,3-1.8,3.5s-1.9,1.6-3.5,0
		s-3.8-2-4.5-0.6s-1.4,2.8-0.9,4l0,0C206.3,97.8,208.1,97.7,210,98z"/>
	<path class="st0" d="M274.6,80c0.3,1.7,2,3.3,1.7,4.4s-1.3,2.3-0.3,3.8s2.9,1.1,4,2.3c1.1,1.2,0.2,1.5,1.6,3.2
		c1.4,1.6,0.8,2.1,0.1,3.5c-0.7,1.4-3.3,4.9-3.1,7.2c0.2,2.3-1.9,1.9-3.3,1.9s-4.4,1.9-5.8,3.1c-1.4,1.1-2.7-1.3-4.6-1.1
		s-3.8,2-4.4,3.2s-2.7,4-3.5,5.8c-0.1,0.2-0.1,0.4-0.2,0.6c-0.4,1.4,0.3,2,0.6,3.3c0.2,0.8,0.4,1.9,0.8,2.5c0.2,0.4,0.5,0.7,0.8,0.4
		c0.7-0.6,5.8-1.8,6.7-2.3c0.9-0.5,2.5,0.3,3.1,0.7c0.7,0.4,2.3-0.4,3-1s0.9-3.4,1.7-4.7s0.8-2.9,2.4-2s1.4,0.8,2.3,0.7
		s1.3,0.1,1.4,0.9c0.1,0.7,1.2,4.7,1.7,5.3c0.5,0.6,2.1-0.3,3.4-0.3s3,0.1,2.7-0.9s0.6-1.7,0.7-1.8c0.2-0.1,1.9-0.4,3.2-0.9
		c1.3-0.5,1.7,1,1.8,1.6c0.1,0.7,2.2,1.7,3.5,1.1s3.1-1.5,4.4-0.4c1.3,1,0.9,2.1-0.1,2.4c-1,0.4-2.1,2,0.3,2s4.7,0.3,5-1.2
		s1.4-5,2.8-5.9s2.9-0.5,2.6-2c-0.4-1.5-0.7-2.1,0.4-1.9c1.2,0.3,5.6,0.7,5.7,2.3c0.1,1.6,3.6,11.8,4,13.2c0.4,1.5,3.2,8.6,3.5,9.6
		s2.1,2.3,3.7,3.3c1.2,0.8,3,1,4.6,0.8c-0.4-3.4,0.4-5.5-0.4-8.1s-1-2.2-0.9-4.6c0.1-2.4-0.1-3.3-0.4-5.1c-0.2-1.2,0.6-2.4,1.9-3.5
		c-0.6-1-1-1.9-1.3-2.5c-0.6-1.6-2.1-5-1.8-5.8c0.3-0.8,1-0.7,2.3-1s2.2-0.7,2.9-2.2c0.7-1.4,1.6-4.6,0.1-6.6
		c-1.5-2.1-2.7-4.5-3-5.8c-0.3-1.4-2.6-1.9-2.7-3.6s-0.1-2-1.3-1.9c-1.2,0.1-3.3-0.3-1.9-1.6s2.9-2.3,2.5-4.3s-1-6.3-2.1-8
		s-1.5-3.2-1.4-4.6c0-1.5-1.2-2.6-0.6-3.5s2-0.2,2.9-1.3c0.8-1.1,4.3-5.8,4.8-6.6c0.6-0.9,1.5-2.5,1.5-2.5l1.3-1.9h-0.3
		c-1.6-0.1-3-0.3-3.3-0.7c-0.6-0.7-1.7-1.1-3.5,0.2c-1.7,1.3-6,0.2-7.8-0.4c-1.9-0.6-2.7-3.3-3.5-5c-0.8-1.6-6.1-2.5-7.3-1.2
		c-1.2,1.2-2.4,0.4-2.7-0.2c-0.3-0.6-1.3-1.5-3.1-1.3c-1.8,0.2-4.9,3.2-6.1,3.8s-2.1,2.3-4.2,2.5s-2.4,1.1-2.6,2.5s-0.4,1.4-2.1,1.8
		c-1.6,0.3-1.3,0.2-3,1s-2.9,1.5-4.3,1.2s-7.4-0.4-9.6-0.1c-2.2,0.3-3.5,0-4.3-0.9s-2.2-2.8-3.6-4.3c-1.4-1.4-4.8-0.1-7.6,0
		s-3.6,1.7-3.6,3.3c-0.1,1.7-2.2,2.4-5.4,2.6c-0.5,0-0.8,0.1-1.2,0.2c0,0,1,1.2,1.9,2.7c0.9,1.4,2.4,1.7,2.1,3.2s-0.4,2.4,0.7,3.2
		c1.1,0.9,1.5,1.3,1.9,0.4c0.4-1,2.6-2.1,3.2-3.6c0.5-1.5,0.6-2.4,1.1-2.4c0.6,0,2.1,0.6,3.3,1.2c1.2,0.6,1,0.9,1.1,1.7
		c0.1,0.8,2.2,3.1,2.6,3.7s1.6,1.9,2.8,2.1c1.2,0.2,3-0.2,3.1,1.2c0.1,1.3,0.5,2.4,1.4,3c0.3,0.2,0.7,0.2,1.1,0.1
		C273.9,79,274.4,79,274.6,80z"/>
	<path class="st0" d="M238.5,138.9c1-0.7,1-1.4,0.8-1.7c-0.1-0.3-0.1-1.1-1.1-0.8c0,0-2.2,1.1-1.7,2.3
		C236.9,139.9,237.6,139.6,238.5,138.9z"/>
	<path class="st0" d="M238.2,136.4c0,0-2.2,1.1-1.7,2.3c0.4,1.2,1.1,0.9,2,0.2c1-0.7,1-1.4,0.8-1.7
		C239.2,136.9,239.2,136.2,238.2,136.4z"/>
	<path class="st0" d="M142.5,178.5c0.8,2.8,1.7,5.6,2.2,6c0.9,0.7,2.9,0.9,2.7,2.1c-0.1,1.2-3,0.7-0.1,3c2.9,2.2,5.4,1.6,5.7,4.2
		c0.3,2.5,0.1,5.1,0.6,5.6c0.4,0.4,2.6-1.3,3.6-1.8s1.9-1.6,1.1-3.3c-0.7-1.7-0.6-2.7-0.1-3.1s3.5-0.4,3.4,0.6s1.3,1,1.7,0.4
		s0.5-1.1-0.4-2.1s-2.4-2.4-3.3-4.5c-1-2.1-3.7-5.4-4.2-8c-0.2-1-0.2-2.2,0.1-3.5c-0.2-0.2-0.3-0.5-0.5-0.9
		c-0.7-1.9-1.9-3.3-2.7-3.6c0,0-2,1.9-3.3,3C148.7,172.7,146.1,175.2,142.5,178.5z"/>
	<path class="st0" d="M166.8,184.6c0,0-1.9,0.3-2.2,1.3c-0.3,0.9,0.6,3.3,1.1,3.8s1.2-0.6,1.6-1.5
		C167.8,187.2,167.6,184.9,166.8,184.6z"/>
	<path class="st0" d="M238.2,136.4c0,0-2.2,1.1-1.7,2.3c0.4,1.2,1.1,0.9,2,0.2c1-0.7,1-1.4,0.8-1.7
		C239.2,136.9,239.2,136.2,238.2,136.4z"/>
	<path class="st0" d="M142.5,178.5c0.8,2.8,1.7,5.6,2.2,6c0.9,0.7,2.9,0.9,2.7,2.1c-0.1,1.2-3,0.7-0.1,3c2.9,2.2,5.4,1.6,5.7,4.2
		c0.3,2.5,0.1,5.1,0.6,5.6c0.4,0.4,2.6-1.3,3.6-1.8s1.9-1.6,1.1-3.3c-0.7-1.7-0.6-2.7-0.1-3.1s3.5-0.4,3.4,0.6s1.3,1,1.7,0.4
		s0.5-1.1-0.4-2.1s-2.4-2.4-3.3-4.5c-1-2.1-3.7-5.4-4.2-8c-0.2-1-0.2-2.2,0.1-3.5c-0.2-0.2-0.3-0.5-0.5-0.9
		c-0.7-1.9-1.9-3.3-2.7-3.6c0,0-2,1.9-3.3,3C148.7,172.7,146.1,175.2,142.5,178.5z"/>
	<path class="st0" d="M166.8,184.6c0,0-1.9,0.3-2.2,1.3c-0.3,0.9,0.6,3.3,1.1,3.8s1.2-0.6,1.6-1.5
		C167.8,187.2,167.6,184.9,166.8,184.6z"/>
	<path class="st0" d="M238.5,138.9c1-0.7,1-1.4,0.8-1.7c-0.1-0.3-0.1-1.1-1.1-0.8c0,0-2.2,1.1-1.7,2.3
		C236.9,139.9,237.6,139.6,238.5,138.9z"/>
	<path class="st0" d="M165.7,189.6c0.5,0.4,1.2-0.6,1.6-1.5c0.4-0.9,0.2-3.2-0.6-3.6c0,0-1.9,0.3-2.2,1.3
		C164.3,186.8,165.2,189.2,165.7,189.6z"/>
	<path class="st0" d="M144.7,184.5c0.9,0.7,2.9,0.9,2.7,2.1c-0.1,1.2-3,0.7-0.1,3c2.9,2.2,5.4,1.6,5.7,4.2c0.3,2.5,0.1,5.1,0.6,5.6
		c0.4,0.4,2.6-1.3,3.6-1.8s1.9-1.6,1.1-3.3c-0.7-1.7-0.6-2.7-0.1-3.1s3.5-0.4,3.4,0.6s1.3,1,1.7,0.4s0.5-1.1-0.4-2.1
		s-2.4-2.4-3.3-4.5c-1-2.1-3.7-5.4-4.2-8c-0.2-1-0.2-2.2,0.1-3.5c-0.2-0.2-0.3-0.5-0.5-0.9c-0.7-1.9-1.9-3.3-2.7-3.6
		c0,0-2,1.9-3.3,3c-0.4,0.4-3.1,2.9-6.6,6.2C143.3,181.3,144.2,184.1,144.7,184.5z"/>
	<path class="st0" d="M122.8,222.1c0.8-0.4,2.7-1.2,4.1-0.7s4.5,1.6,5,0.8c0.6-0.8-0.4-2.7,0.5-3.1c0.9-0.4-0.1-1.3-0.7-2.3
		c-0.6-1-1.4-3.3-2.4-2.3c-1,0.9-1.9,0.9-1.9,1.2c0,0-0.3,2.4-1.4,2.9c-1.1,0.6-2.9,0.2-3.7,1.4C121.5,221.4,122,222.6,122.8,222.1z
		"/>
	<path class="st0" d="M119.8,218.5c-0.6-0.4-1.6-0.1-2.1,0c0,0-1.4,0.1-1.7,1.6c-0.3,1.5,0.7,3.6,1.2,3.8s1.4-0.5,1.7-1
		c0.3-0.6,0.3-2.2,0.9-2.4C120.4,220,120.4,218.9,119.8,218.5z"/>
	<path class="st0" d="M44.9,308.8c-0.5-0.5-2.8-1.2-5.1-2.3c-2.3-1.2-4-2.5-4.5-2.8s-2.4-0.6-2.4-0.6l-0.3,0.6
		c-0.4,0.9-0.5,1.1-0.6,1.8c-0.6,2.1,0.3,4.8,0.1,7.8s-3.7,1.8-5.1,1.3c-1.4-0.6-2.7,1.4-4.6,2.6s-4.1,0.3-4.7,1.1
		c-0.6,0.8-3,2.8-4.4,5.2c-1.4,2.3-0.3,2.8,0.8,4.5s-0.9,2.8-2.1,4.3c-1.2,1.4-1.4,2.6-0.9,4.6c0.6,2.1,3.7,0,6.3-0.8
		s7-1.7,11.7-1.7c4.8,0,7.6-2.1,8.6-3c0.9-0.9,1.2-2.6,1.5-4.4s1.4-2.3,2.7-2.5c1.2-0.2,7.1-2.9,10.3-3.5s2.3-1.8,2.7-2.7
		c0.3-0.9,0.7-3,1.1-4.6c0.3-1.7-2.3-0.7-3.1,0.6c-0.7,1.3-1.6,0.2-2.4-0.9c-0.9-1.1-2.5-1.3-2.9-2.6c-0.2-0.5-0.3-0.5-0.1-1
		l0.1-0.4h-0.1C47,309.5,45.4,309.3,44.9,308.8z"/>
	<path class="st0" d="M180.3,262.7c-0.1-2.7-0.6-3.3-1.3-3.7c-0.3-0.2-0.6-0.4-0.7-0.6c-0.4,0.1-0.6,0.3-0.8,0.6
		c-0.8,1.6-1.9,3.8-2.7,2.1c-0.9-1.7-1.4-2.5-2.5-1.2s-4.8,2.2-5.7,4.8c-0.9,2.6-2.3,5.3-5,4.9s-5.7,0.8-6.5,1.5
		c-0.7,0.7-4,2.8-4,4.7c0,1.9-2.5,2.4-3,3c-0.5,0.5-2.4,1.8-2.2-0.7c0.2-2.4,0-6.3-1.3-9.2c-1.3-2.9-5-2.1-7.9-2.8
		c-2.8-0.7-2.9-0.2-5.3,1c-2.4,1.2-3.9,2.7-4.7-0.1c-0.7-2.7-0.3-3.6-1.6-5c-1.3-1.4-0.7-1.9,0-3s1.9-1.9,1-3.6
		c-0.9-1.8-1.4-1.9-1-3c0.4-1.2-1-0.8-1.8,0s-2.3,2.7-1.7-0.8c0.6-3.5-0.4-10.3-0.4-10.8c-0.1-0.5,0-3,3.1-4.3s3.3-0.8,3.7,0
		c0.4,0.8,3.6,1.1,3.2-2.4c-0.4-3.4-1.2-3,1-3.7s2.1-1.6,3.8-3.9c1.7-2.2,4.5-5.9,4.8-6.5s-0.1-1.1-1.3-1.4c-1.3-0.3-1.6-0.9-0.3-2
		s1.9-3.5,3.1-4.5c1.3-1,2.7-2.7,2-3.3s-2.3,0-1.2-2.2s2.7-2.3,3.6-2.6c0.8-0.3,2-0.7,0.7-2.6c-1.3-1.9-1-4.3-0.2-5.7
		s0.2-1.3-1.3-2.9c-1.5-1.6-1.9-0.7-2.7,0s-2.6-0.6-3.5-2.2c-0.9-1.6-1.3-2.2-2.1-3.7c-0.3-0.6-0.8-1.5-1.2-2.5
		c-1.5,1.3-2.9,2.7-4.4,3.9c1.5,1,3,1.9,3.8,2.8c2.4,2.6,3.6,4.9,2.5,5.3s-3.5,0.9-3,2s1.4,0.9,1.2,2.7c-0.2,1.7-0.1,5,1,5.7
		s3.1,1.1,2.1,2.6s-1.5,3.8-3.2,3.8s-2.5,1.3-4.2-0.4s-2-1.5-3.1-0.5s-2.3,1.9-3.7,0.9s-1.3-0.6-2.6-0.1s-1.2,0.2-2.8-2
		c-1.7-2.2-3.2-4.8-3.6-7.2c-0.3-1.7-0.3-5.4,0-8.2c-0.2-0.1-0.5-0.2-0.7-0.3c-1.9-0.6-1.5-3-2.1-5s-1.6-2.2-1.9-3.3
		c-0.3-1.2,0.3-1.9-0.1-3.8c-0.4-1.9-4.5,0.6-5.7,1.1s-3.6,1.8-4.7,3.9c-1,2.2-4.1,2.2-6.8,2.8c-2.7,0.7-4.2,3.3-7.5,5.4
		c-3.3,2.2-4,1.3-6.1,1.6c-2.1,0.4-2.4-1.2-2.4-1.2l-0.3,0.9c-0.4,1.3-1.2,2.5-2.2,3.9c-1.7,2.4-0.8,5.6-0.4,7.9
		c0.4,2.2-0.9,3.1-3.7,5.3c-2.8,2.3-4,5.1-4.7,6.2c-0.8,1.1-3.3,3-4.8,3.6c-1.4,0.6-4.4,2.6-6.3,3.4s-3.8,2.8-4,3.2
		s-7.8,7.9-8.4,8.6c-0.6,0.7-6.8,7-6.8,7s-2.2,2.2-3,3.1c-0.8,0.9-1.4,1.4-1,2.2s1.7,3.3,3.4,5.4s0.8,2.3,0.1,3.5
		c-0.7,1.1-5.8,7.6-7.3,9.7c-1.4,2.2-0.8,3.3-0.1,5.5c0.8,2.2-0.3,2.4-1.4,4.3s-0.1,2.5,1,3.1s3.8,2.5,6.3,4.2
		c2.4,1.7,2.2,3.4,2.2,5.5s-1.4,4.7-1.8,5.3c-0.2,0.4-1.3,2.4-2.2,4.4c0,0,1.9,0.2,2.4,0.6s2.2,1.7,4.5,2.8c2.3,1.2,4.6,1.8,5.1,2.3
		c0.4,0.4,2,0.7,2.5,0.5c0.1,0,0.1-0.1,0.1-0.1c0.4-0.9,1-1.7,1.1-2.5c0.2-1.2,0.2-1.9-2.7-3c-2.9-1-0.9-1.4,0.4-2.9
		c0.5-0.5,0.6-0.9,1-1.8l0.1-0.4c0,0-0.7-0.1-2.4-0.9c-1.7-0.9-3.2-1.1-3.5-1.7s-1.3-0.1-1-1.1s0-1.5-1.2-2s-2-0.8-1.6-1.8
		s1-2.2,2.7-0.8c1.7,1.4,4.2,2.2,5.4,2.7c0,0,2.6,0.8,2.7,1.4c0,0.6,0.4,0.6,0.4,0.6c0.4-0.8,0.5-0.9,1.1-1.4
		c1.9-1.7,3.8-2.5,6.6-4.8s11.1-5.1,12.9-5.6s12.6-3.6,13.7-3.9s7-1.8,9.6-2.3c1.3-0.3,3.1-0.5,4.9-0.6c0.1,0,0.2,0,0.2,0
		c0.1,0,0.1,0,0.2,0c0.6-0.1,1.2-0.1,1.8,0c0.9,0,1.8,0,2.5,0.1c2.6,0.3,8.5,1.3,9.9,1.9c1.3,0.6,9.2,3.1,10.7,3.2
		c0.6,0,0.9,0.2,0.9,0.4l0.2,0.3c0.5-0.1,3.1-0.6,3.9-0.4c0.9,0.2,1.4,1.6,2.5,3.6s1.9,3.6,2.7,4.5c0.8,0.8,1.5,1.3,1.2,2.8
		c-0.3,1.6-0.2,3.8,1.3,4.9s3.8,0.7,3.9,2.9c0.1,2.2,0.8,5.4,1.2,6.1s0.7,1.1,1.8,1.7s1.2,0.8,1.7,2.3s1.1,2.5,1.8,4.6
		s0.3,1.9,2.2,3.9s3.1,3.5,3.5,5.3s0.4,2.8,1.8,2.2c1.4-0.6,3.9-1.3,5.3-1.5c1.4-0.2,2.3-0.4,2.8-1.7c0.6-1.2,1.6-4.2,3.6-5.9
		c1.9-1.7,5.9-3.9,7-6.1s0.9-2.8,1.1-4.5c0.2-1.7,1.1-4,2.5-5.5c0.4-0.4,0.9-0.7,1.3-1c-0.1-0.5-0.2-1-0.2-1.4
		c0-2.9-0.9-5.7-2.1-7.6c-1.2-1.9-1.1-2.2-0.7-5c0.4-2.8,1-2.7,0.4-4.6c-0.7-1.9-1.8-3.1,0-3.1s3.7-0.9,3.6-4
		c-0.1-3.1-0.4-4.1,0.6-6.3C179.7,266.5,180.4,265.4,180.3,262.7z M122.3,220.1c0.8-1.2,2.6-0.9,3.7-1.4c1.1-0.6,1.4-2.9,1.4-2.9
		c0.1-0.3,0.9-0.3,1.9-1.2s1.9,1.3,2.4,2.3c0.6,1,1.6,1.8,0.7,2.3c-0.9,0.4,0.1,2.3-0.5,3.1s-3.6-0.3-5-0.8
		c-1.4-0.5-3.3,0.3-4.1,0.7C122,222.6,121.5,221.4,122.3,220.1z M119.8,220.3c-0.6,0.3-0.6,1.9-0.9,2.4c-0.3,0.6-1.2,1.2-1.7,1
		s-1.5-2.3-1.2-3.8s1.7-1.6,1.7-1.6c0.5-0.1,1.6-0.4,2.1,0C120.4,218.9,120.4,220,119.8,220.3z"/>
	<path class="st0" d="M48.5,294.5c0-0.6-2.7-1.4-2.7-1.4c-1.2-0.5-3.7-1.3-5.4-2.7c-1.7-1.4-2.3-0.2-2.7,0.8s0.4,1.2,1.6,1.8
		c1.2,0.5,1.5,1.1,1.2,2c-0.3,1,0.7,0.5,1,1.1s1.8,0.8,3.5,1.7c1.7,0.9,2.4,0.9,2.4,0.9c0.3-1,1-2.6,1.4-3.6
		C48.9,295.1,48.5,295.1,48.5,294.5z"/>
	<path class="st0" d="M339,257.5c-2.1-1.4-2.9-5-3.6-7.4s0.7-7.9,1.4-10.1c0.7-2.3-1.5-2.8-2.4-3.5c-0.1-0.1-0.1-0.1-0.2-0.1
		c-0.9-0.4-2.2,0.8-3.1,2.5c-0.9,1.8-1.7,7.8-2.4,11.2c-0.8,3.4-4.4,5.2-6.5,6.6s-10.1,4.8-11.2,5.1c-1.1,0.3-1.3,0.6-3.3-0.8
		c-2.1-1.4-5.7-1.8-8-1.3s-3.3-1.5-4.8-2.8c-1.6-1.3-3.1-1.6-5.3-1.3c-2.3,0.3-2.8-0.1-4.9-1.4c-2.1-1.3-2.3-0.1-3.1,0.7
		c-0.8,0.8-2,1-3.8,2.6s-0.2,3.3-0.9,4.6c-0.7,1.3-1.3,3.6-2.8,3.8c-1.5,0.2-2.2,1.2-3.1,2.3c-0.8,1.1-3.5,0.6-4.7,1.4
		s-3.2,1.2-5.3,0.9c-2.1-0.2-3.6,2.4-4.7,3.6s-2.7,2.6-4.5,3.3c-1.8,0.7-6,3.5-7.6,4.4s-3.2-0.2-5.1-0.9c-1.9-0.7-4-1.4-5.3-2.7
		c-1.3-1.3-2-0.1-2.3,0.3s-1.9,1.9-2.9,3.6c-0.9,1.7-1.9,1.8-2.8,1.2c-0.9-0.7-3,0.3-5.1,1s-3,0.9-3.6,1.8c-0.7,0.9,2.3,1.2,4,1.2
		s0.6,1.5,0.1,1.7c-0.4,0.2-6.4,1.2-7.8,1.5c-1.4,0.3-4.2-1.1-5.1-1.2c-0.9-0.1-5.6,2.1-7.3,2.6c-1.7,0.6-3,1.3-3.6,2.5
		s-4.2,1.4-5.7,2.3c-1.4,0.9-2.1,0.5-2-1.6s-0.4-2.5-3-2.1s-3.3,3.1-3.6,4.8c-0.3,1.7-2.3,2.3-3.2,2.3c-0.6,0-1.6,0.1-2.6,0.5
		c-0.4,0.2-0.9,0.5-1.3,1c-1.4,1.4-2.3,3.8-2.5,5.5s0,2.3-1.1,4.5s-5.1,4.4-7,6.1s-3,4.7-3.6,5.9c-0.6,1.2-1.4,1.5-2.8,1.7
		c-1.4,0.2-4,0.9-5.3,1.5c-1.4,0.6-1.4-0.4-1.8-2.2c-0.4-1.8-1.6-3.3-3.5-5.3c-1.9-1.9-1.5-1.8-2.2-3.9s-1.3-3.1-1.8-4.6
		s-0.6-1.7-1.7-2.3c-1.1-0.6-1.4-0.9-1.8-1.7c-0.4-0.7-1.1-3.9-1.2-6.1c-0.1-2.2-2.4-1.8-3.9-2.9s-1.6-3.3-1.3-4.9s-0.4-2-1.2-2.8
		s-1.6-2.5-2.7-4.5s-1.6-3.3-2.5-3.6c-0.8-0.2-3.5,0.3-3.9,0.4h-0.1c0.1,0.3-0.2,0.5-0.1,1.2c0.2,1.2-0.6,4.5-0.6,6s-2.6,4-3.7,4.8
		s-0.3,2.1,0.1,3.1c0.3,1.1,2.4,6.1,2.7,7.3c0.2,1.2,3.7,3.9,5.6,5c1.9,1.1,1,2.3-0.1,3.3s-2.3,5.1-4,7.5c-1.7,2.3-0.9,4.1-0.6,6.4
		s-1.1,4.1-2.2,5.2s-1.1,1.6-0.9,3.5c0.1,1.9,0.9,2.7,2.6,3.1s7.6,1.2,9.7,1.8c2.1,0.6,2.1,0.6,1.7,2.1c-0.4,1.6-1.9,6.1-2,7.7
		c-0.1,1.7-1,3.2-0.1,4.8c0.9,1.6,1.5,0.7,1.3-0.6c-0.2-1.3,0.7-0.8,1.4-0.4s3.2,0.9,4.1-0.6c0.9-1.5,1.8-1.1,2.3-0.2
		c0.5,0.8,1.4,1.7,2.6,4.6c1.2,3,1.4,2.7,2.9,3s2,0.9,2.4,1.8s1.4,3.9,1.6,5.7c0.1,1.8,1.8,3.5,3.5,4.8c1.6,1.3,1.8,2.1,1.2,4.5
		c-0.7,2.4,0.7,2.8,1.9,4.5s3.2,3.7,3.6,5.5c0.4,1.8,1.1,2.9,2.4,3.8c1.3,0.9,3.7-1.7,5.1-2.9c1.3-1.3,2.1-1.1,2.8-0.2
		s1.9,2.3,3.8,2.7c1.9,0.4,2.3-1.7,2.5-4.2s2.2-1.4,4.7-1.6s2.7-0.8,5.1-3.5c2.4-2.6,3.8-1.5,6.7-1.4s5.5,1.5,6.7,2.7
		s1.6,0.1,3.2-1.3c1.7-1.4,5-3.8,7.1-5.1c2.1-1.3,0.9-2.3,1.7-3.5s3.8-1.6,6-1.5s4-0.7,3.8-2.2c-0.1-1.4-0.1-2.1,0.9-2.7
		c0.9-0.6,4.1-0.3,5.2,1.1c1.1,1.3,2.2,1.1,3.3,1s2.4,0.2,5-0.6c2.6-0.8,3.7,0.9,5,2.7c1.3,1.7,2.1,2.4,1.8,4.5
		c-0.2,2.1,0.2,2.6,1.3,3.2s2.7-1.2,3.5-2.4s1.8-1.3,4.1,0.4c2.3,1.8,4.3,1.8,6.2,0.8s3.7,0.1,5.3,1.4c1.6,1.3,2.6-0.3,3.2-1.1
		c0.7-0.8-0.2-1.9-0.9-3.2c-0.8-1.3-0.1-2.6,0.5-4.6s1.6-3.1,3.1-4.8c1.5-1.7,5-1.5,8-1.4c3.1,0.1,3.7-0.9,4.6-1.8s3.1-2.3,3-3.7
		c-0.1-1.3,0.4-2.4,1.2-3.6c0.7-1.2,0.8-1.6,0.2-3.5s-0.4-1.7,0.2-3.1c0.6-1.3,0.6-3.7,1.7-5.1s4.5-1,7.3-1.3
		c2.9-0.3,2.6-1.4,2.7-2.7c0.2-1.3,1.8-1.8,3.8-2.4s2.4-4.3,2.4-6.4c0.1-2.1,0-3.1-0.7-4.2s-1.4-3-2-4.2s-1.3-1.9-2.5-2.3
		s-1.8-0.2-2.8-2.3c-1-2.1-0.8-1.8-2.3-2.4c-1.4-0.7-0.4-1.6,0.5-3s2.7-3.2,4.1-4.6s5-1.7,7.5-2c2.4-0.3,3.3-3.2,4.5-4.6
		s2.4-2.1,4.1-2.5c1.7-0.3,2.3-1.3,2.3-2.8s0.7-1.7,1.6-2.6s2.3-2,3.9-2.9s-0.4-3.2-1.3-4s-1.4-1.7-0.8-2.5s1.1-2,2.4-3.3
		s2.8-2,5.5-2.4c1.2-0.2,2.5-0.6,4-1.3l0.5-0.2c0,0-0.3-0.4-0.3-2s0.1-3.3,0.1-4.4c0.1-1.1-0.1-1.3,0.9-1.4c1.1-0.1,2-0.1,3.5-0.5
		s3-1.1,3.7-3c0.7-1.8,1.2-2.6,1.5-3.3c0.1-0.3,0.4-0.6,0.7-0.9C342.5,259.7,340.4,258.5,339,257.5z"/>
	<path class="st0" d="M179.6,257.3c2-0.7,3.3-3.9,4.7-4.9c1.3-1,3.5-1.5,4.2-1.6s3.5-2.8,1.7-5.2s-0.8-3.8-0.1-4.2s1.6-0.4,1.3-2.1
		c-0.2-1.7-0.3-2.7,1.8-2.2s3.6,1.9,4.2-1.6s1-5.9,0-6.7s-1.9-0.4-2-2.1c-0.1-1.6-4.5-1.7-5.5-2.4s-2.7-1.9-1.6-4
		c1.2-2.1,0.5-2.3-0.1-3.9s-0.5-3,0.7-4.3s1-4.1,1.7-5.6s3-2.7,1.5-5c-1.5-2.2-2.9-2.3-2.6-3.6s2.5-2.6,3.5,0s1.6,2.1,2.2,1.1
		c0.6-1,1.6-4.8,0.8-6.2s-3.1-3.2-6-2.4c-2.9,0.7-5.6,2.7-6.9,0.2c-1.3-2.5-2.7-2.3-4.1-2c-1.3,0.3-4.3,1.5-5.3-0.2s0.1-2.3,1.9-3
		c1.7-0.7,1.8-1.5,0.6-2.7s-0.4-2.1,0-3.6c0.4-1.6-1.3-1.1,0.2-4.4c1.5-3.3,3-2.6,1.8-4.8s-3.2-2.5-3.9-1.9c-0.7,0.7-3,3.3-5,3.6
		s-9,2.6-10.7,2.6c-1.3,0-2.1,0.1-2.8-0.8c-0.2,1.3-0.2,2.6-0.1,3.5c0.5,2.6,3.3,5.9,4.2,8c1,2.1,2.4,3.6,3.3,4.5
		c0.9,1,0.8,1.5,0.4,2.1c-0.4,0.6-1.8,0.7-1.7-0.4c0.1-1-2.9-1-3.4-0.6s-0.7,1.4,0.1,3.1c0.7,1.7-0.1,2.8-1.1,3.3s-3.1,2.2-3.6,1.8
		c-0.4-0.4-0.3-3-0.6-5.6c-0.3-2.5-2.8-1.9-5.7-4.2c-2.9-2.2-0.1-1.8,0.1-3c0.1-1.2-1.9-1.4-2.7-2.1c-0.5-0.4-1.4-3.2-2.2-6
		c-1.9,1.8-4,3.7-6.2,5.7c0.4,1,0.9,1.9,1.2,2.5c0.8,1.6,1.2,2.1,2.1,3.7c0.9,1.6,2.6,3,3.5,2.2c0.9-0.7,1.3-1.6,2.7,0
		c1.5,1.6,2.1,1.5,1.3,2.9s-1,3.9,0.2,5.7c1.3,1.9,0.1,2.3-0.7,2.6s-2.4,0.4-3.6,2.6c-1.1,2.2,0.4,1.6,1.2,2.2
		c0.7,0.6-0.7,2.3-2,3.3s-1.9,3.3-3.1,4.5s-1,1.7,0.3,2s1.6,0.9,1.3,1.4s-3,4.2-4.8,6.5c-1.7,2.2-1.6,3.1-3.8,3.9
		c-2.2,0.7-1.5,0.3-1,3.7c0.4,3.4-2.7,3.2-3.2,2.4s-0.6-1.3-3.7,0s-3.2,3.8-3.1,4.3s1,7.3,0.4,10.8s0.9,1.6,1.7,0.8
		c0.8-0.8,2.2-1.2,1.8,0c-0.4,1.2,0.1,1.3,1,3c0.9,1.8-0.3,2.5-1,3.6s-1.3,1.6,0,3s0.9,2.2,1.6,5c0.7,2.7,2.2,1.3,4.7,0.1
		c2.4-1.2,2.5-1.6,5.3-1c2.8,0.7,6.5-0.1,7.9,2.8c1.3,2.9,1.6,6.8,1.3,9.2c-0.2,2.5,1.6,1.2,2.2,0.7c0.5-0.5,3-1.1,3-3s3.3-4,4-4.7
		s3.8-1.9,6.5-1.5s4.1-2.3,5-4.9s4.6-3.5,5.7-4.8c1.1-1.3,1.6-0.6,2.5,1.2c0.9,1.7,1.9-0.4,2.7-2.1c0.1-0.3,0.4-0.5,0.8-0.6
		C178.2,258,178.4,257.7,179.6,257.3z M164.6,185.8c0.3-0.9,2.2-1.3,2.2-1.3c0.8,0.3,1,2.6,0.6,3.6c-0.4,0.9-1.1,1.9-1.6,1.5
		S164.3,186.8,164.6,185.8z"/>
	<path class="st0" d="M132.9,141.9c0.8,1.7,0.1,6-0.1,7.4c-0.3,1.4-1.1,2.3-0.6,3.3s1.3,0.4,3.1-1.6s3.8-1.8,6.3-1.9
		s3.3-0.1,3.6-0.8s2.2-1.6,3.6-1.9c1.3-0.3,4.3-1.9,4.6,0.3s-1,2.2-0.9,3.3c0.1,1.2,2.1,2.2,2.6,1.5s1.2-0.9,2.4-0.4
		c1.2,0.4,1.9,1.7,1.3,4.2s1.9,1.9,2.4,3.2s-1.4,1.5-3,2s-2.7,1.3-4.4,2.9c-1.6,1.6-1.3,6-1.3,6c0.7,0.4,1.9,1.8,2.7,3.6
		c0.2,0.4,0.3,0.7,0.5,0.9c0.6,0.9,1.4,0.8,2.8,0.8c1.7,0,8.6-2.2,10.7-2.6c2.1-0.4,4.3-3,5-3.6s2.7-0.3,3.9,1.9s-0.3,1.5-1.8,4.8
		s0.2,2.8-0.2,4.4c-0.4,1.6-1.2,2.4,0,3.6c1.2,1.2,1.1,1.9-0.6,2.7c-1.7,0.7-2.8,1.3-1.9,3s3.9,0.5,5.3,0.2c1.3-0.3,2.8-0.5,4.1,2
		s4,0.5,6.9-0.2s5.2,1,6,2.4s-0.2,5.3-0.8,6.2c-0.6,1-1.3,1.5-2.2-1.1c-1-2.6-3.2-1.2-3.5,0s1.1,1.4,2.6,3.6c1.5,2.2-0.7,3.5-1.5,5
		c-0.7,1.5-0.5,4.2-1.7,5.6c-1.2,1.3-1.3,2.7-0.7,4.3s1.3,1.8,0.1,3.9c-1.2,2.1,0.6,3.3,1.6,4s5.4,0.7,5.5,2.4c0.1,1.6,1,1.3,2,2.1
		s0.5,3.2,0,6.7s-2.1,2.1-4.2,1.6c-2.1-0.5-2,0.5-1.8,2.2s-0.7,1.7-1.3,2.1s-1.6,1.8,0.1,4.2c1.8,2.4-1,5.1-1.7,5.2
		c-0.7,0.1-2.8,0.6-4.2,1.6c-1.3,1-2.7,4.2-4.7,4.9c-1.2,0.4-1.4,0.7-1.2,1c0.1,0.2,0.4,0.4,0.7,0.6c0.7,0.4,1.1,1,1.3,3.7
		s-0.6,3.8-1.6,6s-0.7,3.2-0.6,6.3c0.1,3.1-1.8,4-3.6,4s-0.7,1.3,0,3.1c0.7,1.9,0.1,1.8-0.4,4.6c-0.4,2.8-0.5,3.2,0.7,5
		c1.2,1.9,2.1,4.7,2.1,7.6c0,0.4,0.1,0.9,0.2,1.4c1-0.5,2-0.5,2.6-0.5c0.9-0.1,2.9-0.6,3.2-2.3c0.3-1.7,1-4.4,3.6-4.8s3.1-0.1,3,2.1
		c-0.1,2.1,0.6,2.6,2,1.6c1.4-0.9,5.1-1.2,5.7-2.3c0.6-1.2,1.9-1.9,3.6-2.5c1.7-0.6,6.4-2.7,7.3-2.6c0.9,0.1,3.7,1.5,5.1,1.2
		c1.4-0.3,7.4-1.3,7.8-1.5c0.4-0.2,1.6-1.7-0.1-1.7c-1.7,0-4.7-0.3-4-1.2c0.7-0.9,1.5-1.2,3.6-1.8c2.1-0.7,4.2-1.7,5.1-1
		c0.9,0.7,1.8,0.6,2.8-1.2c0.9-1.7,2.6-3.2,2.9-3.6c0.3-0.4,0.9-1.6,2.3-0.3c1.3,1.3,3.4,2,5.3,2.7c1.9,0.7,3.5,1.9,5.1,0.9
		c1.6-0.9,5.7-3.7,7.6-4.4c1.8-0.7,3.4-2.1,4.5-3.3c1.1-1.2,2.7-3.8,4.7-3.6c2.1,0.2,4.1-0.2,5.3-0.9c1.2-0.8,3.8-0.3,4.7-1.4
		c0.8-1.1,1.6-2.1,3.1-2.3c1.5-0.2,2.1-2.5,2.8-3.8c0.7-1.3-0.9-3,0.9-4.6s3.1-1.8,3.8-2.6c0.8-0.8,1-2,3.1-0.7s2.6,1.7,4.9,1.4
		s3.8,0,5.3,1.3c1.6,1.3,2.6,3.3,4.8,2.8s5.9-0.1,8,1.3s2.3,1.1,3.3,0.8c1.1-0.3,9.1-3.7,11.2-5.1s5.7-3.2,6.5-6.6s1.5-9.4,2.4-11.2
		c0.9-1.7,2.1-2.9,3.1-2.5c-0.1-0.2-0.1-0.4-0.2-0.6c-1-2-2.2-5.6,1.5-6.2s5.1-1.6,4.3-4.5c-0.8-2.9-1.8-5.2-0.7-7.3
		c1.1-2.2,0.6-2-0.1-2.8c-0.3-0.3-0.4-0.6-0.4-0.9c-0.9-0.1-1.6-0.2-2-0.5c0,0-5.3-1.6-7.7-3c-0.8,0.4-1.6,0.7-2.2,1
		c-1.8,0.9-6.1,2.8-8.1,3.7c-2,0.8-1.9,1.2-3.3,0.2c-1.4-1.1-2.2-0.6-3.2-0.2c-0.9,0.4-1.3,1.1-3.7-0.3c-2.4-1.4-4.1-0.7-6-0.3
		s-3.7,0.2-4.1,0s-4.3-2.3-5-3.9c-0.7-1.6-2.8-1.2-5-0.8c-0.3,0-0.5,0.1-0.7,0c-1.6,0.3-2.8,0.6-3.2,0.6c-1.3,0-3.2-0.4-4.2,1.3
		c-1.1,1.7-3.2,0.7-4.6-0.3c-1.3-1-0.8-2.9-4.6-5.4c-3.7-2.5-7.7-3.5-7.9-5.1c-0.2-1.6,0.7-2.6,0-4.5s-1.4-2.4-0.5-4.3
		c0.9-1.8,1.5-3.1,1.3-5.6c-0.2-2.4,0.3-4,2.2-3.9c1.9,0.1,2.1,0.9,3.1-1.2c1-2.2,3.3-7.3,3.8-8.6c0.5-1.2,0.7-3.4,0.7-4.3
		c0-0.9,0.2-0.9-1.6-1.1c-1.7-0.1-5.5,0.4-6.2-1.6c-0.7-2.1-2.8-5.3-3.3-6.5c-0.4-1.2,0-4.1,0-5.5s0.2-6.2,0.6-7.1
		c0.4-0.9,2.4-1.3,1-3.7s-1.1-3.4-1.2-4.8s0.9-3.5-0.6-5.2c-1.6-1.7-3.5-5.2-3.8-6.5s-0.5-3.2-0.5-3.2l0,0c-0.3-0.6-0.6-1.7-0.8-2.5
		c-0.3-1.3-1-1.9-0.6-3.3c-1.3-0.1-2.9-0.3-3.5,0.2c-1,0.6-1,2-1.5,2.2s-2.4-0.9-2.3-2.1c0-1.2-1-2-1.7-1.4s-1.3,2-1.7,2
		s-2.7,0-4.3-2.1s-1.9-2.1-4.1-3.6c-2.2-1.4-3-0.2-4.8,0.6s-3.2,1.3-4.3,1.6c-1.1,0.4-3.2,0.6-3.2,1.6s0.4,3.5,0.9,5.3
		c0.4,1.9,2.9,2.1,4.3,3s1.6,2.1,1.9,3.6c0.3,1.6,0.6,1.6,1.8,2s1.6,0.3,1.7,2c0.1,1.7,0.1,2.4-0.6,2.9c-0.8,0.5-2,1.4-2.2,3.1
		c-0.2,1.7-4.1,1.5-5.8,1.3s-3.3-1.3-3.8-2.6c-0.6-1.3-2.6-0.4-3.6-0.2c-2.2,0.4-2.7,2.6-3.3,5.2c-0.7,2.6-4.1,3.6-6.5,4.7
		c-2.4,1.1-0.8,2.7-0.7,4s-1.6,2.4-2.9,3.1s-1.2-0.7-1.6-2.9c-0.4-2.2-4.2-0.8-5.2-0.1s-2.3-1.9-3-3.3c-0.7-1.4-2.2-1.6-0.1-3
		c2.1-1.4,6.2,2.2,6.9,1.7c0.7-0.4,0.1-1.7-0.8-3.1c-1-1.4,1.5-3.1,3.9-4.5s5.9-0.3,6.6-1.1c0.7-0.8-0.3-2.2-1.3-3.8s-1-1.3-3.3-0.9
		c-2.4,0.4-2.5,0.7-4.2,2.2c-1.7,1.6-4.4,1.3-4.4,1.3c-0.2-0.3-0.4-0.7-0.4-1.1c-0.4-2.2-2.8-3.4-4.7-4.2c-1.9-0.7-1.8-2.2-2.8-3.5
		s0.9-1.7,2.6-2c1.7-0.4,4.8-2.3,6.3-3.2s1.6-2,1.9-3.2c0.3-1.2,3.9-1.4,5.5-2.3c1.6-1,2.3-1.7,2.7-3.2c0.4-1.4,3.3-1.9,5.7-2.2
		c2.3-0.4,2.6-1.7,3-2.7c0.2-0.4,0.3-0.8,0.5-1.3c-1.6-0.1-3.5-0.1-4.7,0.6c-1.6,0.9-3.8,1.9-6.2,1.9s-8.6-1.4-10.1-2
		s-2-2.2-3.2-1.3s-4,3.5-5.8,5.7s-4.9,2.1-8.8,1.7c-3.9-0.4-5.6-1.1-8.7-1.8c-3.1-0.7-3.2,1.2-3.1,3c0.1,1.8-0.8,1.6-1.8,2.2
		s-0.8,1-0.3,1.9s0.1,1.8-0.6,2.4c-0.6,0.6-5.1,1.9-7,1.4c-1.8-0.4-2.7-0.3-3.6,0.7c-0.9,1-2.5,3.7-3.3,5.6
		c-0.8,1.8-2.3,1.6-3.8,2.8s-2.6,2.9-2.7,3.5c-0.2,0.6-1.4,0.4-3-0.9c-1.6-1.4-3.8-0.6-4.5,1.5s-1.5,1.9-3.7,3.1
		c-2.2,1.1-2.6-0.7-3.4-2.1c-0.8-1.4-3.1-1.5-3.1-1.5l0.2,0.5c0.3,0.7,0.3,1,0,1.6l-0.2,0.3c0,0,1.3,0.9,2,1.4
		C131.5,140.4,132.9,141.9,132.9,141.9z M238.2,136.4c1-0.3,1,0.5,1.1,0.8s0.1,1-0.8,1.7c-1,0.7-1.6,0.9-2-0.2
		C236,137.6,238.2,136.4,238.2,136.4z"/>
	<path class="st0" d="M116.3,195.6c-0.3,2.8-0.4,6.5,0,8.2c0.4,2.4,1.9,5,3.6,7.2s1.6,2.5,2.8,2c1.3-0.5,1.2-0.9,2.6,0.1
		c1.3,1,2.6,0.1,3.7-0.9c1-1,1.3-1.2,3.1,0.5c1.7,1.7,2.5,0.4,4.2,0.4s2.2-2.3,3.2-3.8s-1.1-1.9-2.1-2.6c-1.1-0.7-1.2-4-1-5.7
		s-0.7-1.6-1.2-2.7s1.9-1.6,3-2s-0.1-2.7-2.5-5.3c-0.8-0.8-2.2-1.8-3.8-2.8c-5.1,4.5-9.6,8.3-10.7,8.6
		C118.8,197.3,117.7,196.3,116.3,195.6z"/>
	<path class="st0" d="M80.7,198.2c2.1-0.4,2.7,0.5,6.1-1.6c3.3-2.2,4.8-4.8,7.5-5.4c2.7-0.7,5.8-0.7,6.8-2.8c1-2.2,3.5-3.4,4.7-3.9
		s5.3-3,5.7-1.1c0.4,1.9-0.1,2.6,0.1,3.8c0.3,1.2,1.3,1.3,1.9,3.3s0.2,4.4,2.1,5c0.2,0.1,0.5,0.2,0.7,0.3c1.5,0.7,2.6,1.6,4.9,1.1
		c1.1-0.3,5.6-4,10.7-8.6c1.4-1.3,2.9-2.6,4.4-3.9c2.2-2,4.3-4,6.2-5.7c3.5-3.3,6.2-5.8,6.6-6.2c1.3-1.2,3.3-3,3.3-3s-0.3-4.5,1.3-6
		c1.6-1.6,2.8-2.4,4.4-2.9c1.6-0.5,3.5-0.7,3-2s-2.9-0.7-2.4-3.2c0.5-2.4-0.1-3.7-1.3-4.2c-1.2-0.4-1.9-0.3-2.4,0.4
		s-2.5-0.3-2.6-1.5s1.2-1.1,0.9-3.3s-3.3-0.6-4.6-0.3s-3.3,1.1-3.6,1.9c-0.3,0.7-1,0.7-3.6,0.8s-4.5-0.1-6.3,1.9s-2.6,2.6-3.1,1.6
		s0.3-1.9,0.6-3.3c0.3-1.4,1-5.7,0.1-7.4c0,0-1.3-1.5-2-2c-0.6-0.4-2-1.4-2-1.4c-0.6,0.8-1.7,1.4-2.5,1.7c-1.4,0.6-7.7,3.6-9.2,4.7
		c-1.6,1.1-1.4,2.2-1.5,4.7s-4.7,2.8-5.4,3.6c-0.7,0.8,0.3,2.7,1.1,5.1c0.8,2.4,0.8,2.3-0.4,2.9c-1.2,0.6-3.7,1.7-5.3,2.2
		s-2.4,1.8-2.9,3.4c-0.4,1.6-1.3,1.7-1.9,2.1c-0.6,0.4-7.8,3.1-9.9,3.8c-2.1,0.8-5.7,2.5-7.5,2.2c-1.7-0.3-2.1,0.2-2.7,1
		s-3.6,3.8-4.7,5.6s0.6,2.8,1.7,4.8c1.1,2.1,0.4,5.7,0.6,8.4c0.1,1.1,0.2,1.1-0.1,2C78.3,196.9,78.6,198.5,80.7,198.2z"/>
	<path class="st0" d="M119.8,218.5c-0.6-0.4-1.6-0.1-2.1,0c0,0-1.4,0.1-1.7,1.6c-0.3,1.5,0.7,3.6,1.2,3.8s1.4-0.5,1.7-1
		c0.3-0.6,0.3-2.2,0.9-2.4C120.4,220,120.4,218.9,119.8,218.5z"/>
	<path class="st0" d="M122.8,222.1c0.8-0.4,2.7-1.2,4.1-0.7s4.5,1.6,5,0.8c0.6-0.8-0.4-2.7,0.5-3.1c0.9-0.4-0.1-1.3-0.7-2.3
		c-0.6-1-1.4-3.3-2.4-2.3c-1,0.9-1.9,0.9-1.9,1.2c0,0-0.3,2.4-1.4,2.9c-1.1,0.6-2.9,0.2-3.7,1.4C121.5,221.4,122,222.6,122.8,222.1z
		"/>
	<path class="st0" d="M223.7,59c0-0.1,0.1-0.3,0.1-0.4"/>
</g>
<g id="map-water">
	<path class="st1" d="M234,219.9c0,0-1.3-1.3-1.7-0.8c-0.3,0.5,0.9,2.3-0.4,3.2c-1.3,0.9,0.6,1.3,1.1,1.8s1.3,0.8,1.3,1.6
		c0,0.7,0.7,0.9,1.3,1.3c0.7,0.4,1.2,2.4,3,2.3c1.8-0.1,2.3,0.9,2.9,1.7c0.7,0.8,2.7,2.8,4.1,3.1c1.4,0.3,2,0.9,2.5,1.4
		c0.5,0.4,2.9,0.7,3.7,0s3.2-0.9,4.3-0.7c1.1,0.2,3-0.3,2-1.3c-1-0.9-3.2-2.9-6.3-2.1s-4.1,1.1-5.3-1.2c-1.3-2.2-3.3-3.3-4.6-3.8
		s-3.8-2.8-4.6-3.5C236.6,222.4,234,219.9,234,219.9z"/>
	<path class="st1" d="M279.5,217.9c0,0-4.1,4.4-5.7,5.4s-3.3,3.2-4.1,3.5s-2.4,1.9-2.9,2.4s-0.5,1.4,1.3,1.1
		c1.8-0.3,2.6-0.7,3.1-1.1c0.5-0.4,2.4-0.9,3.1-2c0.6-1.1,1.6-1.6,2.7-1.6c1.1,0.1,1.8-1.2,2-1.8s3.4-2.6,4.1-3s2.4-1,3-1
		s1.8-0.9,0.6-1.8S282.6,216.1,279.5,217.9z"/>
	<path class="st1" d="M307.4,194.6c0,0-1.9,0.8-1.7,1.9c0.2,1.2,0.8,1.9,1.1,2.5c0.3,0.6,1.3,0.1,1.1-1c-0.1-1.1,0.2-1.8,1-2.4
		c0.8-0.6,2.7-2.4,2.7-3.4s-0.7-0.9-1.2-0.1C310,192.9,309.3,193.9,307.4,194.6z"/>
	<path class="st1" d="M324.3,162.8c0,0,1.4,2.3,1.2,3.4c-0.2,1.1-1.3,3.1-2.2,2.2s-2.2,0-1.9,0.6c0.4,0.7,1,2.2,0.3,2.3
		s-1.2,0.5-0.4,1.1c0.9,0.6,2.3,1,2.6,1.3c0.4,0.3-0.6,1.6-1.4,1.9c-0.8,0.3-3.1,1.1-3.4,2s0,0.9,0.7,1s1.6,0.2,2-0.4
		c0.5-0.6,1.5-1.4,2.2-1.9c0.6-0.5,1.2-1.3,1.1-2.1s0-1.2,0.7-1.7s1.5-1,2.2-2.6s2.1-2.2,3.1-2.1c1,0.1,3,0.3,3.7,0.2
		s1.1,0.2,2.1,0.4s1.2,0.2,1.7,0s2.1-0.3,2.2,0.5s-0.8,1.6-2.1,1.5c-1.3-0.1-2.4,0.9-2.6,1.6c-0.1,0.7,0.7,1.9,2.6,2
		s2.8,0.5,3.6,1.3c0.8,0.8,2.9,2.1,4.3,0.8s2.7-1.5,4-1.6c1.3,0,2.3,0.2,3.1-1.3s1.7-2.1,2.8-1.9c1.1,0.1,1.8,0.6,1.6,1.7
		c-0.2,1.2,0.2,2.2,0.3,2.9c0.1,0.8-0.5,2.7-0.9,3.4s-1,2.9,0,3.8c1,0.9,1.5,1.9,0.9,3.2s0.2,2.3,0.7,2.8c0.4,0.4,1.3,0.3,1.7-0.3
		c0.4-0.7,1.7-1.7,1-3.5s-1.5-3-1.9-3.6s-0.7-1.9,0.1-2.3c0.8-0.4,2-1.3,1.4-3.2c-0.7-1.9-0.9-2.5-1-3.5c-0.2-1-0.4-2.1-1.2-3
		s-3.2-1.9-4-0.7c-0.9,1.3-4,3.3-5.2,2s-2.2-1.4-3-0.7c-0.8,0.8-3,0-3.6-0.9c-0.6-0.8-0.1-0.8,0.5-1.1s0.9-1.2,0-1.8
		s-1.6-0.9-1.9-1.6c-0.3-0.8-1.9,0.1-2.4-0.9c-0.6-1-1.9-1.5-3.4-0.9s-3.6,0.3-3.7-0.4s0.9-1.6,1.9-2s2.5-2,2.9-3.5
		c0.4-1.4,0.2-2.1,0.3-2.7c0-0.6-0.6-1.3-1.3,0c-0.7,1.3-2.3,2.3-2.8,2.6c-0.6,0.2-1.7,1.5-2,2.3s-2.5,3.6-3.8,2.9
		c-1.3-0.7-2.3-1.7-2.6-2.5c-0.3-0.8-2.5-0.5-2.7-1c-0.3-0.6-1.5-0.1-0.3,0.8C323.2,160.5,324.1,162.3,324.3,162.8z"/>
	<path class="st1" d="M313.4,127.6c0,0-1.1-1.3-1.6-0.6c-0.6,0.8,0,2,0.8,3.5c0.8,1.4,2.3,4.3,3,4c0.8-0.4,0.3-1.7-0.3-3.1
		S313.4,127.6,313.4,127.6z"/>
	<path class="st1" d="M307.2,108.1c0,0-1.1-1.4-1.6-0.6s0.3,2,0.3,3s-0.1,2.8,0.6,4s1.5,2.6,1.5,4s0.4,2.6,1.1,2.3
		c0.6-0.3-0.2-1,0-1.9s1.1-2.7,0.2-4.5s-1.6-3-1.2-4.1S307.2,108.1,307.2,108.1z"/>
	<path class="st1" d="M298.1,136.1c0,0-1.4-1.6-2.2-0.5c-0.8,1.1-1.3,2.9-0.4,4.2c0.8,1.3,3.3,4.1,4,4.5c0.6,0.4,2.9,1.8,3.5,2.1
		s1.1-0.2,1.1-0.7c0-0.6-0.8-0.9,0-1.2s1.4-0.9-0.3-2.1c-1.8-1.2-3.4-3.6-3.8-4.1S298.1,136.1,298.1,136.1z"/>
	<path class="st1" d="M46.2,292.7c0,0-2.2,1.7-2.7,4.5s-1,4.7-2.7,5.9c-1.8,1.2-3,2.7-2.3,5.6s-0.8,4.2-2,5.4
		c-1.2,1.3-0.8,6-0.5,7.2s0.4,4.4,1.2,2.7c0.8-1.6,1-3,2.2-3.9s2.7-2.8,2.4-4s0.5-4.1,1.6-5.3c1-1.2,3.4-2.7,4.1-4.6
		c0.7-1.9,2.2-3.2,2.3-4.7s1.8-3.6,2.4-4.5c0.6-1,0.9-2.5,4.2-4.3s6.1-1.9,6.8,1.1s4.2,4.2,5.2,2.5s1.8-2.5,3.5-2.4s5.9-2.3,6.6-2.8
		s2.6-0.5,2.4-2.5s0.5-2.8,2.2-3.2c1.6-0.4,2.6-0.4,3.4,0.7s2.5,0.9,3.8,0.4s6.9-1.6,8.2-2.2c1.3-0.5,3-0.1,3.8,0.4
		c0.8,0.6,4.3,0.7,5.3,0.4c1-0.2,5.5-0.3,7.6,0.7s7.7,3.3,9.4,3.1c1.7-0.1,5.3,0.7,5.6-0.2c0.4-0.9,1.4-1.1,2.7-1s4.5,0.6,5.4-0.7
		c1-1.3,1.6-3.7-0.4-5.3c-2-1.6-1.9-1.9-3-2.2c-1-0.4-1.9-1.4-3.2-1.5s-2.5-1.3-3.2-2.2c-0.7-0.8-2.4-2.3-5.8-2.8
		c-3.3-0.5-4.2-0.1-5.5-1.6s-2.3-2.9-4.2-1.6c-1.9,1.3-3.1-1.7-3.3-2.2c-0.1-0.4-4.1-0.8-6-1.5s-2.1-0.6-2.9,0s-1.6,0.5-1.9-0.5
		c-0.3-0.9-2-0.8-2.5-0.9s-3.3-1.3-3.9-0.6c-0.6,0.7-4.2,1.9-5.9,0.7c-1.6-1.2-2.1-1-2.9-0.2s-2.6,2.4-2.7,3.3s-2.6-0.4-3,1.5
		s-2.4,3-4.1,3.3s-2.7,0.1-3.4,1c-0.7,0.9-1.7,0.7-2.7,0.1s-5.1,0.7-6.8,1c-1.6,0.4-2.4,0.7-1.6,1.4c0.7,0.7,0.2,1.5-0.6,1.6
		s-1.3,0.3-1.8,1.6c-0.5,1.3-2.4,0.5-2.2,2.5c0.1,1.9-1.3,2.7-1.9,3.8c-0.6,1.1-0.4,1.6-1.4,1.4c-1-0.1-2.3,0.8-2.8,1.9
		C48.1,290.2,46.2,292.7,46.2,292.7z"/>
	<path class="st1" d="M59.3,234.1c0,0-1.3,1.9-3.2,2.7c-1.8,0.8-5.2,4.7-6,5.2c-0.7,0.4-2.3,2.4-1.9,2.8c0.4,0.4,1.8-0.9,2.7-1.8
		c0.8-0.8,3.8-3,4.7-3.5c0.8-0.5,2.7-2.1,3.3-3C59.6,235.7,61.3,233.5,59.3,234.1z"/>
	<path class="st1" d="M110.1,201.1c0,0-4.5,3.5-6,4.2s-2.8,0.7-2.9,2.1c-0.1,1.4-0.4,4.2,0.8,3.6c1.3-0.5,4.6-1.9,5.8-2.6
		c1.2-0.7,5.4-2.6,6-2s3.3,1.8,4.2,0.8c0.9-0.9,1.7-2.1,2.2-3.1s1.3-2.8,3.7-3.7c2.4-0.8,5.4-2.9,6.5-4.7s5.4-5.7,6.1-6.5
		c0.7-0.8,1.7-1,2-0.6s1.3-0.3,1.3-1.3c0-1.1,1.6-2,2.8-3s4.5-4.3,6.3-5.4c1.8-1.1,5-3.3,5-6c0.1-2.7-1.5-4-3.3-3.8
		s-1.9-0.1-2.6-0.7c-0.7-0.6-2.7-2-4.2,0.3c-1.6,2.3-3.5,4.1-6.1,4.2s-5.1,2.2-5.4,3c-0.3,0.8,0.6,2.1-0.8,3.5
		c-1.4,1.4-3.1,1.8-3.3,3.1s-1.8,1.8-2.6,1.7s-2.5,2.4-3.8,3.7s-1.8,2.3-2.8,2.7c-1.1,0.3-1.8,0.3-2.1,2.3c-0.3,1.9,0.5,1.6-1.4,3.3
		c-1.9,1.8-2.2,2.7-2.7,2.7C112.2,199,110.1,201.1,110.1,201.1z"/>
	<path class="st1" d="M164.4,178.5c0,0-2.7,1.9-4.3,2s-1.9,0.1-3.1,1.7c-1.2,1.6-4,1.5-3.8,3.2s2.8,3.1,4.7,2s2.1-2.4,3.1-2.7
		s2.6-2.1,3.7-3c1.2-0.9,1.8-1.7,1.5-2.4S165.8,177.6,164.4,178.5z"/>
	<path class="st1" d="M188.2,175.9c0,0-2.8-1.4-3.1-0.7s0.2,1.8,1.5,2.2c1.4,0.4,3.1,0.7,4.2,0.5c1.1-0.2,3.9,0.1,4.9,0.3
		c1,0.1,4.1,0.6,5.2-0.5c1.1-1.1,1.4-1.8,0-1.6s-2.7,1-3.5,0.6s-3.2,0.9-4.3,0s-2.7-0.5-3.2-0.5
		C189.4,176.3,188.2,175.9,188.2,175.9z"/>
	<path class="st1" d="M177,144.8c0,0-3.7,3.1-4.3,4s-2.1,2.8-3.2,3.1s-2.2,1.9-3.6,2.4c-1.3,0.5-3.4,1.3-4.2,2.6s-0.7,1.6-2.2,2.2
		c-1.4,0.6-1.7,2.2,0,2.1c1.7-0.1,4-1.9,5.1-2.9s1.2-2.2,1.9-2.6s1.9,0.1,0.9,1.2c-1,1.1-2.8,3.7-4.6,4.3s-0.8,2.8,0.9,1.8
		s1.8-1.3,3.1-1.7c1.2-0.4,3.3-0.6,3.8-1.8c0.5-1.3,0.3-1.9,1.6-2.3c1.2-0.4,1.8-2.3,2.1-3.1s0.6-3.2,2.2-4.2
		c1.6-1.1,2.6-3.5,2.4-4.1C178.8,144.9,178.7,143.8,177,144.8z"/>
	<path class="st1" d="M173.3,192.8c0,0-1.1,2.3-2.1,3.2c-1,0.8-0.9,2-1.9,2.6c-1.1,0.6-2.8,0.4-2.6,1.7s0.5,2.3,1.2,1.8
		c0.7-0.4-0.1-1.6,0.4-1.9c0.6-0.4,1.8-0.6,2.6-1.6c0.8-0.9,0.9-2.4,1.8-3c0.9-0.6,1.2-2.1,1.2-2.7S173.8,191.8,173.3,192.8z"/>
	<path class="st1" d="M162.8,224.1c0,0-2.2,0.6-1.8,3.5c0.3,2.8,1.8,2.9,0,4.6c-1.9,1.6-2,2.8-1.1,2.8c0.9,0.1,0.8,1.7,0.7,2.8
		s-0.3,7.2,0.8,8.1c1.1,0.9,1.7,0.4,1.5-0.6c-0.2-0.9-0.7-4.9-0.6-7c0.1-2.1-1-2.3-0.2-4.3s0.8-1.9,1.4-2.1c0.7-0.1,0.8-0.7,0-1.3
		s-1.5-1.6-0.8-2.7C163.3,226.9,164.6,223.9,162.8,224.1z"/>
</g>
<g id="map-chasseral-txt">
	<g>
		<path class="st2" d="M130.3,169.1c0,1.3-1.4,2.4-3.1,2.4H46.9c-1.7,0-3.1-1.1-3.1-2.4v-39.4c0-1.3,1.4-2.4,3.1-2.4h80.3
			c1.7,0,3.1,1.1,3.1,2.4V169.1z"/>
		<polygon class="st2" points="130.3,140.7 130.3,133.7 136.4,137.2 142.4,140.7 136.4,144.2 130.3,147.7 		"/>
		<g>
			<path class="st3" d="M48.5,146.3v-13.9h2.1v11.9H55v2H48.5L48.5,146.3z"/>
			<path class="st3" d="M62.1,142.7h-4.6c0.1,1.3,0.7,2.2,2.1,2.2c0.6,0,1.2-0.2,1.9-0.4l0.3,1.5c-0.9,0.3-1.6,0.5-2.4,0.5
				c-2.5,0-3.8-1.7-3.8-4.4c0-2.4,1.2-4.4,3.5-4.4c2,0,3.1,1.8,3.1,4.1C62.1,142,62.1,142.4,62.1,142.7z M60.4,141.5
				c0-1.3-0.5-2.2-1.4-2.2c-0.8,0-1.4,0.8-1.5,2.2H60.4z"/>
			<path class="st3" d="M71.9,146.5c-3.2,0-5.6-2.7-5.6-7.1c0-4.2,2.3-7.2,5.6-7.2c1.2,0,2.3,0.4,3.2,1l-0.8,1.8
				c-0.7-0.5-1.6-0.8-2.4-0.8c-2,0-3.4,2-3.4,5.1c0,3.3,1.4,5.2,3.5,5.2c0.8,0,1.7-0.3,2.4-0.8l0.7,1.8
				C74.2,146.2,73.1,146.5,71.9,146.5z"/>
			<path class="st3" d="M80.7,146.3v-5.8c0-0.8-0.3-1.1-1-1.1c-0.6,0-1.2,0.4-1.6,0.9v6h-2v-13.9h2v6.7c0.7-0.9,1.5-1.4,2.5-1.4
				c1.4,0,2.1,1,2.1,2.4v6.2L80.7,146.3L80.7,146.3z"/>
			<path class="st3" d="M88,146.3v-0.8c-0.5,0.6-1.2,1-2,1c-1.3,0-2.3-1-2.3-2.7c0-1.5,1-2.7,2.5-2.7c0.8,0,1.3,0.2,1.8,0.5v-0.8
				c0-1-0.5-1.4-1.5-1.4c-0.6,0-1.2,0.1-1.8,0.3l-0.2-1.6c0.7-0.2,1.6-0.4,2.3-0.4c2.1,0,3.1,0.9,3.1,3.1v5.6H88V146.3z M88,142.8
				c-0.4-0.3-0.7-0.4-1.2-0.4c-0.7,0-1.2,0.4-1.2,1.4c0,0.9,0.5,1.4,1.2,1.4c0.6,0,0.9-0.3,1.2-0.6V142.8z"/>
			<path class="st3" d="M93.5,146.5c-1,0-1.9-0.3-2.8-0.9l0.7-1.5c0.7,0.5,1.4,0.8,2,0.8s1-0.3,1-0.9c0-1.3-3.3-1.4-3.3-3.8
				c0-1.4,1.1-2.5,2.7-2.5c0.9,0,1.7,0.3,2.4,0.7l-0.7,1.5c-0.6-0.4-1.1-0.6-1.7-0.6s-0.9,0.3-0.9,0.8c0,1.2,3.4,1.3,3.4,3.8
				C96.2,145.3,95.1,146.5,93.5,146.5z"/>
			<path class="st3" d="M99.5,146.5c-1,0-1.9-0.3-2.8-0.9l0.7-1.5c0.7,0.5,1.4,0.8,2,0.8s1-0.3,1-0.9c0-1.3-3.3-1.4-3.3-3.8
				c0-1.4,1.1-2.5,2.7-2.5c0.9,0,1.7,0.3,2.4,0.7l-0.7,1.5c-0.6-0.4-1.1-0.6-1.7-0.6s-0.9,0.3-0.9,0.8c0,1.2,3.4,1.3,3.4,3.8
				C102.2,145.3,101.1,146.5,99.5,146.5z"/>
			<path class="st3" d="M109.5,142.7h-4.6c0.1,1.3,0.7,2.2,2.1,2.2c0.6,0,1.2-0.2,1.9-0.4l0.3,1.5c-0.9,0.3-1.6,0.5-2.4,0.5
				c-2.5,0-3.8-1.7-3.8-4.4c0-2.4,1.2-4.4,3.5-4.4c2,0,3.1,1.8,3.1,4.1C109.5,142,109.5,142.4,109.5,142.7z M107.8,141.5
				c0-1.3-0.5-2.2-1.4-2.2c-0.8,0-1.4,0.8-1.5,2.2H107.8z"/>
			<path class="st3" d="M112.7,140.5v5.8h-2v-8.5h1.9v1.4c0.6-0.9,1.3-1.6,2.4-1.6v2.1C113.9,139.7,113.1,139.8,112.7,140.5z"/>
			<path class="st3" d="M119.6,146.3v-0.8c-0.5,0.6-1.2,1-2,1c-1.3,0-2.3-1-2.3-2.7c0-1.5,1-2.7,2.5-2.7c0.8,0,1.3,0.2,1.8,0.5v-0.8
				c0-1-0.5-1.4-1.5-1.4c-0.6,0-1.2,0.1-1.8,0.3l-0.2-1.6c0.7-0.2,1.6-0.4,2.3-0.4c2.1,0,3.1,0.9,3.1,3.1v5.6h-1.9V146.3z
				 M119.5,142.8c-0.4-0.3-0.7-0.4-1.2-0.4c-0.7,0-1.2,0.4-1.2,1.4c0,0.9,0.5,1.4,1.2,1.4c0.6,0,0.9-0.3,1.2-0.6V142.8z"/>
			<path class="st3" d="M122.9,146.3v-13.9h2v13.9H122.9L122.9,146.3z"/>
			<path class="st3" d="M63.6,169.9c-2.8-2.6-4-6-4-9.2c0-3.3,1.2-6.7,4-9.2l0.8,0.8c-2.4,2.1-3.5,5.3-3.5,8.4
				c0,3.1,1.1,6.3,3.5,8.4L63.6,169.9z"/>
			<path class="st3" d="M66.5,165.5v-10.8l-1.6,0.7l-0.4-1.3l3-1.3h0.3v12.6h-1.3V165.5z"/>
			<path class="st3" d="M73.4,165.7c-2,0-3.3-1.7-3.3-4.4c0-3,1.4-6.2,4.9-8.5l0.7,0.9c-2.1,1.5-3.3,3.2-4,5c0.5-0.8,1.2-1.1,2-1.1
				c1.8,0,2.8,1.8,2.8,3.9C76.7,163.6,75.5,165.7,73.4,165.7z M73.5,158.7c-1.3,0-2,1.2-2,3c0,1.4,0.7,2.8,1.9,2.8
				c1.2,0,1.9-1.4,1.9-2.9C75.3,160,74.7,158.7,73.5,158.7z"/>
			<path class="st3" d="M81.5,165.7c-2.5,0-3.6-2.9-3.6-6.4s1.2-6.4,3.7-6.4s3.6,3,3.6,6.4C85.1,162.8,84,165.7,81.5,165.7z
				 M81.5,154.1c-1.5,0-2.2,2.3-2.2,5.2s0.7,5.2,2.2,5.2s2.2-2.3,2.2-5.2C83.7,156.4,83,154.1,81.5,154.1z"/>
			<path class="st3" d="M89.9,165.7c-2.5,0-3.6-2.9-3.6-6.4s1.2-6.4,3.7-6.4s3.6,3,3.6,6.4C93.6,162.8,92.4,165.7,89.9,165.7z
				 M90,154.1c-1.5,0-2.2,2.3-2.2,5.2s0.7,5.2,2.2,5.2s2.2-2.3,2.2-5.2C92.1,156.4,91.5,154.1,90,154.1z"/>
			<path class="st3" d="M106.9,165.5v-5.9c0-0.9-0.3-1.3-1.1-1.3c-0.7,0-1.4,0.5-1.9,1.2v6h-1.4v-5.9c0-0.9-0.3-1.3-1.1-1.3
				c-0.8,0-1.4,0.5-1.9,1.2v6h-1.4v-8.2h1.3v1.2c0.6-0.8,1.5-1.4,2.5-1.4c1.1,0,1.6,0.6,1.8,1.5c0.6-0.9,1.6-1.5,2.6-1.5
				c1.4,0,2,1,2,2.4v6H106.9L106.9,165.5z"/>
			<path class="st3" d="M109.5,169.9l-0.8-0.9c2.4-2.1,3.5-5.3,3.5-8.4c0-3.1-1.1-6.3-3.5-8.4l0.8-0.8c2.8,2.6,4,6,4,9.2
				C113.5,163.9,112.3,167.3,109.5,169.9z"/>
		</g>
	</g>
</g>
<g id="map-chasseral-dot">
	<g>
		<path class="st4" d="M158.3,148.4c-4.1,0-7.5-3.4-7.5-7.5s3.4-7.5,7.5-7.5c4.2,0,7.5,3.4,7.5,7.5
			C165.8,145.1,162.5,148.4,158.3,148.4z"/>
		<path class="st3" d="M158.3,133.9c3.9,0,7,3.2,7,7c0,3.9-3.2,7-7,7c-3.9,0-7-3.2-7-7C151.3,137,154.4,133.9,158.3,133.9
			 M158.3,132.9c-4.4,0-8,3.6-8,8s3.6,8,8,8s8-3.6,8-8S162.7,132.9,158.3,132.9L158.3,132.9z"/>
	</g>
</g>
<g id="map-nendaz-txt">
	<g>
		<path class="st2" d="M274.5,410.1c0,1.3-2.1,2.4-4.7,2.4h-122c-2.6,0-4.7-1.1-4.7-2.4v-39.4c0-1.3,2.1-2.4,4.7-2.4h122
			c2.6,0,4.7,1.1,4.7,2.4V410.1z"/>
		<polygon class="st2" points="185.1,368.3 178.1,368.3 181.6,362.2 185.1,356.2 188.6,362.2 192.1,368.3 		"/>
		<g>
			<path class="st3" d="M148.1,387.3v-13.9h2.1v11.9h4.4v2H148.1z"/>
			<path class="st3" d="M159.6,387.3v-0.8c-0.5,0.6-1.2,1-2,1c-1.3,0-2.4-1-2.4-2.7c0-1.5,1-2.7,2.5-2.7c0.8,0,1.3,0.2,1.8,0.5v-0.8
				c0-1-0.5-1.4-1.5-1.4c-0.6,0-1.2,0.1-1.8,0.3l-0.2-1.6c0.7-0.2,1.6-0.4,2.3-0.4c2.1,0,3.1,0.9,3.1,3.1v5.6L159.6,387.3
				L159.6,387.3z M159.5,383.8c-0.4-0.3-0.7-0.4-1.2-0.4c-0.7,0-1.2,0.4-1.2,1.4c0,0.9,0.5,1.4,1.2,1.4c0.6,0,0.9-0.3,1.2-0.6V383.8
				z"/>
			<path class="st3" d="M169.1,387.4c-1,0-1.9-0.1-2.8-0.2v-13.7c0.9-0.1,1.8-0.2,2.8-0.2c4.3,0,6.5,2.9,6.5,7
				C175.6,384.4,173.4,387.4,169.1,387.4z M169.4,375.3c-0.4,0-0.7,0-1,0.1v10.1c0.3,0,0.6,0.1,1.1,0.1c2.5,0,3.8-2,3.8-5.2
				C173.3,377.3,171.9,375.3,169.4,375.3z"/>
			<path class="st3" d="M183,383.7h-4.6c0.1,1.3,0.7,2.2,2.1,2.2c0.6,0,1.2-0.2,1.9-0.4l0.3,1.5c-0.9,0.3-1.6,0.5-2.4,0.5
				c-2.5,0-3.8-1.7-3.8-4.4c0-2.4,1.2-4.4,3.5-4.4c2,0,3.1,1.8,3.1,4.1C183.1,383,183,383.4,183,383.7z M181.3,382.5
				c0-1.3-0.5-2.2-1.4-2.2c-0.8,0-1.4,0.8-1.5,2.2H181.3z"/>
			<path class="st3" d="M188.8,387.3v-5.8c0-0.8-0.3-1.1-1-1.1c-0.6,0-1.2,0.4-1.6,0.9v6h-2v-8.5h1.9v1.3c0.7-0.9,1.6-1.5,2.5-1.5
				c1.4,0,2.1,1,2.1,2.4v6.2L188.8,387.3L188.8,387.3z"/>
			<path class="st3" d="M194.7,380.5v4.3c0,0.7,0.3,0.9,0.8,0.9c0.2,0,0.4,0,0.7-0.1l0.2,1.6c-0.5,0.1-1,0.2-1.5,0.2
				c-1.4,0-2.2-0.7-2.2-2.4v-4.5h-1.3v-0.7l1.3-1.1v-1.2l2-1.3v2.6h1.8v1.7H194.7L194.7,380.5z"/>
			<path class="st3" d="M197.1,383.3v-1.6h3.6v1.6H197.1z"/>
			<path class="st3" d="M206.8,387.3v-0.7c-0.5,0.5-1.2,0.9-2,0.9c-1.7,0-3-1.6-3-4.3c0-2.6,1.5-4.5,3.1-4.5c0.8,0,1.3,0.2,1.8,0.6
				v-5.9h2v13.9H206.8z M206.7,380.9c-0.3-0.4-0.8-0.6-1.3-0.6c-0.9,0-1.7,1-1.7,2.9s0.6,2.7,1.6,2.7c0.6,0,1-0.2,1.3-0.6
				L206.7,380.9L206.7,380.9z"/>
			<path class="st3" d="M216.4,383.7h-4.6c0.1,1.3,0.7,2.2,2.1,2.2c0.6,0,1.2-0.2,1.9-0.4l0.3,1.5c-0.9,0.3-1.6,0.5-2.4,0.5
				c-2.5,0-3.8-1.7-3.8-4.4c0-2.4,1.2-4.4,3.5-4.4c2,0,3.1,1.8,3.1,4.1C216.4,383,216.4,383.4,216.4,383.7z M214.7,382.5
				c0-1.3-0.5-2.2-1.4-2.2c-0.8,0-1.4,0.8-1.5,2.2H214.7z"/>
			<path class="st3" d="M217.4,383.3v-1.6h3.6v1.6H217.4z"/>
			<path class="st3" d="M230.9,387.5l-6-8.7v8.5h-2.1v-14l0.7-0.1l6,8.5v-8.4h2.1v14L230.9,387.5z"/>
			<path class="st3" d="M239.5,383.7h-4.6c0.1,1.3,0.7,2.2,2.1,2.2c0.6,0,1.2-0.2,1.9-0.4l0.3,1.5c-0.9,0.3-1.6,0.5-2.4,0.5
				c-2.5,0-3.8-1.7-3.8-4.4c0-2.4,1.2-4.4,3.5-4.4c2,0,3.1,1.8,3.1,4.1C239.6,383,239.6,383.4,239.5,383.7z M237.8,382.5
				c0-1.3-0.5-2.2-1.4-2.2c-0.8,0-1.4,0.8-1.5,2.2H237.8z"/>
			<path class="st3" d="M245.3,387.3v-5.8c0-0.8-0.3-1.1-1-1.1c-0.6,0-1.2,0.4-1.6,0.9v6h-2v-8.5h1.9v1.3c0.7-0.9,1.6-1.5,2.5-1.5
				c1.4,0,2.1,1,2.1,2.4v6.2L245.3,387.3L245.3,387.3z"/>
			<path class="st3" d="M253.4,387.3v-0.7c-0.5,0.5-1.2,0.9-2,0.9c-1.7,0-3-1.6-3-4.3c0-2.6,1.5-4.5,3.1-4.5c0.8,0,1.3,0.2,1.8,0.6
				v-5.9h2v13.9H253.4z M253.3,380.9c-0.3-0.4-0.8-0.6-1.3-0.6c-0.9,0-1.7,1-1.7,2.9s0.6,2.7,1.6,2.7c0.5,0,1-0.2,1.3-0.6
				L253.3,380.9L253.3,380.9z"/>
			<path class="st3" d="M260.8,387.3v-0.8c-0.5,0.6-1.2,1-2,1c-1.3,0-2.4-1-2.4-2.7c0-1.5,1-2.7,2.5-2.7c0.8,0,1.3,0.2,1.8,0.5v-0.8
				c0-1-0.5-1.4-1.5-1.4c-0.6,0-1.2,0.1-1.8,0.3l-0.2-1.6c0.7-0.2,1.6-0.4,2.3-0.4c2.1,0,3.1,0.9,3.1,3.1v5.6L260.8,387.3
				L260.8,387.3z M260.7,383.8c-0.4-0.3-0.7-0.4-1.2-0.4c-0.7,0-1.2,0.4-1.2,1.4c0,0.9,0.5,1.4,1.2,1.4c0.5,0,0.9-0.3,1.2-0.6V383.8
				z"/>
			<path class="st3" d="M266.1,385.7h3.4v1.6h-6l-0.1-0.3l3.5-6.6h-3.3v-1.6h5.9l0.1,0.3L266.1,385.7z"/>
			<path class="st3" d="M185.7,410.9c-2.8-2.6-4-6-4-9.2c0-3.3,1.2-6.7,4-9.2l0.8,0.8c-2.4,2.1-3.5,5.3-3.5,8.4s1.1,6.3,3.5,8.4
				L185.7,410.9z"/>
			<path class="st3" d="M186.6,406.5l-0.1-0.2c1.5-2.3,2.6-4.3,3.3-5.6s1.3-2.4,1.3-3.6s-0.6-1.9-1.8-1.9c-0.7,0-1.4,0.3-2.1,0.8
				l-0.6-1.1c0.8-0.6,1.7-1,2.7-1c1.9,0,3.1,1.2,3.1,3.1c0,1.4-0.5,2.6-1.5,4.2c-0.6,1.1-1.5,2.6-2.4,4.1h3.9v1.3L186.6,406.5
				L186.6,406.5z"/>
			<path class="st3" d="M199.1,402.9v3.6h-1.3v-3.6h-4.6v-0.4l5.2-8.6h0.7v7.7h1.5v1.3H199.1L199.1,402.9z M197.8,397.1l-2.6,4.5
				h2.6V397.1z"/>
			<path class="st3" d="M204.8,406.7c-2,0-3.3-1.7-3.3-4.4c0-3,1.4-6.2,4.9-8.5l0.7,0.9c-2.1,1.5-3.3,3.2-4,5c0.5-0.8,1.2-1.1,2-1.1
				c1.8,0,2.8,1.8,2.8,3.9C208.1,404.6,206.9,406.7,204.8,406.7z M204.9,399.7c-1.3,0-2,1.2-2,3c0,1.4,0.7,2.8,1.9,2.8
				s1.9-1.4,1.9-2.9C206.7,401,206.1,399.7,204.9,399.7z"/>
			<path class="st3" d="M212,399.4c1.9,0.1,3.1,1.5,3.1,3.5c0,2.1-1.3,3.8-3.5,3.8c-0.9,0-1.6-0.2-2.5-0.5l0.5-1.2
				c0.7,0.3,1.4,0.5,2,0.5c1.5,0,2.2-1.1,2.2-2.6c0-1.6-0.9-2.4-2.5-2.4c-0.4,0-0.8,0.1-1.2,0.2l-0.1-0.2l3.2-5.1h-3.9V394h6
				l0.1,0.2L212,399.4z"/>
			<path class="st3" d="M228.5,406.5v-5.9c0-0.9-0.3-1.3-1.1-1.3c-0.7,0-1.4,0.5-1.9,1.2v6h-1.4v-5.9c0-0.9-0.3-1.3-1.1-1.3
				s-1.4,0.5-1.9,1.2v6h-1.4v-8.2h1.3v1.3c0.6-0.8,1.5-1.4,2.5-1.4c1.1,0,1.6,0.6,1.8,1.5c0.6-0.9,1.6-1.5,2.6-1.5c1.4,0,2,1,2,2.4
				v6L228.5,406.5L228.5,406.5z"/>
			<path class="st3" d="M231.1,410.9l-0.8-0.9c2.4-2.1,3.5-5.3,3.5-8.4s-1.1-6.3-3.5-8.4l0.8-0.8c2.8,2.6,4,6,4,9.2
				C235.1,404.9,233.9,408.3,231.1,410.9z"/>
		</g>
	</g>
</g>
<g id="map-nendaz-dot">
	<g>
		<path class="st4" d="M185.1,347.4c-4.1,0-7.5-3.4-7.5-7.5s3.4-7.5,7.5-7.5c4.2,0,7.5,3.4,7.5,7.5S189.2,347.4,185.1,347.4z"/>
		<path class="st3" d="M185.1,332.8c3.9,0,7,3.2,7,7c0,3.9-3.2,7-7,7c-3.9,0-7-3.2-7-7C178,336,181.2,332.8,185.1,332.8
			 M185.1,331.8c-4.4,0-8,3.6-8,8s3.6,8,8,8s8-3.6,8-8S189.5,331.8,185.1,331.8L185.1,331.8z"/>
	</g>
</g>
<g id="map-midi-txt">
	<g>
		<polygon class="st2" points="139.1,306.3 146.1,306.3 142.6,312.4 139.1,318.4 135.6,312.4 132.1,306.3 		"/>
		<g>
			<path class="st2" d="M156.9,303.9c0,1.3-2,2.4-4.4,2.4H37.7c-2.4,0-4.4-1.1-4.4-2.4v-39.4c0-1.3,2-2.4,4.4-2.4h114.8
				c2.4,0,4.4,1.1,4.4,2.4V303.9L156.9,303.9z"/>
			<g>
				<path class="st3" d="M38.1,281.1v-13.9h2.1v11.9h4.4v2H38.1L38.1,281.1z"/>
				<path class="st3" d="M51.6,277.5H47c0.1,1.3,0.7,2.2,2.1,2.2c0.5,0,1.2-0.2,1.9-0.4l0.3,1.5c-0.9,0.3-1.6,0.5-2.4,0.5
					c-2.5,0-3.8-1.7-3.8-4.4c0-2.4,1.2-4.4,3.5-4.4c2,0,3.1,1.8,3.1,4.1C51.7,276.8,51.7,277.2,51.6,277.5z M49.9,276.3
					c0-1.3-0.5-2.2-1.4-2.2c-0.8,0-1.4,0.8-1.5,2.2H49.9z"/>
				<path class="st3" d="M55,281.3c-1,0-1.9-0.3-2.8-0.9l0.7-1.5c0.7,0.5,1.4,0.8,2,0.8s1-0.3,1-0.9c0-1.3-3.3-1.4-3.3-3.8
					c0-1.4,1.1-2.5,2.7-2.5c0.9,0,1.7,0.3,2.4,0.7l-0.7,1.5c-0.6-0.4-1.1-0.6-1.7-0.6c-0.6,0-0.9,0.3-0.9,0.8c0,1.2,3.4,1.3,3.4,3.8
					C57.7,280.1,56.6,281.3,55,281.3z"/>
				<path class="st3" d="M65,281.2c-1,0-1.9-0.1-2.8-0.2v-13.7c0.9-0.1,1.8-0.2,2.8-0.2c4.3,0,6.5,2.9,6.5,7
					C71.5,278.2,69.3,281.2,65,281.2z M65.3,269.1c-0.4,0-0.7,0-1,0.1v10.1c0.3,0,0.6,0.1,1.1,0.1c2.5,0,3.8-2,3.8-5.2
					C69.2,271.1,67.8,269.1,65.3,269.1z"/>
				<path class="st3" d="M78.9,277.5h-4.6c0.1,1.3,0.7,2.2,2.1,2.2c0.6,0,1.2-0.2,1.9-0.4l0.3,1.5c-0.9,0.3-1.6,0.5-2.4,0.5
					c-2.5,0-3.8-1.7-3.8-4.4c0-2.4,1.2-4.4,3.5-4.4c2,0,3.1,1.8,3.1,4.1C79,276.8,79,277.2,78.9,277.5z M77.2,276.3
					c0-1.3-0.5-2.2-1.4-2.2c-0.8,0-1.4,0.8-1.5,2.2H77.2z"/>
				<path class="st3" d="M84.7,281.1v-5.8c0-0.8-0.3-1.1-1-1.1c-0.6,0-1.2,0.4-1.6,0.9v6h-2v-8.5H82v1.3c0.7-0.9,1.6-1.5,2.5-1.5
					c1.4,0,2.1,1,2.1,2.4v6.2L84.7,281.1L84.7,281.1z"/>
				<path class="st3" d="M90.6,274.3v4.3c0,0.7,0.3,0.9,0.8,0.9c0.2,0,0.4,0,0.7-0.1l0.2,1.6c-0.5,0.1-1,0.2-1.5,0.2
					c-1.4,0-2.2-0.7-2.2-2.4v-4.5h-1.2v-0.7l1.2-1.1v-1.2l2-1.3v2.6h1.8v1.7H90.6L90.6,274.3z"/>
				<path class="st3" d="M95.5,281.3c-1,0-1.9-0.3-2.8-0.9l0.7-1.5c0.7,0.5,1.4,0.8,2,0.8s1-0.3,1-0.9c0-1.3-3.3-1.4-3.3-3.8
					c0-1.4,1.1-2.5,2.7-2.5c0.9,0,1.7,0.3,2.4,0.7l-0.7,1.5c-0.6-0.4-1.1-0.6-1.7-0.6s-0.9,0.3-0.9,0.8c0,1.2,3.4,1.3,3.4,3.8
					C98.2,280.1,97.1,281.3,95.5,281.3z"/>
				<path class="st3" d="M99.1,277.1v-1.6h3.6v1.6H99.1z"/>
				<path class="st3" d="M108.8,281.1v-0.7c-0.5,0.5-1.2,0.9-2,0.9c-1.7,0-3-1.6-3-4.3c0-2.6,1.5-4.5,3.1-4.5c0.8,0,1.3,0.2,1.8,0.6
					v-5.9h2v13.9H108.8z M108.7,274.7c-0.3-0.4-0.8-0.6-1.3-0.6c-0.9,0-1.7,1-1.7,2.9s0.6,2.7,1.6,2.7c0.6,0,1-0.2,1.3-0.6
					C108.7,279.1,108.7,274.7,108.7,274.7z"/>
				<path class="st3" d="M116.8,281.1v-1.2c-0.7,0.8-1.5,1.4-2.5,1.4c-1.4,0-2.1-1-2.1-2.4v-6.3h2v5.8c0,0.8,0.3,1.1,1,1.1
					c0.6,0,1.1-0.3,1.6-0.9v-6.1h2v8.5L116.8,281.1L116.8,281.1z"/>
				<path class="st3" d="M120,277.1v-1.6h3.6v1.6H120z"/>
				<path class="st3" d="M134,281.1l-0.2-8.1l-3,6h-0.3l-3.1-6l-0.1,8.2h-2.1l0.4-14h0.7l4.4,8.3l4.2-8.3h0.7l0.4,14h-2V281.1z"/>
				<path class="st3" d="M138.8,271.3c-0.7,0-1.2-0.6-1.2-1.2c0-0.7,0.5-1.3,1.2-1.3s1.2,0.6,1.2,1.3
					C140,270.7,139.5,271.3,138.8,271.3z M137.9,281.1v-8.5h2v8.5H137.9z"/>
				<path class="st3" d="M146.1,281.1v-0.7c-0.5,0.5-1.2,0.9-2,0.9c-1.7,0-3-1.6-3-4.3c0-2.6,1.5-4.5,3.1-4.5c0.8,0,1.3,0.2,1.8,0.6
					v-5.9h2v13.9H146.1z M146,274.7c-0.3-0.4-0.8-0.6-1.3-0.6c-0.9,0-1.7,1-1.7,2.9s0.6,2.7,1.6,2.7c0.6,0,1-0.2,1.3-0.6L146,274.7
					L146,274.7z"/>
				<path class="st3" d="M150.5,271.3c-0.7,0-1.2-0.6-1.2-1.2c0-0.7,0.5-1.3,1.2-1.3s1.2,0.6,1.2,1.3
					C151.7,270.7,151.2,271.3,150.5,271.3z M149.6,281.1v-8.5h2v8.5H149.6z"/>
				<path class="st3" d="M71.4,304.7c-2.8-2.6-4-6-4-9.2c0-3.3,1.2-6.7,4-9.2l0.8,0.8c-2.4,2.1-3.5,5.3-3.5,8.4s1.1,6.3,3.5,8.4
					L71.4,304.7z"/>
				<path class="st3" d="M72.3,300.3l-0.1-0.2c1.5-2.3,2.6-4.3,3.3-5.6s1.3-2.4,1.3-3.6S76.2,289,75,289c-0.7,0-1.4,0.3-2.1,0.8
					l-0.6-1.1c0.8-0.6,1.7-1,2.7-1c1.9,0,3.1,1.2,3.1,3.1c0,1.4-0.5,2.6-1.5,4.2c-0.6,1.1-1.5,2.6-2.3,4.1h3.9v1.3L72.3,300.3
					L72.3,300.3z"/>
				<path class="st3" d="M83.3,300.5c-2.5,0-3.6-2.9-3.6-6.4s1.2-6.4,3.7-6.4s3.6,3,3.6,6.4C86.9,297.6,85.8,300.5,83.3,300.5z
					 M83.3,288.9c-1.5,0-2.2,2.3-2.2,5.2c0,2.9,0.7,5.2,2.2,5.2s2.2-2.3,2.2-5.2C85.5,291.2,84.8,288.9,83.3,288.9z"/>
				<path class="st3" d="M89.7,300.6l-0.7-0.9c2.1-1.5,3.3-3.2,4-4.9c-0.5,0.7-1.1,1-1.9,1c-1.8,0-2.9-1.7-2.9-3.8
					c0-2.3,1.2-4.2,3.2-4.2s3.2,1.7,3.2,4.4C94.6,295.1,93.2,298.3,89.7,300.6z M91.4,288.9c-1.2,0-1.9,1.3-1.9,2.8
					c0,1.6,0.6,2.9,1.8,2.9c1.3,0,2-1.2,2-3C93.2,290.2,92.5,288.9,91.4,288.9z"/>
				<path class="st3" d="M98.4,300.5c-0.9,0-1.7-0.2-2.5-0.5l0.4-1.2c0.6,0.3,1.3,0.5,2,0.5c1.4,0,2.1-1.1,2.1-2.7
					c0-1.5-0.8-2.6-2.3-2.6c-0.5,0-1.1,0.1-1.6,0.2l-0.2-0.2v-6.2h5.1v1.3h-3.8v3.6c0.2,0,0.5,0,0.7,0c2.3,0,3.5,1.7,3.5,3.7
					C101.8,298.7,100.5,300.5,98.4,300.5z"/>
				<path class="st3" d="M115.3,300.3v-5.9c0-0.9-0.3-1.3-1.1-1.3c-0.7,0-1.4,0.5-1.9,1.2v6H111v-5.9c0-0.9-0.3-1.3-1.1-1.3
					c-0.8,0-1.4,0.5-1.9,1.2v6h-1.4v-8.2h1.3v1.2c0.6-0.8,1.5-1.4,2.5-1.4c1.1,0,1.6,0.6,1.8,1.5c0.6-0.9,1.6-1.5,2.6-1.5
					c1.4,0,2,1,2,2.4v6L115.3,300.3L115.3,300.3z"/>
				<path class="st3" d="M117.9,304.7l-0.8-0.9c2.4-2.1,3.5-5.3,3.5-8.4s-1.1-6.3-3.5-8.4l0.8-0.8c2.8,2.6,4,6,4,9.2
					C121.9,298.7,120.7,302.1,117.9,304.7z"/>
			</g>
		</g>
	</g>
</g>
<g id="map-midi-dot">
	<g>
		<path class="st4" d="M139.7,342.5c-4.1,0-7.5-3.4-7.5-7.5s3.4-7.5,7.5-7.5c4.2,0,7.5,3.4,7.5,7.5S143.9,342.5,139.7,342.5z"/>
		<path class="st3" d="M139.7,327.9c3.9,0,7,3.2,7,7c0,3.9-3.2,7-7,7c-3.9,0-7-3.2-7-7S135.8,327.9,139.7,327.9 M139.7,326.9
			c-4.4,0-8,3.6-8,8s3.6,8,8,8s8-3.6,8-8S144.1,326.9,139.7,326.9L139.7,326.9z"/>
	</g>
</g>
<g id="map-glacier3000-txt">
	<g>
		<path class="st2" d="M286.6,324.8c0,1.3-1.4,2.4-3.1,2.4h-80.3c-1.7,0-3.1-1.1-3.1-2.4v-39.4c0-1.3,1.4-2.4,3.1-2.4h80.3
			c1.7,0,3.1,1.1,3.1,2.4V324.8z"/>
		<g>
			<path class="st3" d="M211.9,294.4v6.7c-1,0.7-2.3,1.1-3.7,1.1c-3.2,0-5.6-2.7-5.6-7.1s2.5-7.2,5.7-7.2c1.5,0,2.6,0.5,3.5,1.2
				l-0.9,1.7c-0.8-0.6-1.6-0.9-2.5-0.9c-2.1,0-3.5,2-3.5,5.2c0,3.4,1.5,5.3,3.5,5.3c0.7,0,1.1-0.1,1.6-0.4v-3.6h-2.2v-1.9
				L211.9,294.4L211.9,294.4z"/>
			<path class="st3" d="M213.5,302v-13.9h2V302H213.5z"/>
			<path class="st3" d="M221,302v-0.8c-0.5,0.6-1.2,1-2,1c-1.3,0-2.4-1-2.4-2.7c0-1.5,1-2.7,2.5-2.7c0.8,0,1.3,0.2,1.8,0.5v-0.8
				c0-1-0.5-1.4-1.5-1.4c-0.6,0-1.2,0.1-1.8,0.3l-0.2-1.6c0.7-0.2,1.6-0.4,2.3-0.4c2.1,0,3.1,0.9,3.1,3.1v5.6L221,302L221,302z
				 M220.9,298.5c-0.4-0.3-0.7-0.4-1.2-0.4c-0.7,0-1.2,0.4-1.2,1.4c0,0.9,0.5,1.4,1.2,1.4c0.6,0,0.9-0.3,1.2-0.6V298.5z"/>
			<path class="st3" d="M227.7,302.2c-2.4,0-3.8-1.9-3.8-4.4c0-2.4,1.4-4.4,3.8-4.4c0.9,0,1.6,0.3,2.2,0.7l-0.7,1.4
				c-0.5-0.3-0.9-0.5-1.5-0.5c-1,0-1.8,1-1.8,2.8c0,1.6,0.8,2.7,1.9,2.7c0.6,0,1.1-0.2,1.5-0.5l0.6,1.4
				C229.3,301.9,228.5,302.2,227.7,302.2z"/>
			<path class="st3" d="M231.7,292.2c-0.7,0-1.2-0.6-1.2-1.2c0-0.7,0.5-1.3,1.2-1.3s1.2,0.6,1.2,1.3
				C232.9,291.6,232.4,292.2,231.7,292.2z M230.7,302v-8.5h2v8.5H230.7z"/>
			<path class="st3" d="M240.5,298.4h-4.6c0.1,1.3,0.7,2.2,2.1,2.2c0.6,0,1.2-0.2,1.9-0.4l0.3,1.5c-0.9,0.3-1.6,0.5-2.4,0.5
				c-2.5,0-3.8-1.7-3.8-4.4c0-2.4,1.2-4.4,3.5-4.4c2,0,3.1,1.8,3.1,4.1C240.5,297.7,240.5,298.1,240.5,298.4z M238.8,297.2
				c0-1.3-0.5-2.2-1.4-2.2c-0.8,0-1.4,0.8-1.5,2.2H238.8z"/>
			<path class="st3" d="M243.7,296.2v5.8h-2v-8.5h1.9v1.4c0.6-0.9,1.3-1.6,2.4-1.6v2.1C244.9,295.4,244.1,295.5,243.7,296.2z"/>
			<path class="st3" d="M253.1,294.7c1.9,0.2,3.1,1.6,3.1,3.5c0,2.3-1.5,4-3.9,4c-0.9,0-1.8-0.2-2.7-0.5l0.5-1.7
				c0.6,0.3,1.3,0.4,2,0.4c1.3,0,2-0.8,2-2.1c0-1.3-0.8-2-2.1-2c-0.5,0-0.9,0.1-1.3,0.2l-0.4-0.8l3.1-4.4h-3.7v-1.8h6.3v1.1
				L253.1,294.7z"/>
			<path class="st3" d="M261.3,302.2c-2.7,0-3.9-2.9-3.9-6.5s1.3-6.5,4-6.5s3.9,2.9,3.9,6.5S264,302.2,261.3,302.2z M261.3,291
				c-1.3,0-1.9,2-1.9,4.7s0.6,4.7,1.9,4.7s1.8-2,1.8-4.7S262.6,291,261.3,291z"/>
			<path class="st3" d="M270.2,302.2c-2.7,0-3.9-2.9-3.9-6.5s1.3-6.5,4-6.5s3.9,2.9,3.9,6.5S272.9,302.2,270.2,302.2z M270.3,291
				c-1.3,0-1.9,2-1.9,4.7s0.6,4.7,1.9,4.7s1.8-2,1.8-4.7S271.6,291,270.3,291z"/>
			<path class="st3" d="M279.2,302.2c-2.7,0-3.9-2.9-3.9-6.5s1.3-6.5,4-6.5s3.9,2.9,3.9,6.5S281.9,302.2,279.2,302.2z M279.2,291
				c-1.3,0-1.9,2-1.9,4.7s0.6,4.7,1.9,4.7s1.8-2,1.8-4.7S280.5,291,279.2,291z"/>
			<path class="st3" d="M218.6,325.6c-2.8-2.6-4-6-4-9.2c0-3.3,1.2-6.7,4-9.2l0.8,0.8c-2.4,2.1-3.5,5.3-3.5,8.4s1.1,6.3,3.5,8.4
				L218.6,325.6z"/>
			<path class="st3" d="M222.6,314.1c1.9,0.1,3.1,1.5,3.1,3.5c0,2.1-1.3,3.8-3.5,3.8c-0.9,0-1.6-0.2-2.5-0.5l0.5-1.2
				c0.7,0.3,1.4,0.5,2,0.5c1.5,0,2.2-1.1,2.2-2.6c0-1.6-0.9-2.4-2.5-2.4c-0.4,0-0.8,0.1-1.2,0.1l-0.1-0.2l3.2-5.1h-3.9v-1.3h6
				l0.1,0.2L222.6,314.1z"/>
			<path class="st3" d="M230.6,321.4c-2.5,0-3.6-2.9-3.6-6.4s1.2-6.4,3.7-6.4s3.6,3,3.6,6.4S233.1,321.4,230.6,321.4z M230.6,309.8
				c-1.5,0-2.2,2.3-2.2,5.2s0.7,5.2,2.2,5.2s2.2-2.3,2.2-5.2S232.1,309.8,230.6,309.8z"/>
			<path class="st3" d="M239,321.4c-2.5,0-3.6-2.9-3.6-6.4s1.2-6.4,3.7-6.4s3.6,3,3.6,6.4S241.5,321.4,239,321.4z M239.1,309.8
				c-1.5,0-2.2,2.3-2.2,5.2s0.7,5.2,2.2,5.2s2.2-2.3,2.2-5.2S240.5,309.8,239.1,309.8z"/>
			<path class="st3" d="M247.5,321.4c-2.5,0-3.6-2.9-3.6-6.4s1.2-6.4,3.7-6.4s3.6,3,3.6,6.4S249.9,321.4,247.5,321.4z M247.5,309.8
				c-1.5,0-2.2,2.3-2.2,5.2s0.7,5.2,2.2,5.2s2.2-2.3,2.2-5.2S249,309.8,247.5,309.8z"/>
			<path class="st3" d="M264.4,321.2v-5.9c0-0.9-0.3-1.3-1.1-1.3c-0.7,0-1.4,0.5-1.9,1.2v6H260v-5.9c0-0.9-0.3-1.3-1.1-1.3
				c-0.8,0-1.4,0.5-1.9,1.2v6h-1.4V313h1.3v1.3c0.6-0.8,1.5-1.4,2.5-1.4c1.1,0,1.6,0.6,1.8,1.5c0.6-0.9,1.6-1.5,2.6-1.5
				c1.4,0,2,1,2,2.4v6L264.4,321.2L264.4,321.2z"/>
			<path class="st3" d="M267,325.6l-0.8-0.9c2.4-2.1,3.5-5.3,3.5-8.4s-1.1-6.3-3.5-8.4l0.8-0.8c2.8,2.6,4,6,4,9.2
				C271,319.6,269.8,323,267,325.6z"/>
		</g>
		<polygon class="st2" points="200.1,298.2 200.1,305.2 194,301.7 188,298.2 194,294.7 200.1,291.2 		"/>
	</g>
</g>
<g id="map-glacier3000-dot">
	<g>
		<path class="st4" d="M170.3,305.4c-4.1,0-7.5-3.4-7.5-7.5s3.4-7.5,7.5-7.5c4.2,0,7.5,3.4,7.5,7.5
			C177.9,302,174.5,305.4,170.3,305.4z"/>
		<path class="st3" d="M170.3,290.9c3.9,0,7,3.2,7,7c0,3.9-3.2,7-7,7c-3.9,0-7-3.2-7-7C163.3,294,166.5,290.9,170.3,290.9
			 M170.3,289.9c-4.4,0-8,3.6-8,8s3.6,8,8,8s8-3.6,8-8C178.4,293.5,174.8,289.9,170.3,289.9L170.3,289.9z"/>
	</g>
</g>
<g id="map-gastlosen-txt">
	<g>
		<path class="st2" d="M252.9,224.2c0,1.3-1.5,2.4-3.3,2.4H165c-1.8,0-3.3-1.1-3.3-2.4v-39.4c0-1.3,1.5-2.4,3.3-2.4h84.6
			c1.8,0,3.3,1.1,3.3,2.4L252.9,224.2L252.9,224.2z"/>
		<g>
			<path class="st3" d="M164.8,201.5v-13.9h2.1v11.9h4.4v2H164.8z"/>
			<path class="st3" d="M178.3,197.9h-4.6c0.1,1.3,0.7,2.2,2.1,2.2c0.6,0,1.2-0.2,1.9-0.4l0.3,1.5c-0.9,0.3-1.6,0.5-2.4,0.5
				c-2.5,0-3.8-1.7-3.8-4.4c0-2.4,1.2-4.4,3.5-4.4c2,0,3.1,1.8,3.1,4.1C178.4,197.2,178.4,197.6,178.3,197.9z M176.6,196.6
				c0-1.3-0.5-2.2-1.4-2.2c-0.8,0-1.4,0.8-1.5,2.2H176.6z"/>
			<path class="st3" d="M181.7,201.6c-1,0-1.9-0.3-2.8-0.9l0.7-1.5c0.7,0.5,1.4,0.8,2,0.8s1-0.3,1-0.9c0-1.3-3.3-1.4-3.3-3.8
				c0-1.4,1.1-2.5,2.7-2.5c0.9,0,1.7,0.3,2.4,0.7l-0.7,1.5c-0.6-0.4-1.1-0.6-1.7-0.6c-0.6,0-0.9,0.3-0.9,0.8c0,1.2,3.4,1.3,3.4,3.8
				C184.4,200.5,183.3,201.6,181.7,201.6z"/>
			<path class="st3" d="M197.8,193.9v6.7c-1,0.7-2.3,1.1-3.7,1.1c-3.2,0-5.6-2.7-5.6-7.1c0-4.4,2.5-7.2,5.7-7.2
				c1.5,0,2.6,0.5,3.5,1.2l-0.9,1.7c-0.8-0.6-1.6-0.9-2.5-0.9c-2.1,0-3.5,2-3.5,5.2c0,3.4,1.5,5.3,3.5,5.3c0.7,0,1.1-0.1,1.6-0.4
				v-3.6h-2.2V194L197.8,193.9L197.8,193.9z"/>
			<path class="st3" d="M203.3,201.5v-0.8c-0.5,0.6-1.2,1-2,1c-1.3,0-2.4-1-2.4-2.7c0-1.5,1-2.7,2.5-2.7c0.8,0,1.3,0.2,1.8,0.5V196
				c0-1-0.5-1.4-1.5-1.4c-0.6,0-1.2,0.1-1.8,0.3l-0.2-1.6c0.7-0.2,1.6-0.4,2.3-0.4c2.1,0,3.1,0.9,3.1,3.1v5.6h-1.8V201.5z
				 M203.2,197.9c-0.4-0.3-0.7-0.4-1.2-0.4c-0.7,0-1.2,0.4-1.2,1.4c0,0.9,0.5,1.4,1.2,1.4c0.6,0,0.9-0.3,1.2-0.6V197.9z"/>
			<path class="st3" d="M208.8,201.6c-1,0-1.9-0.3-2.8-0.9l0.7-1.5c0.7,0.5,1.4,0.8,2,0.8s1-0.3,1-0.9c0-1.3-3.3-1.4-3.3-3.8
				c0-1.4,1.1-2.5,2.7-2.5c0.9,0,1.7,0.3,2.4,0.7l-0.7,1.5c-0.6-0.4-1.1-0.6-1.7-0.6c-0.6,0-0.9,0.3-0.9,0.8c0,1.2,3.4,1.3,3.4,3.8
				C211.5,200.5,210.4,201.6,208.8,201.6z"/>
			<path class="st3" d="M215,194.7v4.3c0,0.7,0.3,0.9,0.8,0.9c0.2,0,0.4,0,0.7-0.1l0.2,1.6c-0.5,0.1-1,0.2-1.5,0.2
				c-1.4,0-2.2-0.7-2.2-2.4v-4.5h-1.2V194l1.2-1.1v-1.2l2-1.3v2.6h1.8v1.7H215L215,194.7z"/>
			<path class="st3" d="M217.8,201.5v-13.9h2v13.9H217.8z"/>
			<path class="st3" d="M224.6,201.6c-2.2,0-3.5-1.8-3.5-4.4c0-2.4,1.3-4.4,3.5-4.4s3.5,1.8,3.5,4.4
				C228.1,199.7,226.8,201.6,224.6,201.6z M224.5,194.4c-1,0-1.6,1.2-1.6,2.8c0,1.7,0.6,2.8,1.6,2.8s1.6-1.2,1.6-2.8
				C226.1,195.5,225.6,194.4,224.5,194.4z"/>
			<path class="st3" d="M231.4,201.6c-1,0-1.9-0.3-2.8-0.9l0.7-1.5c0.7,0.5,1.4,0.8,2,0.8s1-0.3,1-0.9c0-1.3-3.3-1.4-3.3-3.8
				c0-1.4,1.1-2.5,2.7-2.5c0.9,0,1.7,0.3,2.4,0.7l-0.7,1.5c-0.6-0.4-1.1-0.6-1.7-0.6c-0.6,0-0.9,0.3-0.9,0.8c0,1.2,3.4,1.3,3.4,3.8
				C234.2,200.5,233,201.6,231.4,201.6z"/>
			<path class="st3" d="M241.4,197.9h-4.6c0.1,1.3,0.7,2.2,2.1,2.2c0.6,0,1.2-0.2,1.9-0.4l0.3,1.5c-0.9,0.3-1.6,0.5-2.4,0.5
				c-2.5,0-3.8-1.7-3.8-4.4c0-2.4,1.2-4.4,3.5-4.4c2,0,3.1,1.8,3.1,4.1C241.5,197.2,241.5,197.6,241.4,197.9z M239.7,196.6
				c0-1.3-0.5-2.2-1.4-2.2c-0.8,0-1.4,0.8-1.5,2.2H239.7z"/>
			<path class="st3" d="M247.2,201.5v-5.8c0-0.8-0.3-1.1-1-1.1c-0.6,0-1.2,0.4-1.6,0.9v6h-2V193h1.9v1.3c0.7-0.9,1.6-1.5,2.5-1.5
				c1.4,0,2.1,1,2.1,2.4v6.2L247.2,201.5L247.2,201.5z"/>
			<path class="st3" d="M186.1,225c-2.8-2.6-4-6-4-9.2c0-3.3,1.2-6.7,4-9.2l0.8,0.8c-2.4,2.1-3.5,5.3-3.5,8.4c0,3.1,1.1,6.3,3.5,8.4
				L186.1,225z"/>
			<path class="st3" d="M189,220.6v-10.8l-1.6,0.7l-0.4-1.2l3-1.3h0.3v12.6H189L189,220.6z"/>
			<path class="st3" d="M194.3,220.9l-0.7-0.9c2.1-1.5,3.3-3.2,4-4.9c-0.5,0.7-1.1,1-1.9,1c-1.8,0-2.9-1.7-2.9-3.8
				c0-2.3,1.2-4.2,3.2-4.2s3.2,1.7,3.2,4.4C199.2,215.4,197.8,218.6,194.3,220.9z M195.9,209.2c-1.2,0-1.9,1.3-1.9,2.8
				c0,1.6,0.6,2.9,1.8,2.9c1.3,0,2-1.2,2-3C197.8,210.5,197.1,209.2,195.9,209.2z"/>
			<path class="st3" d="M199.8,220.6l-0.1-0.2c1.5-2.3,2.6-4.3,3.3-5.6s1.3-2.4,1.3-3.6c0-1.2-0.6-1.9-1.8-1.9
				c-0.7,0-1.4,0.3-2.1,0.8l-0.6-1.1c0.8-0.6,1.7-1,2.7-1c1.9,0,3.1,1.2,3.1,3.1c0,1.4-0.5,2.6-1.5,4.2c-0.6,1.1-1.5,2.6-2.4,4.1
				h3.9v1.3L199.8,220.6L199.8,220.6z"/>
			<path class="st3" d="M209,220.6v-10.8l-1.6,0.7l-0.4-1.2l3-1.3h0.3v12.6H209L209,220.6z"/>
			<path class="st3" d="M224.8,220.6v-5.9c0-0.9-0.3-1.3-1.1-1.3c-0.7,0-1.4,0.5-1.9,1.2v6h-1.4v-5.9c0-0.9-0.3-1.3-1.1-1.3
				s-1.4,0.5-1.9,1.2v6H216v-8.2h1.3v1.3c0.6-0.8,1.5-1.4,2.5-1.4c1.1,0,1.6,0.6,1.8,1.5c0.6-0.9,1.6-1.5,2.6-1.5c1.4,0,2,1,2,2.4v6
				L224.8,220.6L224.8,220.6z"/>
			<path class="st3" d="M227.4,225l-0.8-0.9c2.4-2.1,3.5-5.3,3.5-8.4c0-3.1-1.1-6.3-3.5-8.4l0.8-0.8c2.8,2.6,4,6,4,9.2
				C231.4,219,230.2,222.4,227.4,225z"/>
		</g>
		<polygon class="st2" points="187,226.7 194,226.7 190.5,232.7 187,238.8 183.5,232.7 180,226.7 		"/>
	</g>
</g>
<g id="map-gastlosen-dot">
	<g>
		<path class="st4" d="M187,263.6c-4.1,0-7.5-3.4-7.5-7.5s3.4-7.5,7.5-7.5c4.2,0,7.5,3.4,7.5,7.5C194.6,260.2,191.2,263.6,187,263.6
			z"/>
		<path class="st3" d="M187,249c3.9,0,7,3.2,7,7c0,3.9-3.2,7-7,7c-3.9,0-7-3.2-7-7C180,252.2,183.2,249,187,249 M187,248
			c-4.4,0-8,3.6-8,8s3.6,8,8,8s8-3.6,8-8C195.1,251.6,191.5,248,187,248L187,248z"/>
	</g>
</g>
<g id="Calque_2">
</g>
</svg>
