<?xml version="1.0" encoding="utf-8"?>
<!-- Generator: Adobe Illustrator 22.0.0, SVG Export Plug-In . SVG Version: 6.00 Build 0)  -->
<svg version="1.1" xmlns="http://www.w3.org/2000/svg" xmlns:xlink="http://www.w3.org/1999/xlink" x="0px" y="0px"
	 viewBox="0 0 80.7 62.3" style="enable-background:new 0 0 80.7 62.3;" xml:space="preserve">
<style type="text/css">
	.st0{fill:#141412;}
	.st1{fill:#FFFFFF;}
	.st2{display:none;}
	.st3{display:inline;}
	.st4{fill:#141412;stroke:#FFFFFF;stroke-width:0.5;stroke-miterlimit:10;}
	.st5{stroke:#000000;stroke-width:0.25;stroke-miterlimit:10;}
</style>
<g id="ICON1">
	<g>
		<g>
			<g>
				<path class="st0" d="M7.6,35.9l0-24.4l1.3,0l1.6,0c0.1,0,0.1,0,0.2,0c0,0,0,0,0,0c0,0,0.1,0,0.1-0.1c0,0,0,0,0,0
					c0,0,0.1-0.1,0.1-0.1c0,0,0,0,0,0c0,0,0.1-0.1,0.1-0.2c0.1-0.2,0.1-0.5-0.1-0.7L6.6,1.3C6.5,1.1,6.3,1,6,1
					C5.8,1,5.6,1.1,5.5,1.3l-4.4,9.2C1,10.6,0.9,10.7,1,10.9l0,0c0,0,0,0.1,0,0.1c0,0,0,0.1,0,0.1c0.1,0.2,0.3,0.4,0.6,0.4l2.9,0
					l0,24.4c0,0.9,0.7,1.5,1.5,1.5C6.9,37.5,7.6,36.8,7.6,35.9z"/>
				<path class="st1" d="M6.1,37.7c-1,0-1.8-0.8-1.8-1.8l0-24.2l-2.6,0c0,0,0,0,0,0c-0.3,0-0.7-0.2-0.8-0.5c0-0.1-0.1-0.1-0.1-0.2
					c0,0,0-0.1,0-0.2c0-0.2,0-0.4,0.2-0.6l4.4-9.1c0.4-0.6,1.2-0.5,1.5,0l4.5,9.2c0.2,0.2,0.2,0.6,0.1,0.9c0,0.1-0.1,0.2-0.2,0.2
					c-0.1,0.1-0.1,0.1-0.2,0.1c-0.1,0-0.1,0.1-0.2,0.1l-0.1,0c-0.1,0-0.1,0-0.2,0l-2.6,0l0,24.2C7.9,36.9,7.1,37.7,6.1,37.7z
					 M4.8,11.3l0,24.7c0,0.7,0.6,1.3,1.3,1.3c0.7,0,1.3-0.6,1.3-1.3l0-24.7l3.1,0c0,0,0.1,0,0.1,0c0.1,0,0.1,0,0.1,0
					c0,0,0.1,0,0.1-0.1c0,0,0.1-0.1,0.1-0.1c0.1-0.1,0.1-0.3,0-0.4L6.4,1.4c-0.1-0.1-0.5-0.2-0.6,0l-4.4,9.1
					c-0.1,0.1-0.1,0.2-0.1,0.3c0,0,0,0.1,0,0.1c0,0,0,0.1,0,0.1c0.1,0.1,0.2,0.2,0.4,0.2c0,0,0,0,0,0L4.8,11.3z"/>
			</g>
		</g>
		<g>
			<g>
				<path d="M64.7,29L50.4,2c-0.3-0.6-1-1-1.7-1c0,0,0,0,0,0c-0.7,0-1.4,0.4-1.7,1L33.9,26.4c-0.2,0.4-0.2,0.9,0.1,1.3l3.2,4.2
					c0.4,0.5,0.9,0.7,1.5,0.8c0.6,0,1.1-0.2,1.5-0.6l5.1-5.7l9.8,11.6c0.4,0.4,0.9,0.7,1.5,0.7c0,0,0,0,0,0c0.6,0,1.1-0.2,1.5-0.7
					l5.8-6.6c0,0,0.1-0.1,0.1-0.1l0.6-1C64.8,29.9,64.9,29.4,64.7,29z M62.1,29.8l-5.5,6.3l-9.8-11.6c-0.4-0.4-0.9-0.7-1.5-0.7
					c0,0,0,0,0,0c-0.6,0-1.1,0.2-1.5,0.7l-5,5.6l-2.5-3.2L48.7,3.8l13.6,25.8L62.1,29.8z"/>
			</g>
		</g>
		<g>
			<g>
				<path d="M80,58.1l-9.2-17.3c-0.3-0.6-1-0.8-1.6-0.5c-0.6,0.3-0.8,1-0.5,1.6l8.9,16.8H46.6c0-0.2-13.5-25.8-13.5-25.8l2-3.7
					l2.1,2.8c0.4,0.5,0.9,0.7,1.5,0.8c0.6,0,1.1-0.2,1.5-0.6l5.1-5.7l9.8,11.6c0.4,0.4,0.9,0.7,1.5,0.7c0,0,0,0,0,0
					c0.6,0,1.1-0.2,1.5-0.7c0,0,0,0,0,0l5.4-6.3l2.2,4.1c0.3,0.6,1,0.8,1.6,0.5c0.6-0.3,0.8-1,0.5-1.6L50.4,2c-0.3-0.6-1-1-1.7-1h0
					c-0.7,0-1.4,0.4-1.7,1L34.7,24.9l-0.8,1.5c0,0,0,0,0,0l-2.1,4l-6.3-11.9c-0.3-0.5-0.7-0.8-1.2-1c-0.2,0-0.3-0.1-0.5-0.1
					c0,0,0,0,0,0c0,0,0,0-0.1,0c0,0,0,0-0.1,0c0,0,0,0-0.1,0c0,0-0.1,0-0.1,0c0,0,0,0-0.1,0c0,0,0,0-0.1,0c-0.6,0.1-1,0.5-1.3,1
					l-4.3,8l-7.2,13.4c0,0,0,0,0,0L0.8,58.1c-0.3,0.6-0.3,1.3,0,1.9c0.4,0.6,1,0.9,1.7,0.9h75.8c0.7,0,1.3-0.4,1.7-0.9
					C80.3,59.5,80.4,58.7,80,58.1z M36.6,26.2l12-22.4l13.6,25.7l-5.7,6.7l-9.8-11.6c-0.4-0.4-0.9-0.7-1.5-0.7c0,0,0,0,0,0
					c-0.6,0-1.1,0.2-1.5,0.7l-5,5.6l-2.5-3.2L36.6,26.2z M3.1,58.7l8.8-16.5l3.4,2.9c0.4,0.3,0.8,0.5,1.3,0.5c0.5,0,1.1-0.2,1.5-0.7
					l3.9-4.4l2.5,2.5c0.5,0.5,1.2,0.5,1.6,0c0.5-0.5,0.5-1.2,0-1.6l-2.8-2.8c-0.4-0.4-0.9-0.6-1.4-0.6c-0.5,0-1,0.3-1.4,0.7L16.6,43
					l-3.5-2.9l10.7-19.9l13.8,26l-3.3,3.1l-3-3c-0.5-0.5-1.2-0.5-1.6,0c-0.5,0.5-0.5,1.2,0,1.6l3.3,3.3c0.4,0.4,0.9,0.6,1.4,0.6
					c0.5,0,0.9-0.2,1.3-0.5l3.1-2.9l5.4,10.3H3.1z"/>
			</g>
		</g>
	</g>
</g>
<g id="ICON2" class="st2">
	<g class="st3">
		<g>
			<path class="st4" d="M4.5,2.9l0,24.4l-1.3,0l-1.6,0c-0.1,0-0.1,0-0.2,0c0,0,0,0,0,0c0,0-0.1,0-0.1,0.1c0,0,0,0,0,0
				c0,0-0.1,0.1-0.1,0.1c0,0,0,0,0,0c0,0-0.1,0.1-0.1,0.2c-0.1,0.2-0.1,0.5,0.1,0.7l4.4,9.2c0.1,0.2,0.3,0.3,0.5,0.3
				c0.2,0,0.4-0.1,0.5-0.3l4.4-9.2c0.1-0.1,0.1-0.3,0.1-0.4l0,0c0,0,0-0.1,0-0.1c0,0,0-0.1,0-0.1c-0.1-0.2-0.3-0.4-0.6-0.4l-2.9,0
				l0-24.4c0-0.9-0.7-1.5-1.5-1.5C5.2,1.4,4.5,2.1,4.5,2.9z"/>
		</g>
		<g>
			<g>
				<path d="M64.7,29L50.4,2c-0.3-0.6-1-1-1.7-1c0,0,0,0,0,0c-0.7,0-1.4,0.4-1.7,1L33.9,26.4c-0.2,0.4-0.2,0.9,0.1,1.3l3.2,4.2
					c0.4,0.5,0.9,0.7,1.5,0.8c0.6,0,1.1-0.2,1.5-0.6l5.1-5.7l9.8,11.6c0.4,0.4,0.9,0.7,1.5,0.7c0,0,0,0,0,0c0.6,0,1.1-0.2,1.5-0.7
					l5.8-6.6c0,0,0.1-0.1,0.1-0.1l0.6-1C64.8,29.9,64.9,29.4,64.7,29z M62.1,29.8l-5.5,6.3l-9.8-11.6c-0.4-0.4-0.9-0.7-1.5-0.7
					c0,0,0,0,0,0c-0.6,0-1.1,0.2-1.5,0.7l-5,5.6l-2.5-3.2L48.7,3.8l13.6,25.8L62.1,29.8z"/>
			</g>
		</g>
		<g>
			<g>
				<path d="M80,58.1l-9.2-17.3c-0.3-0.6-1-0.8-1.6-0.5c-0.6,0.3-0.8,1-0.5,1.6l8.9,16.8H46.6c0-0.2-13.5-25.8-13.5-25.8l2-3.7
					l2.1,2.8c0.4,0.5,0.9,0.7,1.5,0.8c0.6,0,1.1-0.2,1.5-0.6l5.1-5.7l9.8,11.6c0.4,0.4,0.9,0.7,1.5,0.7c0,0,0,0,0,0
					c0.6,0,1.1-0.2,1.5-0.7c0,0,0,0,0,0l5.4-6.3l2.2,4.1c0.3,0.6,1,0.8,1.6,0.5c0.6-0.3,0.8-1,0.5-1.6L50.4,2c-0.3-0.6-1-1-1.7-1h0
					c-0.7,0-1.4,0.4-1.7,1L34.7,24.9l-0.8,1.5c0,0,0,0,0,0l-2.1,4l-6.3-11.9c-0.3-0.5-0.7-0.8-1.2-1c-0.2,0-0.3-0.1-0.5-0.1
					c0,0,0,0,0,0c0,0,0,0-0.1,0c0,0,0,0-0.1,0c0,0,0,0-0.1,0c0,0-0.1,0-0.1,0c0,0,0,0-0.1,0c0,0,0,0-0.1,0c-0.6,0.1-1,0.5-1.3,1
					l-4.3,8l-7.2,13.4c0,0,0,0,0,0L0.8,58.1c-0.3,0.6-0.3,1.3,0,1.9c0.4,0.6,1,0.9,1.7,0.9h75.8c0.7,0,1.3-0.4,1.7-0.9
					C80.3,59.5,80.4,58.7,80,58.1z M36.6,26.2l12-22.4l13.6,25.7l-5.7,6.7l-9.8-11.6c-0.4-0.4-0.9-0.7-1.5-0.7c0,0,0,0,0,0
					c-0.6,0-1.1,0.2-1.5,0.7l-5,5.6l-2.5-3.2L36.6,26.2z M3.1,58.7l8.8-16.5l3.4,2.9c0.4,0.3,0.8,0.5,1.3,0.5c0.5,0,1.1-0.2,1.5-0.7
					l3.9-4.4l2.5,2.5c0.5,0.5,1.2,0.5,1.6,0c0.5-0.5,0.5-1.2,0-1.6l-2.8-2.8c-0.4-0.4-0.9-0.6-1.4-0.6c-0.5,0-1,0.3-1.4,0.7L16.6,43
					l-3.5-2.9l10.7-19.9l13.8,26l-3.3,3.1l-3-3c-0.5-0.5-1.2-0.5-1.6,0c-0.5,0.5-0.5,1.2,0,1.6l3.3,3.3c0.4,0.4,0.9,0.6,1.4,0.6
					c0.5,0,0.9-0.2,1.3-0.5l3.1-2.9l5.4,10.3H3.1z"/>
			</g>
		</g>
	</g>
</g>
<g id="ICON3" class="st2">
	<g class="st3">
		<path d="M71.3,1.2c-0.3-0.2-0.8-0.2-1.1,0L50.9,11.2L31.6,1.1c0,0,0,0,0,0c-0.1,0-0.1,0-0.2-0.1c0,0-0.1,0-0.1,0
			c-0.1,0-0.1,0-0.2,0c0,0-0.1,0-0.1,0c-0.1,0-0.1,0-0.2,0c0,0-0.1,0-0.1,0c0,0,0,0,0,0L9.7,8C9.2,8.1,8.9,8.6,8.9,9.1v49.6
			c0,0.4,0.2,0.7,0.5,0.9c0.2,0.1,0.4,0.2,0.7,0.2c0.1,0,0.2,0,0.4-0.1L31,53l19.4,7.9c0,0,0,0,0.1,0c0.1,0,0.3,0.1,0.4,0.1
			c0.1,0,0.2,0,0.3,0c0,0,0.1,0,0.1,0c0,0,0.1,0,0.1-0.1l19.8-10.4c0.4-0.2,0.6-0.6,0.6-1V2.2C71.9,1.7,71.7,1.4,71.3,1.2z
			 M11.2,9.9l18.7-6.2v31.1c-0.5,0.1-1,0.2-1.5,0.3c-0.6,0.2-1,0.8-0.8,1.4c0.1,0.5,0.6,0.9,1.1,0.9c0.1,0,0.2,0,0.3,0
			c0.3-0.1,0.6-0.1,0.9-0.2v13.7l-18.7,6.2V9.9z M32.2,37c0.4,0,0.7-0.1,1.1-0.1c0.6,0,1.2-0.5,1.1-1.2c0-0.6-0.5-1.1-1.2-1.1
			c0,0,0,0,0,0c-0.4,0-0.7,0-1.1,0.1V4.1l17.5,9.2v24.5c-0.8,0-1.7-0.1-2.6-0.3c-0.6-0.1-1.2,0.3-1.4,0.9c-0.1,0.6,0.3,1.2,0.9,1.4
			c1,0.2,2,0.3,3,0.3v18.1L32.2,51V37z M69.6,48.8l-17.5,9.2V39.9c0.4-0.2,0.7-0.6,0.7-1.1c0-0.4-0.3-0.8-0.7-0.9V13.2l17.5-9.2
			V48.8z"/>
		<path d="M21.7,10.2c-3.2,0-5.8,2.6-5.8,5.8c0,2.8,2,5.1,4.7,5.7v2.4c0,0.6,0.5,1.2,1.2,1.2c0.6,0,1.2-0.5,1.2-1.2v-2.4
			c2.7-0.5,4.7-2.9,4.7-5.7C27.6,12.8,24.9,10.2,21.7,10.2z M21.7,19.5c-1.9,0-3.5-1.6-3.5-3.5s1.6-3.5,3.5-3.5s3.5,1.6,3.5,3.5
			S23.7,19.5,21.7,19.5z"/>
		<path d="M61.5,31.8c0.1,0.1,0.3,0.1,0.4,0.1c0.5,0,0.9-0.3,1.1-0.7c0.5-1.4,1-2.9,1.3-4.6c0.1-0.6-0.3-1.2-0.9-1.3
			c-0.6-0.1-1.2,0.3-1.4,0.9c-0.3,1.6-0.7,3-1.2,4.2C60.6,30.9,60.9,31.5,61.5,31.8z"/>
		<path d="M23.8,37.2c-1.4,0.9-2.7,2-3.8,3.3c-0.4,0.5-0.4,1.2,0.1,1.6c0.2,0.2,0.5,0.3,0.8,0.3c0.3,0,0.7-0.1,0.9-0.4
			c0.9-1.1,2-2,3.2-2.8c0.5-0.3,0.7-1.1,0.4-1.6C25.1,37,24.4,36.8,23.8,37.2z"/>
		<path d="M19,44c-0.6-0.3-1.3,0-1.5,0.6c-1.2,2.6-1.5,4.6-1.5,4.7c-0.1,0.6,0.4,1.2,1,1.3c0.1,0,0.1,0,0.2,0c0.6,0,1.1-0.4,1.2-1
			c0,0,0.3-1.8,1.3-4.1C19.8,45,19.5,44.3,19,44z"/>
		<path d="M56,38.8c0.2,0,0.4,0,0.5-0.1c1.5-0.8,2.8-1.8,3.9-3.2c0.4-0.5,0.3-1.2-0.2-1.6c-0.5-0.4-1.2-0.3-1.6,0.2
			c-0.9,1.1-2,2-3.2,2.6c-0.6,0.3-0.8,1-0.5,1.6C55.2,38.5,55.6,38.8,56,38.8z"/>
		<path d="M42.9,36.1c-0.5-0.2-0.8-0.4-0.8-0.4c-0.1,0-0.2-0.1-0.2-0.1c-1.3-0.3-2.5-0.6-3.7-0.8c-0.6-0.1-1.2,0.3-1.3,1
			c-0.1,0.6,0.3,1.2,1,1.3c1.1,0.2,2.2,0.4,3.4,0.7c0.2,0.1,0.5,0.2,0.9,0.4c0.1,0.1,0.3,0.1,0.4,0.1c0.5,0,0.9-0.3,1.1-0.7
			C43.8,37,43.5,36.4,42.9,36.1z"/>
		<path d="M63.6,22.8C63.7,22.8,63.7,22.8,63.6,22.8c0.7,0,1.2-0.5,1.2-1.1c0.1-1.1,0.1-2.3,0.1-3.5c0-0.4,0-0.8,0-1.2
			c0-0.6-0.6-1.1-1.2-1.1c-0.6,0-1.2,0.5-1.1,1.2c0,0.4,0,0.8,0,1.2c0,1.2,0,2.3-0.1,3.3C62.5,22.3,63,22.8,63.6,22.8z"/>
		<path d="M18.6,33c0.2,0.2,0.5,0.3,0.8,0.3s0.6-0.1,0.8-0.3l1.5-1.5l1.5,1.5c0.2,0.2,0.5,0.3,0.8,0.3s0.6-0.1,0.8-0.3
			c0.5-0.5,0.5-1.2,0-1.6l-1.5-1.5l1.5-1.5c0.5-0.5,0.5-1.2,0-1.6c-0.5-0.5-1.2-0.5-1.6,0l-1.5,1.5l-1.5-1.5c-0.5-0.5-1.2-0.5-1.6,0
			s-0.5,1.2,0,1.6l1.5,1.5l-1.5,1.5C18.1,31.8,18.1,32.5,18.6,33z"/>
	</g>
</g>
<g id="ICON4" class="st2">
	<g class="st3">
		<path class="st5" d="M10.4,31c0,16.5,13.5,30,30,30s30-13.5,30-30S56.9,1,40.4,1S10.4,14.5,10.4,31z M12.4,31
			c0-15.4,12.6-28,28-28s28,12.6,28,28s-12.6,28-28,28S12.4,46.4,12.4,31z"/>
		<path class="st5" d="M36.4,30.9c0,2.2,1.8,4,4,4c1.9,0,3.4-1.3,3.9-3h7.1c0.6,0,1-0.4,1-1s-0.4-1-1-1h-7.1
			c-0.4-1.4-1.5-2.5-2.9-2.9V16.9c0-0.6-0.4-1-1-1c-0.6,0-1,0.4-1,1V27C37.7,27.5,36.4,29,36.4,30.9z M38.4,30.9c0-1.1,0.9-2,2-2
			s2,0.9,2,2s-0.9,2-2,2C39.3,32.9,38.4,32,38.4,30.9z"/>
		<path class="st5" d="M41.4,9.9v-1c0-0.6-0.4-1-1-1c-0.6,0-1,0.4-1,1v1c0,0.6,0.4,1,1,1C40.9,10.9,41.4,10.4,41.4,9.9z"/>
		<path class="st5" d="M39.4,51.9v1c0,0.6,0.4,1,1,1c0.6,0,1-0.4,1-1v-1c0-0.6-0.4-1-1-1C39.8,50.9,39.4,51.3,39.4,51.9z"/>
		<path class="st5" d="M17.4,30.9c0,0.6,0.4,1,1,1h1c0.6,0,1-0.4,1-1s-0.4-1-1-1h-1C17.8,29.9,17.4,30.3,17.4,30.9z"/>
		<path class="st5" d="M60.4,30.9c0,0.6,0.4,1,1,1h1c0.6,0,1-0.4,1-1s-0.4-1-1-1h-1C60.8,29.9,60.4,30.3,60.4,30.9z"/>
		<path class="st5" d="M24.1,14.6c-0.4,0.4-0.4,1,0,1.4l0.7,0.7c0.2,0.2,0.5,0.3,0.7,0.3s0.5-0.1,0.7-0.3c0.4-0.4,0.4-1,0-1.4
			l-0.7-0.7C25.1,14.2,24.5,14.2,24.1,14.6z"/>
		<path class="st5" d="M54.5,45c-0.4,0.4-0.4,1,0,1.4l0.7,0.7c0.2,0.2,0.5,0.3,0.7,0.3s0.5-0.1,0.7-0.3c0.4-0.4,0.4-1,0-1.4L55.9,45
			C55.6,44.6,54.9,44.6,54.5,45z"/>
		<path class="st5" d="M24.1,45.7c-0.4,0.4-0.4,1,0,1.4c0.2,0.2,0.5,0.3,0.7,0.3s0.5-0.1,0.7-0.3l0.7-0.7c0.4-0.4,0.4-1,0-1.4
			s-1-0.4-1.4,0L24.1,45.7z"/>
		<path class="st5" d="M54.5,15.3c-0.4,0.4-0.4,1,0,1.4c0.2,0.2,0.5,0.3,0.7,0.3c0.3,0,0.5-0.1,0.7-0.3l0.7-0.7c0.4-0.4,0.4-1,0-1.4
			c-0.4-0.4-1-0.4-1.4,0L54.5,15.3z"/>
	</g>
</g>
</svg>
